<svg xmlns="http://www.w3.org/2000/svg" xmlns:xlink="http://www.w3.org/1999/xlink" width="354" zoomAndPan="magnify" viewBox="0 0 265.5 237" height="316" preserveAspectRatio="xMidYMid meet" version="1.0"><defs><clipPath id="72f758568b"><path d="M 54 0.222656 L 194 0.222656 L 194 145 L 54 145 Z M 54 0.222656 " clip-rule="nonzero"/></clipPath><clipPath id="cfcdb7985f"><path d="M 0 0.222656 L 93 0.222656 L 93 205 L 0 205 Z M 0 0.222656 " clip-rule="nonzero"/></clipPath><clipPath id="95bd22eb80"><path d="M 166 185 L 265 185 L 265 228 L 166 228 Z M 166 185 " clip-rule="nonzero"/></clipPath><clipPath id="0eca527ef9"><path d="M 0 209.441406 L 205.707031 209.441406 L 205.707031 236.390625 L 0 236.390625 Z M 0 209.441406 " clip-rule="nonzero"/></clipPath><clipPath id="609ee21ff2"><path d="M 39.53125 236.390625 L 166.074219 236.390625 L 205.605469 209.441406 L 0 209.441406 Z M 39.53125 236.390625 " clip-rule="nonzero"/></clipPath><clipPath id="f56356ce5b"><path d="M 0 0.441406 L 205.707031 0.441406 L 205.707031 27.390625 L 0 27.390625 Z M 0 0.441406 " clip-rule="nonzero"/></clipPath><clipPath id="0c1d57e015"><path d="M 39.53125 27.390625 L 166.074219 27.390625 L 205.605469 0.441406 L 0 0.441406 Z M 39.53125 27.390625 " clip-rule="nonzero"/></clipPath><clipPath id="beb6d47670"><rect x="0" width="206" y="0" height="28"/></clipPath><clipPath id="36a0bd60fb"><path d="M 20 109 L 180 109 L 180 200 L 20 200 Z M 20 109 " clip-rule="nonzero"/></clipPath><clipPath id="9aab11d22e"><path d="M 30.421875 109.703125 L 179.492188 133.085938 L 169.144531 199.0625 L 20.074219 175.679688 Z M 30.421875 109.703125 " clip-rule="nonzero"/></clipPath><clipPath id="b5a129aab8"><path d="M 0 0.695312 L 159.660156 0.695312 L 159.660156 90.289062 L 0 90.289062 Z M 0 0.695312 " clip-rule="nonzero"/></clipPath><clipPath id="26c7add4f6"><path d="M 10.421875 0.703125 L 159.492188 24.085938 L 149.144531 90.0625 L 0.0742188 66.679688 Z M 10.421875 0.703125 " clip-rule="nonzero"/></clipPath><clipPath id="fc9c1197ba"><rect x="0" width="160" y="0" height="91"/></clipPath><clipPath id="9fa08590c2"><path d="M 159 126 L 181 126 L 181 195 L 159 195 Z M 159 126 " clip-rule="nonzero"/></clipPath><clipPath id="d48f59caac"><path d="M 159.296875 127.140625 L 177.824219 126.34375 L 180.738281 193.957031 L 162.207031 194.757812 Z M 159.296875 127.140625 " clip-rule="nonzero"/></clipPath><clipPath id="492926354c"><path d="M 0.0585938 0.226562 L 21.859375 0.226562 L 21.859375 68.976562 L 0.0585938 68.976562 Z M 0.0585938 0.226562 " clip-rule="nonzero"/></clipPath><clipPath id="fef9a8001c"><path d="M 0.296875 1.140625 L 18.824219 0.34375 L 21.738281 67.957031 L 3.207031 68.757812 Z M 0.296875 1.140625 " clip-rule="nonzero"/></clipPath><clipPath id="e65a12d1e4"><rect x="0" width="22" y="0" height="69"/></clipPath><clipPath id="2ca114dd13"><path d="M 44 25 L 178 25 L 178 169 L 44 169 Z M 44 25 " clip-rule="nonzero"/></clipPath><clipPath id="a82f11ba32"><path d="M 90.410156 25.816406 L 177.558594 129.28125 L 131.316406 168.230469 L 44.167969 64.765625 Z M 90.410156 25.816406 " clip-rule="nonzero"/></clipPath><clipPath id="01363c4b2f"><path d="M 0.078125 0.613281 L 133.746094 0.613281 L 133.746094 143.386719 L 0.078125 143.386719 Z M 0.078125 0.613281 " clip-rule="nonzero"/></clipPath><clipPath id="2970ceb5a2"><path d="M 46.410156 0.816406 L 133.558594 104.28125 L 87.316406 143.230469 L 0.167969 39.765625 Z M 46.410156 0.816406 " clip-rule="nonzero"/></clipPath><clipPath id="f3408e6036"><rect x="0" width="134" y="0" height="144"/></clipPath><clipPath id="3a3564a935"><path d="M 32 66 L 103 66 L 103 139 L 32 139 Z M 32 66 " clip-rule="nonzero"/></clipPath><clipPath id="0bb8abf4b2"><path d="M 45.265625 66.984375 L 102.800781 78.964844 L 90.476562 138.152344 L 32.945312 126.175781 Z M 45.265625 66.984375 " clip-rule="nonzero"/></clipPath><clipPath id="e83a1fa1af"><path d="M 0.816406 0.816406 L 71 0.816406 L 71 72.203125 L 0.816406 72.203125 Z M 0.816406 0.816406 " clip-rule="nonzero"/></clipPath><clipPath id="66a4f1e724"><path d="M 13.265625 0.984375 L 70.800781 12.964844 L 58.476562 72.152344 L 0.945312 60.175781 Z M 13.265625 0.984375 " clip-rule="nonzero"/></clipPath><clipPath id="12f4b9719b"><rect x="0" width="71" y="0" height="73"/></clipPath><clipPath id="067d576e70"><path d="M 164 190 L 183 190 L 183 200 L 164 200 Z M 164 190 " clip-rule="nonzero"/></clipPath><clipPath id="94b4e3b0fe"><path d="M 165.003906 190.371094 L 182.597656 192.691406 L 181.75 199.140625 L 164.15625 196.820312 Z M 165.003906 190.371094 " clip-rule="nonzero"/></clipPath><clipPath id="39996e4035"><path d="M 0.0898438 0.183594 L 18.777344 0.183594 L 18.777344 9.289062 L 0.0898438 9.289062 Z M 0.0898438 0.183594 " clip-rule="nonzero"/></clipPath><clipPath id="fdae1e8f33"><path d="M 1.003906 0.371094 L 18.597656 2.691406 L 17.75 9.140625 L 0.15625 6.820312 Z M 1.003906 0.371094 " clip-rule="nonzero"/></clipPath><clipPath id="2c49d507c0"><rect x="0" width="19" y="0" height="10"/></clipPath><clipPath id="e1e4983ac2"><path d="M 31 74 L 47 74 L 47 113 L 31 113 Z M 31 74 " clip-rule="nonzero"/></clipPath><clipPath id="fb3ed25ddd"><path d="M 42.230469 74.402344 L 46.804688 75.695312 L 36.332031 112.675781 L 31.761719 111.378906 Z M 42.230469 74.402344 " clip-rule="nonzero"/></clipPath><clipPath id="5334e0c37c"><path d="M 0.621094 0.242188 L 15.953125 0.242188 L 15.953125 38.8125 L 0.621094 38.8125 Z M 0.621094 0.242188 " clip-rule="nonzero"/></clipPath><clipPath id="f3b4d71210"><path d="M 11.230469 0.402344 L 15.804688 1.695312 L 5.332031 38.675781 L 0.761719 37.378906 Z M 11.230469 0.402344 " clip-rule="nonzero"/></clipPath><clipPath id="795e5e8780"><rect x="0" width="16" y="0" height="39"/></clipPath><clipPath id="9adbe648c2"><path d="M 44 13 L 92 13 L 92 78 L 44 78 Z M 44 13 " clip-rule="nonzero"/></clipPath><clipPath id="29084449ef"><path d="M 71.605469 13.660156 L 91.570312 23.828125 L 64.136719 77.703125 L 44.171875 67.539062 Z M 71.605469 13.660156 " clip-rule="nonzero"/></clipPath><clipPath id="d093e4b41a"><path d="M 0.078125 0.636719 L 47.746094 0.636719 L 47.746094 64.835938 L 0.078125 64.835938 Z M 0.078125 0.636719 " clip-rule="nonzero"/></clipPath><clipPath id="d43a91a982"><path d="M 27.605469 0.660156 L 47.570312 10.828125 L 20.136719 64.703125 L 0.171875 54.539062 Z M 27.605469 0.660156 " clip-rule="nonzero"/></clipPath><clipPath id="da9bb02cdf"><rect x="0" width="48" y="0" height="65"/></clipPath><clipPath id="dcbf3a72b7"><path d="M 75 13 L 88 13 L 88 25 L 75 25 Z M 75 13 " clip-rule="nonzero"/></clipPath><clipPath id="edd0a8fa3a"><path d="M 75.628906 19.632812 L 79.039062 13.960938 L 87.199219 18.867188 L 83.789062 24.539062 Z M 75.628906 19.632812 " clip-rule="nonzero"/></clipPath><clipPath id="501a518176"><path d="M 0.457031 0.878906 L 12.433594 0.878906 L 12.433594 11.65625 L 0.457031 11.65625 Z M 0.457031 0.878906 " clip-rule="nonzero"/></clipPath><clipPath id="eb21ce1152"><path d="M 0.628906 6.632812 L 4.039062 0.960938 L 12.199219 5.867188 L 8.789062 11.539062 Z M 0.628906 6.632812 " clip-rule="nonzero"/></clipPath><clipPath id="72dc712f6b"><rect x="0" width="13" y="0" height="12"/></clipPath><clipPath id="a979a1d87b"><path d="M 71 8 L 83 8 L 83 20 L 71 20 Z M 71 8 " clip-rule="nonzero"/></clipPath><clipPath id="60bc54950a"><path d="M 71.007812 13.476562 L 74.945312 8.164062 L 82.597656 13.832031 L 78.65625 19.148438 Z M 71.007812 13.476562 " clip-rule="nonzero"/></clipPath><clipPath id="b9029cc93e"><path d="M 0 0.128906 L 11.644531 0.128906 L 11.644531 11.148438 L 0 11.148438 Z M 0 0.128906 " clip-rule="nonzero"/></clipPath><clipPath id="389651b4a1"><path d="M 0.0078125 5.476562 L 3.945312 0.164062 L 11.597656 5.832031 L 7.65625 11.148438 Z M 0.0078125 5.476562 " clip-rule="nonzero"/></clipPath><clipPath id="bc44db5562"><rect x="0" width="12" y="0" height="12"/></clipPath><clipPath id="174c31c8d8"><path d="M 18 171 L 147 171 L 147 197 L 18 197 Z M 18 171 " clip-rule="nonzero"/></clipPath><clipPath id="ed38773dcc"><path d="M 19.738281 171.550781 L 146.621094 181.152344 L 145.445312 196.695312 L 18.5625 187.09375 Z M 19.738281 171.550781 " clip-rule="nonzero"/></clipPath><clipPath id="569a89ebb5"><path d="M 0.445312 0.5 L 128.84375 0.5 L 128.84375 25.890625 L 0.445312 25.890625 Z M 0.445312 0.5 " clip-rule="nonzero"/></clipPath><clipPath id="bd365aa62b"><path d="M 1.738281 0.550781 L 128.621094 10.152344 L 127.445312 25.695312 L 0.5625 16.09375 Z M 1.738281 0.550781 " clip-rule="nonzero"/></clipPath><clipPath id="4f1ff36b90"><rect x="0" width="129" y="0" height="26"/></clipPath></defs><path stroke-linecap="butt" transform="matrix(0.0338852, 0.747823, -0.747823, 0.0338852, 178.112254, 72.915854)" fill="none" stroke-linejoin="miter" d="M 0.00103609 1.999273 L 182.478674 1.998871 " stroke="#ffffff" stroke-width="4" stroke-opacity="1" stroke-miterlimit="4"/><g clip-path="url(#72f758568b)"><path stroke-linecap="butt" transform="matrix(0.480554, 0.573982, -0.573982, 0.480554, 72.179241, 0.223943)" fill="none" stroke-linejoin="miter" d="M -0.00151488 1.998779 L 219.722598 1.997655 " stroke="#ffffff" stroke-width="4" stroke-opacity="1" stroke-miterlimit="4"/></g><path stroke-linecap="butt" transform="matrix(0.746859, 0.0508842, -0.0508842, 0.746859, 10.017656, 185.883152)" fill="none" stroke-linejoin="miter" d="M -0.00260276 1.997673 L 231.210616 1.998363 " stroke="#ffffff" stroke-width="4" stroke-opacity="1" stroke-miterlimit="4"/><g clip-path="url(#cfcdb7985f)"><path stroke-linecap="butt" transform="matrix(0.229631, -0.7125, 0.7125, 0.229631, 5.080621, 183.594426)" fill="none" stroke-linejoin="miter" d="M 0.419986 17.766832 C 97.925669 -3.257949 181.813733 -3.254678 252.087545 17.770076 " stroke="#ffffff" stroke-width="4" stroke-opacity="1" stroke-miterlimit="4"/></g><g clip-path="url(#95bd22eb80)"><path stroke-linecap="butt" transform="matrix(0.744711, -0.0761064, 0.0761064, 0.744711, 182.80378, 208.973095)" fill="none" stroke-linejoin="miter" d="M 0.00159407 1.998041 L 109.874951 2.001661 " stroke="#ffffff" stroke-width="4" stroke-opacity="1" stroke-miterlimit="4"/></g><g clip-path="url(#0eca527ef9)"><g clip-path="url(#609ee21ff2)"><g transform="matrix(1, 0, 0, 1, 0, 209)"><g clip-path="url(#beb6d47670)"><g clip-path="url(#f56356ce5b)"><g clip-path="url(#0c1d57e015)"><path fill="#ffffff" d="M 0 0.441406 L 205.601562 0.441406 L 205.601562 27.390625 L 0 27.390625 Z M 0 0.441406 " fill-opacity="1" fill-rule="nonzero"/></g></g></g></g></g></g><g clip-path="url(#36a0bd60fb)"><g clip-path="url(#9aab11d22e)"><g transform="matrix(1, 0, 0, 1, 20, 109)"><g clip-path="url(#fc9c1197ba)"><g clip-path="url(#b5a129aab8)"><g clip-path="url(#26c7add4f6)"><path fill="#ffffff" d="M 10.421875 0.703125 L 159.386719 24.070312 L 149.035156 90.046875 L 0.0742188 66.679688 Z M 10.421875 0.703125 " fill-opacity="1" fill-rule="nonzero"/></g></g></g></g></g></g><g clip-path="url(#9fa08590c2)"><g clip-path="url(#d48f59caac)"><g transform="matrix(1, 0, 0, 1, 159, 126)"><g clip-path="url(#e65a12d1e4)"><g clip-path="url(#492926354c)"><g clip-path="url(#fef9a8001c)"><path fill="#ffffff" d="M 0.296875 1.140625 L 18.824219 0.34375 L 21.734375 67.945312 L 3.207031 68.742188 Z M 0.296875 1.140625 " fill-opacity="1" fill-rule="nonzero"/></g></g></g></g></g></g><g clip-path="url(#2ca114dd13)"><g clip-path="url(#a82f11ba32)"><g transform="matrix(1, 0, 0, 1, 44, 25)"><g clip-path="url(#f3408e6036)"><g clip-path="url(#01363c4b2f)"><g clip-path="url(#2970ceb5a2)"><path fill="#ffffff" d="M 46.410156 0.816406 L 133.589844 104.320312 L 87.347656 143.269531 L 0.167969 39.765625 Z M 46.410156 0.816406 " fill-opacity="1" fill-rule="nonzero"/></g></g></g></g></g></g><g clip-path="url(#3a3564a935)"><g clip-path="url(#0bb8abf4b2)"><g transform="matrix(1, 0, 0, 1, 32, 66)"><g clip-path="url(#12f4b9719b)"><g clip-path="url(#e83a1fa1af)"><g clip-path="url(#66a4f1e724)"><path fill="#ffffff" d="M 13.265625 0.984375 L 70.800781 12.964844 L 58.496094 72.070312 L 0.960938 60.09375 Z M 13.265625 0.984375 " fill-opacity="1" fill-rule="nonzero"/></g></g></g></g></g></g><g clip-path="url(#067d576e70)"><g clip-path="url(#94b4e3b0fe)"><g transform="matrix(1, 0, 0, 1, 164, 190)"><g clip-path="url(#2c49d507c0)"><g clip-path="url(#39996e4035)"><g clip-path="url(#fdae1e8f33)"><path fill="#ffffff" d="M 1.003906 0.371094 L 18.589844 2.691406 L 17.738281 9.140625 L 0.15625 6.820312 Z M 1.003906 0.371094 " fill-opacity="1" fill-rule="nonzero"/></g></g></g></g></g></g><g clip-path="url(#e1e4983ac2)"><g clip-path="url(#fb3ed25ddd)"><g transform="matrix(1, 0, 0, 1, 31, 74)"><g clip-path="url(#795e5e8780)"><g clip-path="url(#5334e0c37c)"><g clip-path="url(#f3b4d71210)"><path fill="#ffffff" d="M 11.230469 0.402344 L 15.804688 1.695312 L 5.332031 38.679688 L 0.757812 37.382812 Z M 11.230469 0.402344 " fill-opacity="1" fill-rule="nonzero"/></g></g></g></g></g></g><g clip-path="url(#9adbe648c2)"><g clip-path="url(#29084449ef)"><g transform="matrix(1, 0, 0, 1, 44, 13)"><g clip-path="url(#da9bb02cdf)"><g clip-path="url(#d093e4b41a)"><g clip-path="url(#d43a91a982)"><path fill="#ffffff" d="M 27.605469 0.660156 L 47.570312 10.828125 L 20.128906 64.71875 L 0.164062 54.550781 Z M 27.605469 0.660156 " fill-opacity="1" fill-rule="nonzero"/></g></g></g></g></g></g><g clip-path="url(#dcbf3a72b7)"><g clip-path="url(#edd0a8fa3a)"><g transform="matrix(1, 0, 0, 1, 75, 13)"><g clip-path="url(#72dc712f6b)"><g clip-path="url(#501a518176)"><g clip-path="url(#eb21ce1152)"><path fill="#ffffff" d="M 0.628906 6.632812 L 4.039062 0.960938 L 12.1875 5.863281 L 8.777344 11.53125 Z M 0.628906 6.632812 " fill-opacity="1" fill-rule="nonzero"/></g></g></g></g></g></g><g clip-path="url(#a979a1d87b)"><g clip-path="url(#60bc54950a)"><g transform="matrix(1, 0, 0, 1, 71, 8)"><g clip-path="url(#bc44db5562)"><g clip-path="url(#b9029cc93e)"><g clip-path="url(#389651b4a1)"><path fill="#ffffff" d="M 0.0078125 5.476562 L 3.945312 0.164062 L 11.585938 5.824219 L 7.648438 11.140625 Z M 0.0078125 5.476562 " fill-opacity="1" fill-rule="nonzero"/></g></g></g></g></g></g><g clip-path="url(#174c31c8d8)"><g clip-path="url(#ed38773dcc)"><g transform="matrix(1, 0, 0, 1, 18, 171)"><g clip-path="url(#4f1ff36b90)"><g clip-path="url(#569a89ebb5)"><g clip-path="url(#bd365aa62b)"><path fill="#ffffff" d="M 1.738281 0.550781 L 128.636719 10.152344 L 127.457031 25.695312 L 0.5625 16.09375 Z M 1.738281 0.550781 " fill-opacity="1" fill-rule="nonzero"/></g></g></g></g></g></g></svg>