<svg xmlns="http://www.w3.org/2000/svg" xmlns:xlink="http://www.w3.org/1999/xlink" width="354" zoomAndPan="magnify" viewBox="0 0 265.5 237" height="316" preserveAspectRatio="xMidYMid meet" version="1.0"><defs><clipPath id="03ff6c0f0f"><path d="M 54 0.222656 L 194 0.222656 L 194 145 L 54 145 Z M 54 0.222656 " clip-rule="nonzero"/></clipPath><clipPath id="a1d7f38289"><path d="M 0 0.222656 L 93 0.222656 L 93 205 L 0 205 Z M 0 0.222656 " clip-rule="nonzero"/></clipPath><clipPath id="45ea1eb166"><path d="M 166 185 L 265 185 L 265 228 L 166 228 Z M 166 185 " clip-rule="nonzero"/></clipPath><clipPath id="9b3b1e47df"><path d="M 0 209.441406 L 205.707031 209.441406 L 205.707031 236.390625 L 0 236.390625 Z M 0 209.441406 " clip-rule="nonzero"/></clipPath><clipPath id="e8a1ff3a37"><path d="M 39.53125 236.390625 L 166.074219 236.390625 L 205.605469 209.441406 L 0 209.441406 Z M 39.53125 236.390625 " clip-rule="nonzero"/></clipPath><clipPath id="83bb51c5c4"><path d="M 0 0.441406 L 205.707031 0.441406 L 205.707031 27.390625 L 0 27.390625 Z M 0 0.441406 " clip-rule="nonzero"/></clipPath><clipPath id="767b487acd"><path d="M 39.53125 27.390625 L 166.074219 27.390625 L 205.605469 0.441406 L 0 0.441406 Z M 39.53125 27.390625 " clip-rule="nonzero"/></clipPath><clipPath id="e5675d8faa"><rect x="0" width="206" y="0" height="28"/></clipPath><clipPath id="11d8b7dd7b"><path d="M 20 109 L 180 109 L 180 200 L 20 200 Z M 20 109 " clip-rule="nonzero"/></clipPath><clipPath id="33a99db531"><path d="M 30.421875 109.703125 L 179.492188 133.085938 L 169.144531 199.0625 L 20.074219 175.679688 Z M 30.421875 109.703125 " clip-rule="nonzero"/></clipPath><clipPath id="daf7caa7f3"><path d="M 0 0.695312 L 159.660156 0.695312 L 159.660156 90.289062 L 0 90.289062 Z M 0 0.695312 " clip-rule="nonzero"/></clipPath><clipPath id="8f5078b0ad"><path d="M 10.421875 0.703125 L 159.492188 24.085938 L 149.144531 90.0625 L 0.0742188 66.679688 Z M 10.421875 0.703125 " clip-rule="nonzero"/></clipPath><clipPath id="b95166cdf3"><rect x="0" width="160" y="0" height="91"/></clipPath><clipPath id="0f70c94ec3"><path d="M 159 126 L 181 126 L 181 195 L 159 195 Z M 159 126 " clip-rule="nonzero"/></clipPath><clipPath id="643eab180e"><path d="M 159.296875 127.140625 L 177.824219 126.34375 L 180.738281 193.957031 L 162.207031 194.757812 Z M 159.296875 127.140625 " clip-rule="nonzero"/></clipPath><clipPath id="f7496ac0b5"><path d="M 0.0585938 0.226562 L 21.859375 0.226562 L 21.859375 68.976562 L 0.0585938 68.976562 Z M 0.0585938 0.226562 " clip-rule="nonzero"/></clipPath><clipPath id="88a81a0a87"><path d="M 0.296875 1.140625 L 18.824219 0.34375 L 21.738281 67.957031 L 3.207031 68.757812 Z M 0.296875 1.140625 " clip-rule="nonzero"/></clipPath><clipPath id="663b8e6648"><rect x="0" width="22" y="0" height="69"/></clipPath><clipPath id="d84d244c53"><path d="M 44 25 L 178 25 L 178 169 L 44 169 Z M 44 25 " clip-rule="nonzero"/></clipPath><clipPath id="4a3c117e06"><path d="M 90.410156 25.816406 L 177.558594 129.28125 L 131.316406 168.230469 L 44.167969 64.765625 Z M 90.410156 25.816406 " clip-rule="nonzero"/></clipPath><clipPath id="9973092c1f"><path d="M 0.078125 0.613281 L 133.746094 0.613281 L 133.746094 143.386719 L 0.078125 143.386719 Z M 0.078125 0.613281 " clip-rule="nonzero"/></clipPath><clipPath id="c5b53f1788"><path d="M 46.410156 0.816406 L 133.558594 104.28125 L 87.316406 143.230469 L 0.167969 39.765625 Z M 46.410156 0.816406 " clip-rule="nonzero"/></clipPath><clipPath id="53d0a3e767"><rect x="0" width="134" y="0" height="144"/></clipPath><clipPath id="827ab2511d"><path d="M 32 66 L 103 66 L 103 139 L 32 139 Z M 32 66 " clip-rule="nonzero"/></clipPath><clipPath id="07b57e309e"><path d="M 45.265625 66.984375 L 102.800781 78.964844 L 90.476562 138.152344 L 32.945312 126.175781 Z M 45.265625 66.984375 " clip-rule="nonzero"/></clipPath><clipPath id="749fca3dfc"><path d="M 0.816406 0.816406 L 71 0.816406 L 71 72.203125 L 0.816406 72.203125 Z M 0.816406 0.816406 " clip-rule="nonzero"/></clipPath><clipPath id="6ebbb58069"><path d="M 13.265625 0.984375 L 70.800781 12.964844 L 58.476562 72.152344 L 0.945312 60.175781 Z M 13.265625 0.984375 " clip-rule="nonzero"/></clipPath><clipPath id="b25d6a2e88"><rect x="0" width="71" y="0" height="73"/></clipPath><clipPath id="d8f09cd039"><path d="M 164 190 L 183 190 L 183 200 L 164 200 Z M 164 190 " clip-rule="nonzero"/></clipPath><clipPath id="61c9ddad17"><path d="M 165.003906 190.371094 L 182.597656 192.691406 L 181.75 199.140625 L 164.15625 196.820312 Z M 165.003906 190.371094 " clip-rule="nonzero"/></clipPath><clipPath id="285cb6eea6"><path d="M 0.0898438 0.183594 L 18.777344 0.183594 L 18.777344 9.289062 L 0.0898438 9.289062 Z M 0.0898438 0.183594 " clip-rule="nonzero"/></clipPath><clipPath id="3170b68cf7"><path d="M 1.003906 0.371094 L 18.597656 2.691406 L 17.75 9.140625 L 0.15625 6.820312 Z M 1.003906 0.371094 " clip-rule="nonzero"/></clipPath><clipPath id="51b4ae83c5"><rect x="0" width="19" y="0" height="10"/></clipPath><clipPath id="c7058aba8c"><path d="M 31 74 L 47 74 L 47 113 L 31 113 Z M 31 74 " clip-rule="nonzero"/></clipPath><clipPath id="1090142e73"><path d="M 42.230469 74.402344 L 46.804688 75.695312 L 36.332031 112.675781 L 31.761719 111.378906 Z M 42.230469 74.402344 " clip-rule="nonzero"/></clipPath><clipPath id="74568b4756"><path d="M 0.621094 0.242188 L 15.953125 0.242188 L 15.953125 38.8125 L 0.621094 38.8125 Z M 0.621094 0.242188 " clip-rule="nonzero"/></clipPath><clipPath id="1a89056a86"><path d="M 11.230469 0.402344 L 15.804688 1.695312 L 5.332031 38.675781 L 0.761719 37.378906 Z M 11.230469 0.402344 " clip-rule="nonzero"/></clipPath><clipPath id="38e74b4972"><rect x="0" width="16" y="0" height="39"/></clipPath><clipPath id="eecdfbaf76"><path d="M 44 13 L 92 13 L 92 78 L 44 78 Z M 44 13 " clip-rule="nonzero"/></clipPath><clipPath id="e8d8600e7a"><path d="M 71.605469 13.660156 L 91.570312 23.828125 L 64.136719 77.703125 L 44.171875 67.539062 Z M 71.605469 13.660156 " clip-rule="nonzero"/></clipPath><clipPath id="8b56304bd7"><path d="M 0.078125 0.636719 L 47.746094 0.636719 L 47.746094 64.835938 L 0.078125 64.835938 Z M 0.078125 0.636719 " clip-rule="nonzero"/></clipPath><clipPath id="2366cff13e"><path d="M 27.605469 0.660156 L 47.570312 10.828125 L 20.136719 64.703125 L 0.171875 54.539062 Z M 27.605469 0.660156 " clip-rule="nonzero"/></clipPath><clipPath id="eae05c24a1"><rect x="0" width="48" y="0" height="65"/></clipPath><clipPath id="8107385abb"><path d="M 75 13 L 88 13 L 88 25 L 75 25 Z M 75 13 " clip-rule="nonzero"/></clipPath><clipPath id="27623d9188"><path d="M 75.628906 19.632812 L 79.039062 13.960938 L 87.199219 18.867188 L 83.789062 24.539062 Z M 75.628906 19.632812 " clip-rule="nonzero"/></clipPath><clipPath id="1c174906ce"><path d="M 0.457031 0.878906 L 12.433594 0.878906 L 12.433594 11.65625 L 0.457031 11.65625 Z M 0.457031 0.878906 " clip-rule="nonzero"/></clipPath><clipPath id="c675e08824"><path d="M 0.628906 6.632812 L 4.039062 0.960938 L 12.199219 5.867188 L 8.789062 11.539062 Z M 0.628906 6.632812 " clip-rule="nonzero"/></clipPath><clipPath id="a142f93f30"><rect x="0" width="13" y="0" height="12"/></clipPath><clipPath id="a573513f94"><path d="M 71 8 L 83 8 L 83 20 L 71 20 Z M 71 8 " clip-rule="nonzero"/></clipPath><clipPath id="b0631e15c3"><path d="M 71.007812 13.476562 L 74.945312 8.164062 L 82.597656 13.832031 L 78.65625 19.148438 Z M 71.007812 13.476562 " clip-rule="nonzero"/></clipPath><clipPath id="c740a9d96b"><path d="M 0 0.128906 L 11.644531 0.128906 L 11.644531 11.148438 L 0 11.148438 Z M 0 0.128906 " clip-rule="nonzero"/></clipPath><clipPath id="9935b48694"><path d="M 0.0078125 5.476562 L 3.945312 0.164062 L 11.597656 5.832031 L 7.65625 11.148438 Z M 0.0078125 5.476562 " clip-rule="nonzero"/></clipPath><clipPath id="a4befd9763"><rect x="0" width="12" y="0" height="12"/></clipPath><clipPath id="11e9ea5cb2"><path d="M 18 171 L 147 171 L 147 197 L 18 197 Z M 18 171 " clip-rule="nonzero"/></clipPath><clipPath id="b84e3e2ee6"><path d="M 19.738281 171.550781 L 146.621094 181.152344 L 145.445312 196.695312 L 18.5625 187.09375 Z M 19.738281 171.550781 " clip-rule="nonzero"/></clipPath><clipPath id="e57fc8ac04"><path d="M 0.445312 0.5 L 128.84375 0.5 L 128.84375 25.890625 L 0.445312 25.890625 Z M 0.445312 0.5 " clip-rule="nonzero"/></clipPath><clipPath id="3c8e1ca181"><path d="M 1.738281 0.550781 L 128.621094 10.152344 L 127.445312 25.695312 L 0.5625 16.09375 Z M 1.738281 0.550781 " clip-rule="nonzero"/></clipPath><clipPath id="4d348c9896"><rect x="0" width="129" y="0" height="26"/></clipPath></defs><path stroke-linecap="butt" transform="matrix(0.0338852, 0.747823, -0.747823, 0.0338852, 178.112254, 72.915854)" fill="none" stroke-linejoin="miter" d="M 0.00103609 1.999273 L 182.478674 1.998871 " stroke="#202a44" stroke-width="4" stroke-opacity="1" stroke-miterlimit="4"/><g clip-path="url(#03ff6c0f0f)"><path stroke-linecap="butt" transform="matrix(0.480554, 0.573982, -0.573982, 0.480554, 72.179241, 0.223943)" fill="none" stroke-linejoin="miter" d="M -0.00151488 1.998779 L 219.722598 1.997655 " stroke="#202a44" stroke-width="4" stroke-opacity="1" stroke-miterlimit="4"/></g><path stroke-linecap="butt" transform="matrix(0.746859, 0.0508842, -0.0508842, 0.746859, 10.017656, 185.883152)" fill="none" stroke-linejoin="miter" d="M -0.00260276 1.997673 L 231.210616 1.998363 " stroke="#202a44" stroke-width="4" stroke-opacity="1" stroke-miterlimit="4"/><g clip-path="url(#a1d7f38289)"><path stroke-linecap="butt" transform="matrix(0.229631, -0.7125, 0.7125, 0.229631, 5.080621, 183.594426)" fill="none" stroke-linejoin="miter" d="M 0.419986 17.766832 C 97.925669 -3.257949 181.813733 -3.254678 252.087545 17.770076 " stroke="#202a44" stroke-width="4" stroke-opacity="1" stroke-miterlimit="4"/></g><g clip-path="url(#45ea1eb166)"><path stroke-linecap="butt" transform="matrix(0.744711, -0.0761064, 0.0761064, 0.744711, 182.80378, 208.973095)" fill="none" stroke-linejoin="miter" d="M 0.00159407 1.998041 L 109.874951 2.001661 " stroke="#202a44" stroke-width="4" stroke-opacity="1" stroke-miterlimit="4"/></g><g clip-path="url(#9b3b1e47df)"><g clip-path="url(#e8a1ff3a37)"><g transform="matrix(1, 0, 0, 1, 0, 209)"><g clip-path="url(#e5675d8faa)"><g clip-path="url(#83bb51c5c4)"><g clip-path="url(#767b487acd)"><path fill="#202a44" d="M 0 0.441406 L 205.601562 0.441406 L 205.601562 27.390625 L 0 27.390625 Z M 0 0.441406 " fill-opacity="1" fill-rule="nonzero"/></g></g></g></g></g></g><g clip-path="url(#11d8b7dd7b)"><g clip-path="url(#33a99db531)"><g transform="matrix(1, 0, 0, 1, 20, 109)"><g clip-path="url(#b95166cdf3)"><g clip-path="url(#daf7caa7f3)"><g clip-path="url(#8f5078b0ad)"><path fill="#202a44" d="M 10.421875 0.703125 L 159.386719 24.070312 L 149.035156 90.046875 L 0.0742188 66.679688 Z M 10.421875 0.703125 " fill-opacity="1" fill-rule="nonzero"/></g></g></g></g></g></g><g clip-path="url(#0f70c94ec3)"><g clip-path="url(#643eab180e)"><g transform="matrix(1, 0, 0, 1, 159, 126)"><g clip-path="url(#663b8e6648)"><g clip-path="url(#f7496ac0b5)"><g clip-path="url(#88a81a0a87)"><path fill="#202a44" d="M 0.296875 1.140625 L 18.824219 0.34375 L 21.734375 67.945312 L 3.207031 68.742188 Z M 0.296875 1.140625 " fill-opacity="1" fill-rule="nonzero"/></g></g></g></g></g></g><g clip-path="url(#d84d244c53)"><g clip-path="url(#4a3c117e06)"><g transform="matrix(1, 0, 0, 1, 44, 25)"><g clip-path="url(#53d0a3e767)"><g clip-path="url(#9973092c1f)"><g clip-path="url(#c5b53f1788)"><path fill="#202a44" d="M 46.410156 0.816406 L 133.589844 104.320312 L 87.347656 143.269531 L 0.167969 39.765625 Z M 46.410156 0.816406 " fill-opacity="1" fill-rule="nonzero"/></g></g></g></g></g></g><g clip-path="url(#827ab2511d)"><g clip-path="url(#07b57e309e)"><g transform="matrix(1, 0, 0, 1, 32, 66)"><g clip-path="url(#b25d6a2e88)"><g clip-path="url(#749fca3dfc)"><g clip-path="url(#6ebbb58069)"><path fill="#202a44" d="M 13.265625 0.984375 L 70.800781 12.964844 L 58.496094 72.070312 L 0.960938 60.09375 Z M 13.265625 0.984375 " fill-opacity="1" fill-rule="nonzero"/></g></g></g></g></g></g><g clip-path="url(#d8f09cd039)"><g clip-path="url(#61c9ddad17)"><g transform="matrix(1, 0, 0, 1, 164, 190)"><g clip-path="url(#51b4ae83c5)"><g clip-path="url(#285cb6eea6)"><g clip-path="url(#3170b68cf7)"><path fill="#202a44" d="M 1.003906 0.371094 L 18.589844 2.691406 L 17.738281 9.140625 L 0.15625 6.820312 Z M 1.003906 0.371094 " fill-opacity="1" fill-rule="nonzero"/></g></g></g></g></g></g><g clip-path="url(#c7058aba8c)"><g clip-path="url(#1090142e73)"><g transform="matrix(1, 0, 0, 1, 31, 74)"><g clip-path="url(#38e74b4972)"><g clip-path="url(#74568b4756)"><g clip-path="url(#1a89056a86)"><path fill="#202a44" d="M 11.230469 0.402344 L 15.804688 1.695312 L 5.332031 38.679688 L 0.757812 37.382812 Z M 11.230469 0.402344 " fill-opacity="1" fill-rule="nonzero"/></g></g></g></g></g></g><g clip-path="url(#eecdfbaf76)"><g clip-path="url(#e8d8600e7a)"><g transform="matrix(1, 0, 0, 1, 44, 13)"><g clip-path="url(#eae05c24a1)"><g clip-path="url(#8b56304bd7)"><g clip-path="url(#2366cff13e)"><path fill="#202a44" d="M 27.605469 0.660156 L 47.570312 10.828125 L 20.128906 64.71875 L 0.164062 54.550781 Z M 27.605469 0.660156 " fill-opacity="1" fill-rule="nonzero"/></g></g></g></g></g></g><g clip-path="url(#8107385abb)"><g clip-path="url(#27623d9188)"><g transform="matrix(1, 0, 0, 1, 75, 13)"><g clip-path="url(#a142f93f30)"><g clip-path="url(#1c174906ce)"><g clip-path="url(#c675e08824)"><path fill="#202a44" d="M 0.628906 6.632812 L 4.039062 0.960938 L 12.1875 5.863281 L 8.777344 11.53125 Z M 0.628906 6.632812 " fill-opacity="1" fill-rule="nonzero"/></g></g></g></g></g></g><g clip-path="url(#a573513f94)"><g clip-path="url(#b0631e15c3)"><g transform="matrix(1, 0, 0, 1, 71, 8)"><g clip-path="url(#a4befd9763)"><g clip-path="url(#c740a9d96b)"><g clip-path="url(#9935b48694)"><path fill="#202a44" d="M 0.0078125 5.476562 L 3.945312 0.164062 L 11.585938 5.824219 L 7.648438 11.140625 Z M 0.0078125 5.476562 " fill-opacity="1" fill-rule="nonzero"/></g></g></g></g></g></g><g clip-path="url(#11e9ea5cb2)"><g clip-path="url(#b84e3e2ee6)"><g transform="matrix(1, 0, 0, 1, 18, 171)"><g clip-path="url(#4d348c9896)"><g clip-path="url(#e57fc8ac04)"><g clip-path="url(#3c8e1ca181)"><path fill="#202a44" d="M 1.738281 0.550781 L 128.636719 10.152344 L 127.457031 25.695312 L 0.5625 16.09375 Z M 1.738281 0.550781 " fill-opacity="1" fill-rule="nonzero"/></g></g></g></g></g></g></svg>