<svg xmlns="http://www.w3.org/2000/svg" xmlns:xlink="http://www.w3.org/1999/xlink" width="373" zoomAndPan="magnify" viewBox="0 0 279.75 233.249991" height="311" preserveAspectRatio="xMidYMid meet" version="1.0"><defs><g/><clipPath id="2fc85cd1da"><path d="M 86.15625 140.113281 L 168.941406 140.113281 L 168.941406 150.960938 L 86.15625 150.960938 Z M 86.15625 140.113281 " clip-rule="nonzero"/></clipPath><clipPath id="07d23b92b2"><path d="M 102.066406 150.960938 L 152.992188 150.960938 L 168.902344 140.113281 L 86.15625 140.113281 Z M 102.066406 150.960938 " clip-rule="nonzero"/></clipPath><clipPath id="784f558f3d"><path d="M 0.15625 0.113281 L 82.941406 0.113281 L 82.941406 10.960938 L 0.15625 10.960938 Z M 0.15625 0.113281 " clip-rule="nonzero"/></clipPath><clipPath id="ea3f202942"><path d="M 16.066406 10.960938 L 66.992188 10.960938 L 82.902344 0.113281 L 0.15625 0.113281 Z M 16.066406 10.960938 " clip-rule="nonzero"/></clipPath><clipPath id="fa47121428"><rect x="0" width="83" y="0" height="11"/></clipPath><clipPath id="9cf60a96c7"><path d="M 94 99 L 159 99 L 159 136 L 94 136 Z M 94 99 " clip-rule="nonzero"/></clipPath><clipPath id="062c9a6c1a"><path d="M 98.398438 99.972656 L 158.390625 109.382812 L 154.226562 135.9375 L 94.234375 126.527344 Z M 98.398438 99.972656 " clip-rule="nonzero"/></clipPath><clipPath id="4ff53c253d"><path d="M 0.101562 0.757812 L 64.457031 0.757812 L 64.457031 37 L 0.101562 37 Z M 0.101562 0.757812 " clip-rule="nonzero"/></clipPath><clipPath id="9a4626a053"><path d="M 4.398438 0.972656 L 64.390625 10.382812 L 60.226562 36.9375 L 0.234375 27.527344 Z M 4.398438 0.972656 " clip-rule="nonzero"/></clipPath><clipPath id="9db4233df8"><rect x="0" width="65" y="0" height="37"/></clipPath><clipPath id="632afea513"><path d="M 150 106 L 159 106 L 159 135 L 150 135 Z M 150 106 " clip-rule="nonzero"/></clipPath><clipPath id="583fe74864"><path d="M 150.265625 106.992188 L 157.722656 106.671875 L 158.894531 133.882812 L 151.4375 134.203125 Z M 150.265625 106.992188 " clip-rule="nonzero"/></clipPath><clipPath id="76f9d8045f"><path d="M 0.0820312 0.457031 L 8.933594 0.457031 L 8.933594 28.207031 L 0.0820312 28.207031 Z M 0.0820312 0.457031 " clip-rule="nonzero"/></clipPath><clipPath id="9e6bc958f5"><path d="M 0.265625 0.992188 L 7.722656 0.671875 L 8.894531 27.882812 L 1.4375 28.203125 Z M 0.265625 0.992188 " clip-rule="nonzero"/></clipPath><clipPath id="184ee3671e"><rect x="0" width="9" y="0" height="29"/></clipPath><clipPath id="dc10d15b28"><path d="M 103 66 L 158 66 L 158 124 L 103 124 Z M 103 66 " clip-rule="nonzero"/></clipPath><clipPath id="fe95013bac"><path d="M 122.535156 66.214844 L 157.609375 107.855469 L 139 123.53125 L 103.925781 81.890625 Z M 122.535156 66.214844 " clip-rule="nonzero"/></clipPath><clipPath id="6dc52969b3"><path d="M 0.910156 0.0273438 L 54.738281 0.0273438 L 54.738281 57.683594 L 0.910156 57.683594 Z M 0.910156 0.0273438 " clip-rule="nonzero"/></clipPath><clipPath id="bb135e10db"><path d="M 19.535156 0.214844 L 54.609375 41.855469 L 36 57.53125 L 0.925781 15.890625 Z M 19.535156 0.214844 " clip-rule="nonzero"/></clipPath><clipPath id="0334ffd707"><rect x="0" width="55" y="0" height="58"/></clipPath><clipPath id="b3da56eb49"><path d="M 99 82 L 128 82 L 128 112 L 99 112 Z M 99 82 " clip-rule="nonzero"/></clipPath><clipPath id="c562fca2a8"><path d="M 104.371094 82.78125 L 127.527344 87.605469 L 122.566406 111.425781 L 99.414062 106.605469 Z M 104.371094 82.78125 " clip-rule="nonzero"/></clipPath><clipPath id="e667dacc2c"><path d="M 0.367188 0.773438 L 28.59375 0.773438 L 28.59375 29.480469 L 0.367188 29.480469 Z M 0.367188 0.773438 " clip-rule="nonzero"/></clipPath><clipPath id="d96d7abede"><path d="M 5.371094 0.78125 L 28.527344 5.605469 L 23.566406 29.425781 L 0.414062 24.605469 Z M 5.371094 0.78125 " clip-rule="nonzero"/></clipPath><clipPath id="e518dc0967"><rect x="0" width="29" y="0" height="30"/></clipPath><clipPath id="ec3555198b"><path d="M 152 132 L 160 132 L 160 136 L 152 136 Z M 152 132 " clip-rule="nonzero"/></clipPath><clipPath id="2da409e664"><path d="M 152.5625 132.4375 L 159.640625 133.375 L 159.300781 135.96875 L 152.21875 135.035156 Z M 152.5625 132.4375 " clip-rule="nonzero"/></clipPath><clipPath id="b8c6801409"><path d="M 0 0.292969 L 7.652344 0.292969 L 7.652344 4 L 0 4 Z M 0 0.292969 " clip-rule="nonzero"/></clipPath><clipPath id="9cebe6fe08"><path d="M 0.5625 0.4375 L 7.640625 1.375 L 7.300781 3.96875 L 0.21875 3.035156 Z M 0.5625 0.4375 " clip-rule="nonzero"/></clipPath><clipPath id="2f91b39ac6"><rect x="0" width="8" y="0" height="4"/></clipPath><clipPath id="dc979841a3"><path d="M 98 85 L 105 85 L 105 102 L 98 102 Z M 98 85 " clip-rule="nonzero"/></clipPath><clipPath id="3f4f856987"><path d="M 103.152344 85.769531 L 104.992188 86.289062 L 100.777344 101.171875 L 98.9375 100.648438 Z M 103.152344 85.769531 " clip-rule="nonzero"/></clipPath><clipPath id="224a73e5e2"><path d="M 0.886719 0.644531 L 7 0.644531 L 7 16.195312 L 0.886719 16.195312 Z M 0.886719 0.644531 " clip-rule="nonzero"/></clipPath><clipPath id="92e3386c12"><path d="M 5.152344 0.769531 L 6.992188 1.289062 L 2.777344 16.171875 L 0.9375 15.648438 Z M 5.152344 0.769531 " clip-rule="nonzero"/></clipPath><clipPath id="ff51585542"><rect x="0" width="7" y="0" height="17"/></clipPath><clipPath id="6dffa21877"><path d="M 103 61 L 124 61 L 124 88 L 103 88 Z M 103 61 " clip-rule="nonzero"/></clipPath><clipPath id="fbe44cf4cc"><path d="M 114.972656 61.324219 L 123.007812 65.414062 L 111.964844 87.097656 L 103.929688 83.007812 Z M 114.972656 61.324219 " clip-rule="nonzero"/></clipPath><clipPath id="25be91edf9"><path d="M 0.910156 0.242188 L 20.050781 0.242188 L 20.050781 26.320312 L 0.910156 26.320312 Z M 0.910156 0.242188 " clip-rule="nonzero"/></clipPath><clipPath id="ee126ded4e"><path d="M 11.972656 0.324219 L 20.007812 4.414062 L 8.964844 26.097656 L 0.929688 22.007812 Z M 11.972656 0.324219 " clip-rule="nonzero"/></clipPath><clipPath id="73cc9d66a9"><rect x="0" width="21" y="0" height="27"/></clipPath><clipPath id="751964926a"><path d="M 116 61 L 122 61 L 122 66 L 116 66 Z M 116 61 " clip-rule="nonzero"/></clipPath><clipPath id="c9ba29d932"><path d="M 116.59375 63.71875 L 117.964844 61.4375 L 121.25 63.414062 L 119.878906 65.695312 Z M 116.59375 63.71875 " clip-rule="nonzero"/></clipPath><clipPath id="35c7360efe"><path d="M 0.589844 0.242188 L 5.375 0.242188 L 5.375 4.789062 L 0.589844 4.789062 Z M 0.589844 0.242188 " clip-rule="nonzero"/></clipPath><clipPath id="2627d65718"><path d="M 0.59375 2.71875 L 1.964844 0.4375 L 5.25 2.414062 L 3.878906 4.695312 Z M 0.59375 2.71875 " clip-rule="nonzero"/></clipPath><clipPath id="48c5373638"><rect x="0" width="6" y="0" height="5"/></clipPath><clipPath id="93f948b77c"><path d="M 114 59 L 120 59 L 120 64 L 114 64 Z M 114 59 " clip-rule="nonzero"/></clipPath><clipPath id="5081a371b8"><path d="M 114.734375 61.246094 L 116.320312 59.105469 L 119.398438 61.386719 L 117.8125 63.527344 Z M 114.734375 61.246094 " clip-rule="nonzero"/></clipPath><clipPath id="6b15ce0e5c"><path d="M 0.675781 0.0898438 L 5.460938 0.0898438 L 5.460938 4.636719 L 0.675781 4.636719 Z M 0.675781 0.0898438 " clip-rule="nonzero"/></clipPath><clipPath id="c69bdb3166"><path d="M 0.734375 2.246094 L 2.320312 0.105469 L 5.398438 2.386719 L 3.8125 4.527344 Z M 0.734375 2.246094 " clip-rule="nonzero"/></clipPath><clipPath id="37f1f1f7f9"><rect x="0" width="6" y="0" height="5"/></clipPath><clipPath id="2eef7cdae0"><path d="M 93 124 L 146 124 L 146 135 L 93 135 Z M 93 124 " clip-rule="nonzero"/></clipPath><clipPath id="0b968fb6b0"><path d="M 94.101562 124.863281 L 145.164062 128.730469 L 144.691406 134.984375 L 93.625 131.121094 Z M 94.101562 124.863281 " clip-rule="nonzero"/></clipPath><clipPath id="8f84754747"><path d="M 0.625 0.640625 L 52.296875 0.640625 L 52.296875 11 L 0.625 11 Z M 0.625 0.640625 " clip-rule="nonzero"/></clipPath><clipPath id="ec273294e6"><path d="M 1.101562 0.863281 L 52.164062 4.730469 L 51.691406 10.984375 L 0.625 7.121094 Z M 1.101562 0.863281 " clip-rule="nonzero"/></clipPath><clipPath id="4856690213"><rect x="0" width="53" y="0" height="11"/></clipPath></defs><g fill="#000000" fill-opacity="1"><g transform="translate(45.880508, 132.274771)"><g><path d="M 1.484375 -7.609375 C 1.128906 -5.421875 0.195312 -3.867188 -1.3125 -2.953125 C -2.832031 -2.035156 -4.800781 -1.773438 -7.21875 -2.171875 L -20.078125 -4.25 C -22.410156 -4.625 -24.078125 -5.472656 -25.078125 -6.796875 C -26.085938 -8.128906 -26.414062 -9.890625 -26.0625 -12.078125 C -25.707031 -14.253906 -24.84375 -15.8125 -23.46875 -16.75 C -22.09375 -17.695312 -20.238281 -17.984375 -17.90625 -17.609375 L -5.046875 -15.53125 C -2.609375 -15.132812 -0.820312 -14.257812 0.3125 -12.90625 C 1.445312 -11.550781 1.835938 -9.785156 1.484375 -7.609375 Z M -3.484375 -8.421875 C -3.398438 -8.898438 -3.554688 -9.257812 -3.953125 -9.5 C -4.347656 -9.738281 -4.921875 -9.921875 -5.671875 -10.046875 L -18.890625 -12.1875 C -19.484375 -12.28125 -19.972656 -12.273438 -20.359375 -12.171875 C -20.753906 -12.078125 -20.988281 -11.789062 -21.0625 -11.3125 C -21.207031 -10.40625 -20.597656 -9.835938 -19.234375 -9.609375 L -6.046875 -7.484375 C -5.273438 -7.347656 -4.671875 -7.34375 -4.234375 -7.46875 C -3.804688 -7.59375 -3.554688 -7.910156 -3.484375 -8.421875 Z M -3.484375 -8.421875 "/></g></g></g><g fill="#000000" fill-opacity="1"><g transform="translate(47.509381, 118.99018)"><g><path d="M 1.125 -3.15625 L -25.671875 -9.5625 L -23.875 -14.609375 L -7.09375 -10.265625 L -22.859375 -17.484375 L -21.140625 -22.296875 L -4.375 -17.90625 L -20.15625 -25.078125 L -18.34375 -30.171875 L 6.46875 -18.1875 L 4.265625 -11.984375 L -8.625 -15.125 L 3.359375 -9.46875 Z M 1.125 -3.15625 "/></g></g></g><g fill="#000000" fill-opacity="1"><g transform="translate(54.645058, 99.618041)"><g><path d="M 0.59375 -1.0625 L -23.296875 -14.46875 L -17.921875 -24.03125 L -13.296875 -21.4375 L -15.9375 -16.734375 L -11.3125 -14.140625 L -8.796875 -18.640625 L -4.28125 -16.109375 L -6.796875 -11.609375 L -1.3125 -8.53125 L 1.5 -13.53125 L 6.140625 -10.921875 Z M 0.59375 -1.0625 "/></g></g></g><g fill="#000000" fill-opacity="1"><g transform="translate(60.130865, 89.484118)"><g><path d="M -21.140625 -17.453125 L -16.078125 -24.171875 C -15.273438 -25.242188 -14.410156 -25.890625 -13.484375 -26.109375 C -12.554688 -26.335938 -11.578125 -26.222656 -10.546875 -25.765625 C -9.523438 -25.316406 -8.332031 -24.578125 -6.96875 -23.546875 C -5.726562 -22.609375 -4.878906 -21.710938 -4.421875 -20.859375 C -3.972656 -20.015625 -3.914062 -19.09375 -4.25 -18.09375 C -3.613281 -18.65625 -2.921875 -18.882812 -2.171875 -18.78125 C -1.421875 -18.675781 -0.597656 -18.285156 0.296875 -17.609375 L 8.53125 -11.328125 L 5.3125 -7.046875 L -3.25 -13.5 C -3.851562 -13.957031 -4.328125 -14.128906 -4.671875 -14.015625 C -5.023438 -13.910156 -5.4375 -13.546875 -5.90625 -12.921875 L 4.078125 -5.40625 L 0.734375 -0.96875 Z M -8.90625 -16.84375 C -8.445312 -17.457031 -8.878906 -18.265625 -10.203125 -19.265625 C -10.785156 -19.703125 -11.238281 -20.003906 -11.5625 -20.171875 C -11.882812 -20.335938 -12.148438 -20.394531 -12.359375 -20.34375 C -12.578125 -20.289062 -12.785156 -20.132812 -12.984375 -19.875 L -13.734375 -18.859375 L -9.6875 -15.796875 Z M -8.90625 -16.84375 "/></g></g></g><g fill="#000000" fill-opacity="1"><g transform="translate(68.123713, 78.648283)"><g><path d="M 0.34375 -0.34375 L -17.046875 -21.671875 L -10.4375 -28.1875 L 10.671875 -10.5625 L 6.984375 -6.90625 L 3.578125 -9.796875 L 1.234375 -7.46875 L 4.125 -4.078125 Z M -1.546875 -10.84375 L 0.234375 -12.59375 L -10.4375 -21.671875 L -10.609375 -21.484375 Z M -1.546875 -10.84375 "/></g></g></g><g fill="#000000" fill-opacity="1"><g transform="translate(78.276368, 68.806903)"><g/></g></g><g fill="#000000" fill-opacity="1"><g transform="translate(82.970237, 64.751591)"><g><path d="M 6.65625 -3.921875 C 4.550781 -2.585938 2.703125 -2.144531 1.109375 -2.59375 C -0.484375 -3.039062 -2.019531 -4.421875 -3.5 -6.734375 L -4.921875 -9 L -0.375 -11.890625 L 1.453125 -9.015625 C 2.179688 -7.859375 2.910156 -7.515625 3.640625 -7.984375 C 4.054688 -8.242188 4.265625 -8.546875 4.265625 -8.890625 C 4.273438 -9.242188 4.097656 -9.707031 3.734375 -10.28125 C 3.253906 -11.03125 2.769531 -11.59375 2.28125 -11.96875 C 1.789062 -12.351562 1.300781 -12.625 0.8125 -12.78125 C 0.320312 -12.9375 -0.507812 -13.132812 -1.6875 -13.375 L -4.9375 -14.109375 C -7.425781 -14.628906 -9.253906 -15.800781 -10.421875 -17.625 C -11.679688 -19.601562 -12.1875 -21.398438 -11.9375 -23.015625 C -11.6875 -24.628906 -10.691406 -25.988281 -8.953125 -27.09375 C -6.867188 -28.414062 -5.015625 -28.816406 -3.390625 -28.296875 C -1.773438 -27.773438 -0.21875 -26.335938 1.28125 -23.984375 L -3.4375 -20.984375 L -4.46875 -22.5625 C -4.65625 -22.851562 -4.890625 -23.035156 -5.171875 -23.109375 C -5.460938 -23.179688 -5.765625 -23.117188 -6.078125 -22.921875 C -6.429688 -22.691406 -6.632812 -22.421875 -6.6875 -22.109375 C -6.738281 -21.804688 -6.65625 -21.484375 -6.4375 -21.140625 C -5.96875 -20.390625 -5.039062 -19.882812 -3.65625 -19.625 L 0.671875 -18.75 C 1.679688 -18.53125 2.566406 -18.28125 3.328125 -18 C 4.085938 -17.71875 4.828125 -17.285156 5.546875 -16.703125 C 6.273438 -16.117188 6.960938 -15.3125 7.609375 -14.28125 C 9.054688 -12.007812 9.738281 -10.019531 9.65625 -8.3125 C 9.570312 -6.601562 8.570312 -5.140625 6.65625 -3.921875 Z M 6.65625 -3.921875 "/></g></g></g><g fill="#000000" fill-opacity="1"><g transform="translate(93.843288, 57.656981)"><g><path d="M 7.171875 -2.953125 C 5.160156 -2.046875 3.347656 -1.972656 1.734375 -2.734375 C 0.128906 -3.492188 -1.171875 -4.988281 -2.171875 -7.21875 L -7.53125 -19.09375 C -8.5 -21.25 -8.703125 -23.113281 -8.140625 -24.6875 C -7.585938 -26.257812 -6.304688 -27.5 -4.296875 -28.40625 C -2.285156 -29.3125 -0.507812 -29.453125 1.03125 -28.828125 C 2.582031 -28.203125 3.84375 -26.8125 4.8125 -24.65625 L 10.171875 -12.78125 C 11.179688 -10.53125 11.4375 -8.554688 10.9375 -6.859375 C 10.4375 -5.160156 9.179688 -3.859375 7.171875 -2.953125 Z M 5.09375 -7.546875 C 5.539062 -7.742188 5.753906 -8.070312 5.734375 -8.53125 C 5.722656 -9 5.5625 -9.578125 5.25 -10.265625 L -0.25 -22.484375 C -0.5 -23.023438 -0.769531 -23.429688 -1.0625 -23.703125 C -1.363281 -23.972656 -1.738281 -24.007812 -2.1875 -23.8125 C -3.019531 -23.425781 -3.15625 -22.601562 -2.59375 -21.34375 L 2.890625 -9.15625 C 3.210938 -8.445312 3.546875 -7.945312 3.890625 -7.65625 C 4.234375 -7.375 4.632812 -7.335938 5.09375 -7.546875 Z M 5.09375 -7.546875 "/></g></g></g><g fill="#000000" fill-opacity="1"><g transform="translate(106.491252, 51.941119)"><g><path d="M 1.171875 -0.34375 L -6.65625 -26.59375 L 3.84375 -29.734375 L 5.375 -24.625 L 0.15625 -23.0625 L 1.390625 -18.890625 L 6.328125 -20.359375 L 7.84375 -15.3125 L 2.90625 -13.84375 L 6.453125 -1.921875 Z M 1.171875 -0.34375 "/></g></g></g><g fill="#000000" fill-opacity="1"><g transform="translate(117.268101, 48.639617)"><g><path d="M 3.53125 -0.609375 L -0.203125 -22.421875 L -3.421875 -21.859375 L -4.3125 -27.046875 L 7.515625 -29.078125 L 8.40625 -23.890625 L 5.203125 -23.34375 L 8.9375 -1.53125 Z M 3.53125 -0.609375 "/></g></g></g><g fill="#000000" fill-opacity="1"><g transform="translate(127.678702, 46.258915)"><g><path d="M 3.34375 -0.015625 L 0.359375 -27.390625 L 5.703125 -27.40625 L 7.265625 -10.125 L 8.765625 -27.40625 L 13.875 -27.421875 L 15.375 -10.140625 L 16.8125 -27.4375 L 22.234375 -27.4375 L 19.296875 -0.046875 L 12.71875 -0.03125 L 11.328125 -13.234375 L 10.046875 -0.03125 Z M 3.34375 -0.015625 "/></g></g></g><g fill="#000000" fill-opacity="1"><g transform="translate(148.202965, 46.338649)"><g><path d="M 0.484375 0.078125 L 7.9375 -26.40625 L 17.0625 -24.75 L 14.78125 2.65625 L 9.671875 1.75 L 10.0625 -2.6875 L 6.8125 -3.265625 L 5.703125 1.03125 Z M 7.984375 -7.5 L 10.453125 -7.046875 L 11.71875 -20.984375 L 11.46875 -21.03125 Z M 7.984375 -7.5 "/></g></g></g><g fill="#000000" fill-opacity="1"><g transform="translate(161.724695, 48.655419)"><g><path d="M 9.859375 -25.578125 L 17.828125 -22.90625 C 19.097656 -22.476562 19.984375 -21.859375 20.484375 -21.046875 C 20.992188 -20.242188 21.195312 -19.285156 21.09375 -18.171875 C 20.988281 -17.054688 20.664062 -15.6875 20.125 -14.0625 C 19.625 -12.59375 19.046875 -11.507812 18.390625 -10.8125 C 17.734375 -10.125 16.875 -9.773438 15.8125 -9.765625 C 16.550781 -9.335938 16.988281 -8.75 17.125 -8 C 17.269531 -7.257812 17.164062 -6.359375 16.8125 -5.296875 L 13.453125 4.515625 L 8.375 2.8125 L 11.78125 -7.34375 C 12.019531 -8.070312 12.03125 -8.582031 11.8125 -8.875 C 11.601562 -9.164062 11.128906 -9.4375 10.390625 -9.6875 L 6.421875 2.15625 L 1.15625 0.390625 Z M 13.15625 -13.78125 C 13.882812 -13.539062 14.515625 -14.203125 15.046875 -15.765625 C 15.273438 -16.460938 15.414062 -16.988281 15.46875 -17.34375 C 15.53125 -17.707031 15.5 -17.984375 15.375 -18.171875 C 15.257812 -18.359375 15.046875 -18.503906 14.734375 -18.609375 L 13.53125 -19.015625 L 11.921875 -14.203125 Z M 13.15625 -13.78125 "/></g></g></g><g fill="#000000" fill-opacity="1"><g transform="translate(174.619293, 52.938989)"><g><path d="M 1.09375 0.53125 L 13.203125 -24.03125 L 23.046875 -19.171875 L 20.703125 -14.421875 L 15.859375 -16.8125 L 13.515625 -12.046875 L 18.140625 -9.765625 L 15.84375 -5.125 L 11.21875 -7.40625 L 8.453125 -1.78125 L 13.59375 0.75 L 11.234375 5.53125 Z M 1.09375 0.53125 "/></g></g></g><g fill="#000000" fill-opacity="1"><g transform="translate(185.299667, 58.291032)"><g/></g></g><g fill="#000000" fill-opacity="1"><g transform="translate(190.701974, 61.339874)"><g><path d="M 5.9375 4.9375 C 3.96875 3.40625 2.925781 1.8125 2.8125 0.15625 C 2.695312 -1.488281 3.484375 -3.394531 5.171875 -5.5625 L 6.8125 -7.671875 L 11.0625 -4.359375 L 8.96875 -1.671875 C 8.132812 -0.597656 8.0625 0.203125 8.75 0.734375 C 9.132812 1.035156 9.488281 1.128906 9.8125 1.015625 C 10.132812 0.910156 10.507812 0.585938 10.9375 0.046875 C 11.476562 -0.648438 11.84375 -1.296875 12.03125 -1.890625 C 12.226562 -2.492188 12.316406 -3.046875 12.296875 -3.546875 C 12.273438 -4.054688 12.179688 -4.90625 12.015625 -6.09375 L 11.609375 -9.390625 C 11.265625 -11.921875 11.753906 -14.046875 13.078125 -15.765625 C 14.515625 -17.609375 16.035156 -18.679688 17.640625 -18.984375 C 19.242188 -19.296875 20.859375 -18.820312 22.484375 -17.5625 C 24.429688 -16.039062 25.429688 -14.429688 25.484375 -12.734375 C 25.546875 -11.046875 24.71875 -9.097656 23 -6.890625 L 18.59375 -10.3125 L 19.734375 -11.828125 C 19.941406 -12.097656 20.03125 -12.378906 20 -12.671875 C 19.976562 -12.972656 19.828125 -13.234375 19.546875 -13.453125 C 19.203125 -13.722656 18.875 -13.828125 18.5625 -13.765625 C 18.257812 -13.703125 17.984375 -13.515625 17.734375 -13.203125 C 17.191406 -12.492188 17.023438 -11.453125 17.234375 -10.078125 L 17.875 -5.703125 C 18.007812 -4.671875 18.070312 -3.75 18.0625 -2.9375 C 18.050781 -2.132812 17.894531 -1.289062 17.59375 -0.40625 C 17.289062 0.46875 16.765625 1.382812 16.015625 2.34375 C 14.359375 4.476562 12.710938 5.789062 11.078125 6.28125 C 9.441406 6.78125 7.726562 6.332031 5.9375 4.9375 Z M 5.9375 4.9375 "/></g></g></g><g fill="#000000" fill-opacity="1"><g transform="translate(201.054901, 69.205544)"><g><path d="M 5.09375 5.609375 C 3.519531 3.984375 2.8125 2.332031 2.96875 0.65625 C 3.125 -1.007812 4.097656 -2.710938 5.890625 -4.453125 L 20.296875 -18.40625 L 24 -14.578125 L 9.765625 -0.796875 C 9.128906 -0.179688 8.695312 0.351562 8.46875 0.8125 C 8.238281 1.28125 8.316406 1.710938 8.703125 2.109375 C 9.085938 2.503906 9.507812 2.59375 9.96875 2.375 C 10.425781 2.164062 10.976562 1.75 11.625 1.125 L 25.859375 -12.65625 L 29.5625 -8.828125 L 15.15625 5.125 C 13.363281 6.863281 11.628906 7.78125 9.953125 7.875 C 8.273438 7.976562 6.65625 7.222656 5.09375 5.609375 Z M 5.09375 5.609375 "/></g></g></g><g fill="#000000" fill-opacity="1"><g transform="translate(210.459896, 78.746859)"><g><path d="M 22.90625 -15.078125 L 27.140625 -9.21875 C 28.421875 -7.445312 28.765625 -5.765625 28.171875 -4.171875 C 27.585938 -2.585938 26.191406 -1 23.984375 0.59375 C 21.773438 2.195312 19.863281 3.066406 18.25 3.203125 C 16.644531 3.335938 15.210938 2.535156 13.953125 0.796875 L 12.640625 -1.015625 L 3.859375 5.34375 L 0.71875 0.984375 Z M 16.84375 -3.640625 C 17.226562 -3.109375 17.609375 -2.789062 17.984375 -2.6875 C 18.359375 -2.582031 18.757812 -2.625 19.1875 -2.8125 C 19.625 -3 20.1875 -3.34375 20.875 -3.84375 C 21.800781 -4.519531 22.394531 -5.109375 22.65625 -5.609375 C 22.925781 -6.117188 22.832031 -6.6875 22.375 -7.3125 L 22.015625 -7.796875 L 16.640625 -3.90625 Z M 16.84375 -3.640625 "/></g></g></g><g fill="#000000" fill-opacity="1"><g transform="translate(218.378346, 89.478002)"><g><path d="M 24.8125 -11.671875 L 28.1875 -5.265625 C 29.195312 -3.328125 29.296875 -1.613281 28.484375 -0.125 C 27.671875 1.351562 26.0625 2.726562 23.65625 4 C 21.238281 5.269531 19.222656 5.851562 17.609375 5.75 C 16.003906 5.65625 14.703125 4.660156 13.703125 2.765625 L 12.65625 0.796875 L 3.0625 5.84375 L 0.5625 1.078125 Z M 17.1875 -1.21875 C 17.488281 -0.632812 17.820312 -0.265625 18.1875 -0.109375 C 18.550781 0.046875 18.957031 0.0625 19.40625 -0.0625 C 19.851562 -0.1875 20.457031 -0.445312 21.21875 -0.84375 C 22.226562 -1.375 22.898438 -1.867188 23.234375 -2.328125 C 23.566406 -2.796875 23.550781 -3.375 23.1875 -4.0625 L 22.90625 -4.59375 L 17.03125 -1.5 Z M 17.1875 -1.21875 "/></g></g></g><g fill="#000000" fill-opacity="1"><g transform="translate(224.664549, 101.383771)"><g><path d="M 0.421875 1.140625 L 26.125 -8.328125 L 28.015625 -3.171875 L 6.6875 4.6875 L 8.640625 9.96875 L 4.265625 11.578125 Z M 0.421875 1.140625 "/></g></g></g><g fill="#000000" fill-opacity="1"><g transform="translate(228.647777, 111.771606)"><g><path d="M 1.015625 4.421875 L 9.8125 2.40625 L 26.734375 -5.96875 L 27.953125 -0.6875 L 19.25 2.875 L 28.640625 2.296875 L 29.84375 7.578125 L 10.96875 7.421875 L 2.171875 9.4375 Z M 1.015625 4.421875 "/></g></g></g><g fill="#000000" fill-opacity="1"><g transform="translate(231.439173, 124.436049)"><g/></g></g><g fill="#000000" fill-opacity="1"><g transform="translate(17.036574, 215.984804)"><g><path d="M 0.90625 0 L 0.90625 -20.546875 L 9.140625 -20.546875 L 9.140625 -16.578125 L 5.09375 -16.578125 L 5.09375 -12.578125 L 8.96875 -12.578125 L 8.96875 -8.703125 L 5.09375 -8.703125 L 5.09375 -4 L 9.40625 -4 L 9.40625 0 Z M 0.90625 0 "/></g></g></g><g fill="#000000" fill-opacity="1"><g transform="translate(26.88806, 215.984804)"><g><path d="M 5.796875 0.1875 C 3.921875 0.1875 2.566406 -0.269531 1.734375 -1.1875 C 0.910156 -2.113281 0.5 -3.609375 0.5 -5.671875 L 0.5 -7.671875 L 4.546875 -7.671875 L 4.546875 -5.125 C 4.546875 -4.101562 4.875 -3.59375 5.53125 -3.59375 C 5.894531 -3.59375 6.144531 -3.695312 6.28125 -3.90625 C 6.425781 -4.125 6.5 -4.488281 6.5 -5 C 6.5 -5.664062 6.421875 -6.21875 6.265625 -6.65625 C 6.109375 -7.09375 5.90625 -7.457031 5.65625 -7.75 C 5.40625 -8.050781 4.960938 -8.515625 4.328125 -9.140625 L 2.5625 -10.90625 C 1.1875 -12.25 0.5 -13.734375 0.5 -15.359375 C 0.5 -17.109375 0.898438 -18.441406 1.703125 -19.359375 C 2.515625 -20.273438 3.691406 -20.734375 5.234375 -20.734375 C 7.085938 -20.734375 8.421875 -20.242188 9.234375 -19.265625 C 10.046875 -18.285156 10.453125 -16.753906 10.453125 -14.671875 L 6.265625 -14.671875 L 6.25 -16.078125 C 6.25 -16.347656 6.171875 -16.5625 6.015625 -16.71875 C 5.867188 -16.875 5.65625 -16.953125 5.375 -16.953125 C 5.0625 -16.953125 4.820312 -16.863281 4.65625 -16.6875 C 4.5 -16.519531 4.421875 -16.285156 4.421875 -15.984375 C 4.421875 -15.304688 4.804688 -14.613281 5.578125 -13.90625 L 7.96875 -11.609375 C 8.519531 -11.054688 8.976562 -10.535156 9.34375 -10.046875 C 9.71875 -9.566406 10.015625 -8.992188 10.234375 -8.328125 C 10.460938 -7.671875 10.578125 -6.890625 10.578125 -5.984375 C 10.578125 -3.953125 10.203125 -2.414062 9.453125 -1.375 C 8.710938 -0.332031 7.492188 0.1875 5.796875 0.1875 Z M 5.796875 0.1875 "/></g></g></g><g fill="#000000" fill-opacity="1"><g transform="translate(37.911201, 215.984804)"><g><path d="M 2.671875 0 L 2.671875 -16.609375 L 0.234375 -16.609375 L 0.234375 -20.546875 L 9.234375 -20.546875 L 9.234375 -16.609375 L 6.796875 -16.609375 L 6.796875 0 Z M 2.671875 0 "/></g></g></g><g fill="#000000" fill-opacity="1"><g transform="translate(47.380105, 215.984804)"><g><path d="M 0.640625 0 L 0.640625 -3.5 L 4.828125 -3.5 L 4.828125 0 Z M 0.640625 0 "/></g></g></g><g fill="#000000" fill-opacity="1"><g transform="translate(115.835394, 215.984804)"><g><path d="M 0.71875 -0.984375 C 0.71875 -1.921875 0.863281 -2.785156 1.15625 -3.578125 C 1.457031 -4.378906 1.820312 -5.097656 2.25 -5.734375 C 2.675781 -6.378906 3.242188 -7.128906 3.953125 -7.984375 C 4.671875 -8.878906 5.238281 -9.640625 5.65625 -10.265625 C 6.082031 -10.890625 6.441406 -11.601562 6.734375 -12.40625 C 7.023438 -13.207031 7.171875 -14.078125 7.171875 -15.015625 C 7.171875 -15.578125 7.09375 -16.015625 6.9375 -16.328125 C 6.78125 -16.640625 6.492188 -16.796875 6.078125 -16.796875 C 5.390625 -16.796875 5.046875 -16.179688 5.046875 -14.953125 L 5.046875 -12.4375 L 0.71875 -12.4375 L 0.671875 -13.703125 C 0.671875 -15.265625 0.828125 -16.546875 1.140625 -17.546875 C 1.460938 -18.554688 2.019531 -19.320312 2.8125 -19.84375 C 3.613281 -20.375 4.71875 -20.640625 6.125 -20.640625 C 7.84375 -20.640625 9.171875 -20.15625 10.109375 -19.1875 C 11.054688 -18.226562 11.53125 -16.863281 11.53125 -15.09375 C 11.53125 -13.957031 11.375 -12.929688 11.0625 -12.015625 C 10.75 -11.097656 10.363281 -10.296875 9.90625 -9.609375 C 9.457031 -8.929688 8.859375 -8.128906 8.109375 -7.203125 C 7.566406 -6.546875 7.113281 -5.960938 6.75 -5.453125 C 6.394531 -4.941406 6.078125 -4.414062 5.796875 -3.875 L 11.390625 -3.875 L 11.390625 0 L 0.71875 0 Z M 0.71875 -0.984375 "/></g></g></g><g fill="#000000" fill-opacity="1"><g transform="translate(127.647608, 215.984804)"><g><path d="M 5.90625 0.1875 C 4.164062 0.1875 2.828125 -0.300781 1.890625 -1.28125 C 0.953125 -2.257812 0.484375 -3.660156 0.484375 -5.484375 L 0.484375 -14.765625 C 0.484375 -16.703125 0.9375 -18.179688 1.84375 -19.203125 C 2.75 -20.222656 4.101562 -20.734375 5.90625 -20.734375 C 7.726562 -20.734375 9.09375 -20.222656 10 -19.203125 C 10.90625 -18.179688 11.359375 -16.703125 11.359375 -14.765625 L 11.359375 -5.484375 C 11.359375 -3.648438 10.890625 -2.242188 9.953125 -1.265625 C 9.015625 -0.296875 7.664062 0.1875 5.90625 0.1875 Z M 5.90625 -3.59375 C 6.207031 -3.59375 6.453125 -3.726562 6.640625 -4 C 6.835938 -4.28125 6.9375 -4.613281 6.9375 -5 L 6.9375 -15.140625 C 6.9375 -15.734375 6.867188 -16.179688 6.734375 -16.484375 C 6.597656 -16.796875 6.320312 -16.953125 5.90625 -16.953125 C 5.488281 -16.953125 5.21875 -16.796875 5.09375 -16.484375 C 4.96875 -16.179688 4.90625 -15.734375 4.90625 -15.140625 L 4.90625 -5 C 4.90625 -4.613281 4.992188 -4.28125 5.171875 -4 C 5.359375 -3.726562 5.601562 -3.59375 5.90625 -3.59375 Z M 5.90625 -3.59375 "/></g></g></g><g fill="#000000" fill-opacity="1"><g transform="translate(139.459823, 215.984804)"><g><path d="M 0.71875 -0.984375 C 0.71875 -1.921875 0.863281 -2.785156 1.15625 -3.578125 C 1.457031 -4.378906 1.820312 -5.097656 2.25 -5.734375 C 2.675781 -6.378906 3.242188 -7.128906 3.953125 -7.984375 C 4.671875 -8.878906 5.238281 -9.640625 5.65625 -10.265625 C 6.082031 -10.890625 6.441406 -11.601562 6.734375 -12.40625 C 7.023438 -13.207031 7.171875 -14.078125 7.171875 -15.015625 C 7.171875 -15.578125 7.09375 -16.015625 6.9375 -16.328125 C 6.78125 -16.640625 6.492188 -16.796875 6.078125 -16.796875 C 5.390625 -16.796875 5.046875 -16.179688 5.046875 -14.953125 L 5.046875 -12.4375 L 0.71875 -12.4375 L 0.671875 -13.703125 C 0.671875 -15.265625 0.828125 -16.546875 1.140625 -17.546875 C 1.460938 -18.554688 2.019531 -19.320312 2.8125 -19.84375 C 3.613281 -20.375 4.71875 -20.640625 6.125 -20.640625 C 7.84375 -20.640625 9.171875 -20.15625 10.109375 -19.1875 C 11.054688 -18.226562 11.53125 -16.863281 11.53125 -15.09375 C 11.53125 -13.957031 11.375 -12.929688 11.0625 -12.015625 C 10.75 -11.097656 10.363281 -10.296875 9.90625 -9.609375 C 9.457031 -8.929688 8.859375 -8.128906 8.109375 -7.203125 C 7.566406 -6.546875 7.113281 -5.960938 6.75 -5.453125 C 6.394531 -4.941406 6.078125 -4.414062 5.796875 -3.875 L 11.390625 -3.875 L 11.390625 0 L 0.71875 0 Z M 0.71875 -0.984375 "/></g></g></g><g fill="#000000" fill-opacity="1"><g transform="translate(151.272037, 215.984804)"><g><path d="M 5.90625 0.28125 C 4.257812 0.28125 2.953125 -0.117188 1.984375 -0.921875 C 1.015625 -1.722656 0.53125 -2.914062 0.53125 -4.5 L 0.53125 -7.53125 L 4.8125 -7.53125 L 4.8125 -5.796875 C 4.8125 -5.085938 4.878906 -4.535156 5.015625 -4.140625 C 5.160156 -3.742188 5.457031 -3.546875 5.90625 -3.546875 C 6.320312 -3.546875 6.601562 -3.679688 6.75 -3.953125 C 6.90625 -4.222656 6.984375 -4.617188 6.984375 -5.140625 L 6.984375 -9.1875 C 6.984375 -9.84375 6.914062 -10.363281 6.78125 -10.75 C 6.644531 -11.144531 6.363281 -11.34375 5.9375 -11.34375 C 5.15625 -11.34375 4.765625 -10.773438 4.765625 -9.640625 L 1 -9.640625 L 1 -20.578125 L 10.78125 -20.578125 L 10.78125 -16.71875 L 4.90625 -16.71875 L 4.90625 -13.828125 C 5.113281 -14.097656 5.390625 -14.320312 5.734375 -14.5 C 6.085938 -14.675781 6.488281 -14.765625 6.9375 -14.765625 C 8.65625 -14.765625 9.828125 -14.15625 10.453125 -12.9375 C 11.085938 -11.726562 11.40625 -10.015625 11.40625 -7.796875 C 11.40625 -5.960938 11.273438 -4.472656 11.015625 -3.328125 C 10.753906 -2.191406 10.222656 -1.304688 9.421875 -0.671875 C 8.628906 -0.0351562 7.457031 0.28125 5.90625 0.28125 Z M 5.90625 0.28125 "/></g></g></g><g fill="#000000" fill-opacity="1"><g transform="translate(233.446788, 215.984804)"><g><path d="M 0.90625 0 L 0.90625 -20.546875 L 5.03125 -20.546875 L 5.03125 -3.5 L 9.25 -3.5 L 9.25 0 Z M 0.90625 0 "/></g></g></g><g fill="#000000" fill-opacity="1"><g transform="translate(242.939602, 215.984804)"><g><path d="M 0.90625 0 L 0.90625 -20.546875 L 5.03125 -20.546875 L 5.03125 -3.5 L 9.25 -3.5 L 9.25 0 Z M 0.90625 0 "/></g></g></g><g fill="#000000" fill-opacity="1"><g transform="translate(252.432416, 215.984804)"><g><path d="M 5.6875 0.1875 C 4.1875 0.1875 2.984375 -0.28125 2.078125 -1.21875 C 1.179688 -2.15625 0.734375 -3.445312 0.734375 -5.09375 L 0.734375 -14.5625 C 0.734375 -16.601562 1.140625 -18.140625 1.953125 -19.171875 C 2.773438 -20.210938 4.054688 -20.734375 5.796875 -20.734375 C 7.304688 -20.734375 8.523438 -20.316406 9.453125 -19.484375 C 10.378906 -18.660156 10.84375 -17.46875 10.84375 -15.90625 L 10.84375 -12.375 L 6.75 -12.375 L 6.75 -15.40625 C 6.75 -16 6.675781 -16.40625 6.53125 -16.625 C 6.382812 -16.84375 6.140625 -16.953125 5.796875 -16.953125 C 5.421875 -16.953125 5.164062 -16.820312 5.03125 -16.5625 C 4.894531 -16.3125 4.828125 -15.941406 4.828125 -15.453125 L 4.828125 -5.140625 C 4.828125 -4.597656 4.90625 -4.203125 5.0625 -3.953125 C 5.226562 -3.710938 5.472656 -3.59375 5.796875 -3.59375 C 6.429688 -3.59375 6.75 -4.109375 6.75 -5.140625 L 6.75 -8.84375 L 10.890625 -8.84375 L 10.890625 -4.96875 C 10.890625 -1.53125 9.15625 0.1875 5.6875 0.1875 Z M 5.6875 0.1875 "/></g></g></g><g fill="#000000" fill-opacity="1"><g transform="translate(60.320551, 185.976969)"><g><path d="M 4.75 0.15625 C 3.5 0.15625 2.5 -0.234375 1.75 -1.015625 C 1 -1.796875 0.625 -2.875 0.625 -4.25 L 0.625 -12.140625 C 0.625 -13.835938 0.960938 -15.117188 1.640625 -15.984375 C 2.316406 -16.847656 3.378906 -17.28125 4.828125 -17.28125 C 6.085938 -17.28125 7.101562 -16.9375 7.875 -16.25 C 8.644531 -15.5625 9.03125 -14.566406 9.03125 -13.265625 L 9.03125 -10.3125 L 5.625 -10.3125 L 5.625 -12.84375 C 5.625 -13.332031 5.5625 -13.671875 5.4375 -13.859375 C 5.320312 -14.046875 5.117188 -14.140625 4.828125 -14.140625 C 4.515625 -14.140625 4.300781 -14.03125 4.1875 -13.8125 C 4.082031 -13.601562 4.03125 -13.289062 4.03125 -12.875 L 4.03125 -4.28125 C 4.03125 -3.832031 4.09375 -3.503906 4.21875 -3.296875 C 4.351562 -3.085938 4.554688 -2.984375 4.828125 -2.984375 C 5.359375 -2.984375 5.625 -3.414062 5.625 -4.28125 L 5.625 -7.375 L 9.078125 -7.375 L 9.078125 -4.140625 C 9.078125 -1.273438 7.632812 0.15625 4.75 0.15625 Z M 4.75 0.15625 "/></g></g></g><g fill="#000000" fill-opacity="1"><g transform="translate(69.766435, 185.976969)"><g><path d="M 3.34375 0.15625 C 2.21875 0.15625 1.445312 -0.21875 1.03125 -0.96875 C 0.613281 -1.71875 0.40625 -2.789062 0.40625 -4.1875 C 0.40625 -5.332031 0.550781 -6.207031 0.84375 -6.8125 C 1.144531 -7.425781 1.5625 -7.875 2.09375 -8.15625 C 2.625 -8.445312 3.4375 -8.765625 4.53125 -9.109375 L 5.484375 -9.4375 L 5.484375 -10.921875 C 5.484375 -11.304688 5.40625 -11.601562 5.25 -11.8125 C 5.101562 -12.019531 4.921875 -12.125 4.703125 -12.125 C 4.515625 -12.125 4.347656 -12.035156 4.203125 -11.859375 C 4.066406 -11.691406 4 -11.460938 4 -11.171875 L 4 -10.28125 L 0.625 -10.28125 L 0.625 -10.765625 C 0.625 -12.203125 0.957031 -13.222656 1.625 -13.828125 C 2.289062 -14.441406 3.382812 -14.75 4.90625 -14.75 C 6.113281 -14.75 7.09375 -14.429688 7.84375 -13.796875 C 8.601562 -13.171875 8.984375 -12.28125 8.984375 -11.125 L 8.984375 0 L 5.515625 0 L 5.515625 -1.734375 C 5.347656 -1.140625 5.070312 -0.675781 4.6875 -0.34375 C 4.3125 -0.0078125 3.863281 0.15625 3.34375 0.15625 Z M 4.71875 -2.546875 C 4.988281 -2.546875 5.179688 -2.65625 5.296875 -2.875 C 5.410156 -3.09375 5.46875 -3.363281 5.46875 -3.6875 L 5.46875 -7.75 C 4.945312 -7.550781 4.5625 -7.300781 4.3125 -7 C 4.070312 -6.695312 3.953125 -6.269531 3.953125 -5.71875 L 3.953125 -3.84375 C 3.953125 -2.976562 4.207031 -2.546875 4.71875 -2.546875 Z M 4.71875 -2.546875 "/></g></g></g><g fill="#000000" fill-opacity="1"><g transform="translate(79.391678, 185.976969)"><g><path d="M 0.28125 0 L 0.28125 -2.140625 L 3.90625 -11.84375 L 0.4375 -11.84375 L 0.4375 -14.59375 L 7.515625 -14.59375 L 7.515625 -12.21875 L 4.09375 -2.609375 L 7.5625 -2.609375 L 7.5625 0 Z M 0.28125 0 "/></g></g></g><g fill="#000000" fill-opacity="1"><g transform="translate(87.0839, 185.976969)"><g><path d="M 4.78125 0.15625 C 3.28125 0.15625 2.203125 -0.253906 1.546875 -1.078125 C 0.898438 -1.898438 0.578125 -3.128906 0.578125 -4.765625 L 0.578125 -10.625 C 0.578125 -11.96875 0.960938 -12.988281 1.734375 -13.6875 C 2.503906 -14.394531 3.582031 -14.75 4.96875 -14.75 C 7.769531 -14.75 9.171875 -13.375 9.171875 -10.625 L 9.171875 -9.5625 C 9.171875 -8.5 9.15625 -7.640625 9.125 -6.984375 L 4.0625 -6.984375 L 4.0625 -4.140625 C 4.0625 -3.640625 4.113281 -3.242188 4.21875 -2.953125 C 4.332031 -2.671875 4.5625 -2.53125 4.90625 -2.53125 C 5.164062 -2.53125 5.351562 -2.609375 5.46875 -2.765625 C 5.582031 -2.929688 5.648438 -3.113281 5.671875 -3.3125 C 5.691406 -3.519531 5.703125 -3.828125 5.703125 -4.234375 L 5.703125 -5.640625 L 9.171875 -5.640625 L 9.171875 -4.8125 C 9.171875 -3.101562 8.84375 -1.847656 8.1875 -1.046875 C 7.53125 -0.242188 6.394531 0.15625 4.78125 0.15625 Z M 5.703125 -8.71875 L 5.703125 -10.59375 C 5.703125 -11.632812 5.441406 -12.15625 4.921875 -12.15625 C 4.335938 -12.15625 4.046875 -11.632812 4.046875 -10.59375 L 4.046875 -8.71875 Z M 5.703125 -8.71875 "/></g></g></g><g fill="#000000" fill-opacity="1"><g transform="translate(96.808787, 185.976969)"><g><path d="M 0.703125 -14.59375 L 4.1875 -14.59375 L 4.1875 -12.734375 C 4.332031 -13.335938 4.582031 -13.820312 4.9375 -14.1875 C 5.300781 -14.5625 5.78125 -14.75 6.375 -14.75 C 7.363281 -14.75 8.09375 -14.445312 8.5625 -13.84375 C 9.03125 -13.238281 9.265625 -12.378906 9.265625 -11.265625 L 9.265625 0 L 5.84375 0 L 5.84375 -10.90625 C 5.84375 -11.226562 5.78125 -11.5 5.65625 -11.71875 C 5.53125 -11.945312 5.332031 -12.0625 5.0625 -12.0625 C 4.707031 -12.0625 4.472656 -11.894531 4.359375 -11.5625 C 4.242188 -11.238281 4.1875 -10.804688 4.1875 -10.265625 L 4.1875 0 L 0.703125 0 Z M 0.703125 -14.59375 "/></g></g></g><g fill="#000000" fill-opacity="1"><g transform="translate(106.752878, 185.976969)"><g><path d="M 4.9375 0.15625 C 2.03125 0.15625 0.578125 -1.347656 0.578125 -4.359375 L 0.578125 -10.234375 C 0.578125 -11.609375 0.960938 -12.703125 1.734375 -13.515625 C 2.515625 -14.335938 3.582031 -14.75 4.9375 -14.75 C 6.300781 -14.75 7.367188 -14.335938 8.140625 -13.515625 C 8.921875 -12.703125 9.3125 -11.609375 9.3125 -10.234375 L 9.3125 -4.359375 C 9.3125 -1.347656 7.851562 0.15625 4.9375 0.15625 Z M 4.9375 -2.53125 C 5.21875 -2.53125 5.425781 -2.628906 5.5625 -2.828125 C 5.695312 -3.023438 5.765625 -3.300781 5.765625 -3.65625 L 5.765625 -10.78125 C 5.765625 -11.632812 5.488281 -12.0625 4.9375 -12.0625 C 4.394531 -12.0625 4.125 -11.632812 4.125 -10.78125 L 4.125 -3.65625 C 4.125 -3.300781 4.191406 -3.023438 4.328125 -2.828125 C 4.460938 -2.628906 4.664062 -2.53125 4.9375 -2.53125 Z M 4.9375 -2.53125 "/></g></g></g><g fill="#000000" fill-opacity="1"><g transform="translate(116.657112, 185.976969)"><g><path d="M 2.546875 0 L 0.21875 -14.59375 L 3.703125 -14.59375 L 4.421875 -7.21875 L 4.546875 -4.84375 L 4.6875 -7.234375 L 5.484375 -14.59375 L 8.96875 -14.59375 L 6.59375 0 Z M 2.546875 0 "/></g></g></g><g fill="#000000" fill-opacity="1"><g transform="translate(125.843933, 185.976969)"><g><path d="M 0.671875 -15.578125 L 0.671875 -18 L 4.171875 -18 L 4.171875 -15.578125 Z M 0.671875 0 L 0.671875 -14.59375 L 4.171875 -14.59375 L 4.171875 0 Z M 0.671875 0 "/></g></g></g><g fill="#000000" fill-opacity="1"><g transform="translate(130.686448, 185.976969)"><g><path d="M 3.34375 0.15625 C 2.21875 0.15625 1.445312 -0.21875 1.03125 -0.96875 C 0.613281 -1.71875 0.40625 -2.789062 0.40625 -4.1875 C 0.40625 -5.332031 0.550781 -6.207031 0.84375 -6.8125 C 1.144531 -7.425781 1.5625 -7.875 2.09375 -8.15625 C 2.625 -8.445312 3.4375 -8.765625 4.53125 -9.109375 L 5.484375 -9.4375 L 5.484375 -10.921875 C 5.484375 -11.304688 5.40625 -11.601562 5.25 -11.8125 C 5.101562 -12.019531 4.921875 -12.125 4.703125 -12.125 C 4.515625 -12.125 4.347656 -12.035156 4.203125 -11.859375 C 4.066406 -11.691406 4 -11.460938 4 -11.171875 L 4 -10.28125 L 0.625 -10.28125 L 0.625 -10.765625 C 0.625 -12.203125 0.957031 -13.222656 1.625 -13.828125 C 2.289062 -14.441406 3.382812 -14.75 4.90625 -14.75 C 6.113281 -14.75 7.09375 -14.429688 7.84375 -13.796875 C 8.601562 -13.171875 8.984375 -12.28125 8.984375 -11.125 L 8.984375 0 L 5.515625 0 L 5.515625 -1.734375 C 5.347656 -1.140625 5.070312 -0.675781 4.6875 -0.34375 C 4.3125 -0.0078125 3.863281 0.15625 3.34375 0.15625 Z M 4.71875 -2.546875 C 4.988281 -2.546875 5.179688 -2.65625 5.296875 -2.875 C 5.410156 -3.09375 5.46875 -3.363281 5.46875 -3.6875 L 5.46875 -7.75 C 4.945312 -7.550781 4.5625 -7.300781 4.3125 -7 C 4.070312 -6.695312 3.953125 -6.269531 3.953125 -5.71875 L 3.953125 -3.84375 C 3.953125 -2.976562 4.207031 -2.546875 4.71875 -2.546875 Z M 4.71875 -2.546875 "/></g></g></g><g fill="#000000" fill-opacity="1"><g transform="translate(140.31169, 185.976969)"><g/></g></g><g fill="#000000" fill-opacity="1"><g transform="translate(144.974846, 185.976969)"><g><path d="M 0.75 0 L 0.75 -17.125 L 4.28125 -17.125 L 5.859375 -8.9375 L 5.859375 -17.125 L 9.171875 -17.125 L 9.171875 0 L 5.828125 0 L 4.109375 -8.578125 L 4.109375 0 Z M 0.75 0 "/></g></g></g><g fill="#000000" fill-opacity="1"><g transform="translate(154.899009, 185.976969)"><g><path d="M 4.78125 0.15625 C 3.28125 0.15625 2.203125 -0.253906 1.546875 -1.078125 C 0.898438 -1.898438 0.578125 -3.128906 0.578125 -4.765625 L 0.578125 -10.625 C 0.578125 -11.96875 0.960938 -12.988281 1.734375 -13.6875 C 2.503906 -14.394531 3.582031 -14.75 4.96875 -14.75 C 7.769531 -14.75 9.171875 -13.375 9.171875 -10.625 L 9.171875 -9.5625 C 9.171875 -8.5 9.15625 -7.640625 9.125 -6.984375 L 4.0625 -6.984375 L 4.0625 -4.140625 C 4.0625 -3.640625 4.113281 -3.242188 4.21875 -2.953125 C 4.332031 -2.671875 4.5625 -2.53125 4.90625 -2.53125 C 5.164062 -2.53125 5.351562 -2.609375 5.46875 -2.765625 C 5.582031 -2.929688 5.648438 -3.113281 5.671875 -3.3125 C 5.691406 -3.519531 5.703125 -3.828125 5.703125 -4.234375 L 5.703125 -5.640625 L 9.171875 -5.640625 L 9.171875 -4.8125 C 9.171875 -3.101562 8.84375 -1.847656 8.1875 -1.046875 C 7.53125 -0.242188 6.394531 0.15625 4.78125 0.15625 Z M 5.703125 -8.71875 L 5.703125 -10.59375 C 5.703125 -11.632812 5.441406 -12.15625 4.921875 -12.15625 C 4.335938 -12.15625 4.046875 -11.632812 4.046875 -10.59375 L 4.046875 -8.71875 Z M 5.703125 -8.71875 "/></g></g></g><g fill="#000000" fill-opacity="1"><g transform="translate(164.623895, 185.976969)"><g><path d="M 2.234375 0 L 0.453125 -14.59375 L 3.453125 -14.59375 L 4.421875 -6.765625 L 5.265625 -14.59375 L 8.3125 -14.59375 L 9.3125 -6.765625 L 10.125 -14.59375 L 13.421875 -14.59375 L 11.546875 0 L 8.0625 0 L 7.015625 -8.296875 L 6.09375 0 Z M 2.234375 0 "/></g></g></g><g fill="#000000" fill-opacity="1"><g transform="translate(178.493813, 185.976969)"><g/></g></g><g fill="#000000" fill-opacity="1"><g transform="translate(183.156969, 185.976969)"><g><path d="M 2.828125 0 L 2.828125 -5.640625 L 0.09375 -17.125 L 3.484375 -17.125 L 4.453125 -11.328125 L 5.40625 -17.125 L 8.796875 -17.125 L 6.0625 -5.640625 L 6.0625 0 Z M 2.828125 0 "/></g></g></g><g fill="#000000" fill-opacity="1"><g transform="translate(192.044871, 185.976969)"><g><path d="M 4.9375 0.15625 C 2.03125 0.15625 0.578125 -1.347656 0.578125 -4.359375 L 0.578125 -10.234375 C 0.578125 -11.609375 0.960938 -12.703125 1.734375 -13.515625 C 2.515625 -14.335938 3.582031 -14.75 4.9375 -14.75 C 6.300781 -14.75 7.367188 -14.335938 8.140625 -13.515625 C 8.921875 -12.703125 9.3125 -11.609375 9.3125 -10.234375 L 9.3125 -4.359375 C 9.3125 -1.347656 7.851562 0.15625 4.9375 0.15625 Z M 4.9375 -2.53125 C 5.21875 -2.53125 5.425781 -2.628906 5.5625 -2.828125 C 5.695312 -3.023438 5.765625 -3.300781 5.765625 -3.65625 L 5.765625 -10.78125 C 5.765625 -11.632812 5.488281 -12.0625 4.9375 -12.0625 C 4.394531 -12.0625 4.125 -11.632812 4.125 -10.78125 L 4.125 -3.65625 C 4.125 -3.300781 4.191406 -3.023438 4.328125 -2.828125 C 4.460938 -2.628906 4.664062 -2.53125 4.9375 -2.53125 Z M 4.9375 -2.53125 "/></g></g></g><g fill="#000000" fill-opacity="1"><g transform="translate(201.949104, 185.976969)"><g><path d="M 0.703125 -14.59375 L 4.1875 -14.59375 L 4.1875 -12.984375 C 4.363281 -13.554688 4.664062 -14 5.09375 -14.3125 C 5.519531 -14.625 6.054688 -14.78125 6.703125 -14.78125 L 6.703125 -11.859375 C 6.210938 -11.859375 5.671875 -11.785156 5.078125 -11.640625 C 4.484375 -11.503906 4.1875 -11.347656 4.1875 -11.171875 L 4.1875 0 L 0.703125 0 Z M 0.703125 -14.59375 "/></g></g></g><g fill="#000000" fill-opacity="1"><g transform="translate(208.804354, 185.976969)"><g><path d="M 0.703125 0 L 0.703125 -17.21875 L 4.140625 -17.21875 L 4.140625 -9.5625 L 5.828125 -14.59375 L 9.4375 -14.59375 L 7.234375 -8.25 L 10.03125 0 L 6.3125 0 L 4.140625 -6.875 L 4.140625 0 Z M 0.703125 0 "/></g></g></g><path stroke-linecap="butt" transform="matrix(0.0338402, 0.74683, -0.74683, 0.0338402, 157.981314, 85.162863)" fill="none" stroke-linejoin="miter" d="M -0.0018643 1.000062 L 73.532912 1.000264 " stroke="#000000" stroke-width="2" stroke-opacity="1" stroke-miterlimit="4"/><path stroke-linecap="butt" transform="matrix(0.479915, 0.57322, -0.57322, 0.479915, 115.314019, 55.825048)" fill="none" stroke-linejoin="miter" d="M 0.000908953 0.998339 L 88.542358 0.998715 " stroke="#000000" stroke-width="2" stroke-opacity="1" stroke-miterlimit="4"/><path stroke-linecap="butt" transform="matrix(0.745867, 0.0508167, -0.0508167, 0.745867, 90.197551, 130.487714)" fill="none" stroke-linejoin="miter" d="M 0.00234504 1.000904 L 93.172003 1.00064 " stroke="#000000" stroke-width="2" stroke-opacity="1" stroke-miterlimit="4"/><path stroke-linecap="butt" transform="matrix(0.229326, -0.711554, 0.711554, 0.229326, 88.052613, 129.693614)" fill="none" stroke-linejoin="miter" d="M 0.209612 7.352003 C 39.503833 -1.117922 73.310223 -1.116205 101.627182 7.352182 " stroke="#000000" stroke-width="2" stroke-opacity="1" stroke-miterlimit="4"/><path stroke-linecap="butt" transform="matrix(0.743722, -0.0760054, 0.0760054, 0.743722, 159.709648, 139.780362)" fill="none" stroke-linejoin="miter" d="M -0.000574011 0.999071 L 44.276003 1.001729 " stroke="#000000" stroke-width="2" stroke-opacity="1" stroke-miterlimit="4"/><g clip-path="url(#2fc85cd1da)"><g clip-path="url(#07d23b92b2)"><g transform="matrix(1, 0, 0, 1, 86, 140)"><g clip-path="url(#fa47121428)"><g clip-path="url(#784f558f3d)"><g clip-path="url(#ea3f202942)"><path fill="#000000" d="M 0.15625 0.113281 L 82.898438 0.113281 L 82.898438 10.960938 L 0.15625 10.960938 Z M 0.15625 0.113281 " fill-opacity="1" fill-rule="nonzero"/></g></g></g></g></g></g><g clip-path="url(#9cf60a96c7)"><g clip-path="url(#062c9a6c1a)"><g transform="matrix(1, 0, 0, 1, 94, 99)"><g clip-path="url(#9db4233df8)"><g clip-path="url(#4ff53c253d)"><g clip-path="url(#9a4626a053)"><path fill="#000000" d="M 4.398438 0.972656 L 64.347656 10.378906 L 60.183594 36.929688 L 0.234375 27.527344 Z M 4.398438 0.972656 " fill-opacity="1" fill-rule="nonzero"/></g></g></g></g></g></g><g clip-path="url(#632afea513)"><g clip-path="url(#583fe74864)"><g transform="matrix(1, 0, 0, 1, 150, 106)"><g clip-path="url(#184ee3671e)"><g clip-path="url(#76f9d8045f)"><g clip-path="url(#9e6bc958f5)"><path fill="#000000" d="M 0.265625 0.992188 L 7.722656 0.671875 L 8.890625 27.878906 L 1.433594 28.199219 Z M 0.265625 0.992188 " fill-opacity="1" fill-rule="nonzero"/></g></g></g></g></g></g><g clip-path="url(#dc10d15b28)"><g clip-path="url(#fe95013bac)"><g transform="matrix(1, 0, 0, 1, 103, 66)"><g clip-path="url(#0334ffd707)"><g clip-path="url(#6dc52969b3)"><g clip-path="url(#bb135e10db)"><path fill="#000000" d="M 19.535156 0.214844 L 54.621094 41.871094 L 36.011719 57.542969 L 0.925781 15.890625 Z M 19.535156 0.214844 " fill-opacity="1" fill-rule="nonzero"/></g></g></g></g></g></g><g clip-path="url(#b3da56eb49)"><g clip-path="url(#c562fca2a8)"><g transform="matrix(1, 0, 0, 1, 99, 82)"><g clip-path="url(#e518dc0967)"><g clip-path="url(#e667dacc2c)"><g clip-path="url(#d96d7abede)"><path fill="#000000" d="M 5.371094 0.78125 L 28.527344 5.605469 L 23.574219 29.390625 L 0.421875 24.570312 Z M 5.371094 0.78125 " fill-opacity="1" fill-rule="nonzero"/></g></g></g></g></g></g><g clip-path="url(#ec3555198b)"><g clip-path="url(#2da409e664)"><g transform="matrix(1, 0, 0, 1, 152, 132)"><g clip-path="url(#2f91b39ac6)"><g clip-path="url(#b8c6801409)"><g clip-path="url(#9cebe6fe08)"><path fill="#000000" d="M 0.5625 0.4375 L 7.636719 1.371094 L 7.296875 3.96875 L 0.21875 3.035156 Z M 0.5625 0.4375 " fill-opacity="1" fill-rule="nonzero"/></g></g></g></g></g></g><g clip-path="url(#dc979841a3)"><g clip-path="url(#3f4f856987)"><g transform="matrix(1, 0, 0, 1, 98, 85)"><g clip-path="url(#ff51585542)"><g clip-path="url(#224a73e5e2)"><g clip-path="url(#92e3386c12)"><path fill="#000000" d="M 5.152344 0.769531 L 6.992188 1.289062 L 2.777344 16.171875 L 0.9375 15.652344 Z M 5.152344 0.769531 " fill-opacity="1" fill-rule="nonzero"/></g></g></g></g></g></g><g clip-path="url(#6dffa21877)"><g clip-path="url(#fbe44cf4cc)"><g transform="matrix(1, 0, 0, 1, 103, 61)"><g clip-path="url(#73cc9d66a9)"><g clip-path="url(#25be91edf9)"><g clip-path="url(#ee126ded4e)"><path fill="#000000" d="M 11.972656 0.324219 L 20.007812 4.414062 L 8.964844 26.105469 L 0.929688 22.011719 Z M 11.972656 0.324219 " fill-opacity="1" fill-rule="nonzero"/></g></g></g></g></g></g><g clip-path="url(#751964926a)"><g clip-path="url(#c9ba29d932)"><g transform="matrix(1, 0, 0, 1, 116, 61)"><g clip-path="url(#48c5373638)"><g clip-path="url(#35c7360efe)"><g clip-path="url(#2627d65718)"><path fill="#000000" d="M 0.59375 2.71875 L 1.964844 0.4375 L 5.246094 2.410156 L 3.875 4.691406 Z M 0.59375 2.71875 " fill-opacity="1" fill-rule="nonzero"/></g></g></g></g></g></g><g clip-path="url(#93f948b77c)"><g clip-path="url(#5081a371b8)"><g transform="matrix(1, 0, 0, 1, 114, 59)"><g clip-path="url(#37f1f1f7f9)"><g clip-path="url(#6b15ce0e5c)"><g clip-path="url(#c69bdb3166)"><path fill="#000000" d="M 0.734375 2.246094 L 2.320312 0.105469 L 5.394531 2.382812 L 3.808594 4.523438 Z M 0.734375 2.246094 " fill-opacity="1" fill-rule="nonzero"/></g></g></g></g></g></g><g clip-path="url(#2eef7cdae0)"><g clip-path="url(#0b968fb6b0)"><g transform="matrix(1, 0, 0, 1, 93, 124)"><g clip-path="url(#4856690213)"><g clip-path="url(#8f84754747)"><g clip-path="url(#ec273294e6)"><path fill="#000000" d="M 1.101562 0.863281 L 52.167969 4.730469 L 51.695312 10.984375 L 0.625 7.121094 Z M 1.101562 0.863281 " fill-opacity="1" fill-rule="nonzero"/></g></g></g></g></g></g><path stroke-linecap="butt" transform="matrix(0.746126, -0.0468582, 0.0468582, 0.746126, 138.764066, 152.774984)" fill="none" stroke-linejoin="miter" d="M 0.14616 3.62475 C 24.066355 0.127203 47.986801 0.126902 71.912714 3.624175 " stroke="#000000" stroke-width="2" stroke-opacity="1" stroke-miterlimit="4"/><path stroke-linecap="butt" transform="matrix(0.741678, 0.0938837, -0.0938837, 0.741678, 86.868674, 147.66191)" fill="none" stroke-linejoin="miter" d="M 0.328441 0.946214 C 24.386928 9.266522 48.455776 9.264012 72.535643 0.943869 " stroke="#000000" stroke-width="2" stroke-opacity="1" stroke-miterlimit="4"/><path stroke-linecap="butt" transform="matrix(0.746126, -0.0468582, 0.0468582, 0.746126, 138.765554, 158.642272)" fill="none" stroke-linejoin="miter" d="M 0.144182 3.624492 C 24.064377 0.126945 47.984823 0.126644 71.910736 3.623917 " stroke="#000000" stroke-width="2" stroke-opacity="1" stroke-miterlimit="4"/><path stroke-linecap="butt" transform="matrix(0.741678, 0.0938837, -0.0938837, 0.741678, 86.870169, 153.529195)" fill="none" stroke-linejoin="miter" d="M 0.32644 0.946336 C 24.384927 9.266644 48.453776 9.264134 72.538826 0.943335 " stroke="#000000" stroke-width="2" stroke-opacity="1" stroke-miterlimit="4"/></svg>