<svg xmlns="http://www.w3.org/2000/svg" xmlns:xlink="http://www.w3.org/1999/xlink" width="254" zoomAndPan="magnify" viewBox="0 0 190.5 156.75" height="209" preserveAspectRatio="xMidYMid meet" version="1.0"><defs><g/><clipPath id="20cd63a904"><rect x="0" width="177" y="0" height="85"/></clipPath><clipPath id="ee3cbfc316"><rect x="0" width="63" y="0" height="26"/></clipPath><clipPath id="147dde13b2"><rect x="0" width="110" y="0" height="21"/></clipPath><clipPath id="664132c04b"><path d="M 58.460938 95.515625 L 114.851562 95.515625 L 114.851562 102.902344 L 58.460938 102.902344 Z M 58.460938 95.515625 " clip-rule="nonzero"/></clipPath><clipPath id="3ff038768d"><path d="M 69.300781 102.902344 L 103.984375 102.902344 L 114.824219 95.515625 L 58.460938 95.515625 Z M 69.300781 102.902344 " clip-rule="nonzero"/></clipPath><clipPath id="373df52b2f"><path d="M 0.460938 0.515625 L 56.851562 0.515625 L 56.851562 7.902344 L 0.460938 7.902344 Z M 0.460938 0.515625 " clip-rule="nonzero"/></clipPath><clipPath id="ad8c5e7dad"><path d="M 11.300781 7.902344 L 45.984375 7.902344 L 56.824219 0.515625 L 0.460938 0.515625 Z M 11.300781 7.902344 " clip-rule="nonzero"/></clipPath><clipPath id="0ead1cdc1b"><rect x="0" width="57" y="0" height="8"/></clipPath><clipPath id="8b5d04507d"><path d="M 63 68 L 108 68 L 108 93 L 63 93 Z M 63 68 " clip-rule="nonzero"/></clipPath><clipPath id="35f7c75ece"><path d="M 66.800781 68.175781 L 107.664062 74.585938 L 104.828125 92.671875 L 63.964844 86.261719 Z M 66.800781 68.175781 " clip-rule="nonzero"/></clipPath><clipPath id="43e6233cd8"><path d="M 0.914062 0.0625 L 44.71875 0.0625 L 44.71875 24.71875 L 0.914062 24.71875 Z M 0.914062 0.0625 " clip-rule="nonzero"/></clipPath><clipPath id="fff704afef"><path d="M 3.800781 0.175781 L 44.664062 6.585938 L 41.828125 24.671875 L 0.964844 18.261719 Z M 3.800781 0.175781 " clip-rule="nonzero"/></clipPath><clipPath id="c5daa17aad"><rect x="0" width="45" y="0" height="25"/></clipPath><clipPath id="c70f20d9ff"><path d="M 102 72 L 109 72 L 109 92 L 102 92 Z M 102 72 " clip-rule="nonzero"/></clipPath><clipPath id="98b03af5d0"><path d="M 102.128906 72.957031 L 107.207031 72.738281 L 108.003906 91.269531 L 102.925781 91.488281 Z M 102.128906 72.957031 " clip-rule="nonzero"/></clipPath><clipPath id="01ada184df"><path d="M 0 0.609375 L 6.195312 0.609375 L 6.195312 19.519531 L 0 19.519531 Z M 0 0.609375 " clip-rule="nonzero"/></clipPath><clipPath id="3149df7675"><path d="M 0.128906 0.957031 L 5.207031 0.738281 L 6.003906 19.269531 L 0.925781 19.488281 Z M 0.128906 0.957031 " clip-rule="nonzero"/></clipPath><clipPath id="013dfe9924"><rect x="0" width="7" y="0" height="20"/></clipPath><clipPath id="acd4f2d646"><path d="M 70 45 L 108 45 L 108 85 L 70 85 Z M 70 45 " clip-rule="nonzero"/></clipPath><clipPath id="913d73f1ee"><path d="M 83.242188 45.183594 L 107.128906 73.542969 L 94.453125 84.21875 L 70.566406 55.859375 Z M 83.242188 45.183594 " clip-rule="nonzero"/></clipPath><clipPath id="c416c6514b"><path d="M 0.375 0.0820312 L 37.238281 0.0820312 L 37.238281 39.339844 L 0.375 39.339844 Z M 0.375 0.0820312 " clip-rule="nonzero"/></clipPath><clipPath id="2fc7b3ff30"><path d="M 13.242188 0.183594 L 37.128906 28.542969 L 24.453125 39.21875 L 0.566406 10.859375 Z M 13.242188 0.183594 " clip-rule="nonzero"/></clipPath><clipPath id="35f42cbbfe"><rect x="0" width="38" y="0" height="40"/></clipPath><clipPath id="f7ee438c0a"><path d="M 67 56 L 87 56 L 87 76 L 67 76 Z M 67 56 " clip-rule="nonzero"/></clipPath><clipPath id="9cd04916de"><path d="M 70.871094 56.464844 L 86.640625 59.75 L 83.261719 75.976562 L 67.492188 72.691406 Z M 70.871094 56.464844 " clip-rule="nonzero"/></clipPath><clipPath id="020c55926e"><path d="M 0.261719 0.332031 L 19.652344 0.332031 L 19.652344 20 L 0.261719 20 Z M 0.261719 0.332031 " clip-rule="nonzero"/></clipPath><clipPath id="4c2c47d4eb"><path d="M 3.871094 0.464844 L 19.640625 3.75 L 16.261719 19.976562 L 0.492188 16.691406 Z M 3.871094 0.464844 " clip-rule="nonzero"/></clipPath><clipPath id="65ae583fa4"><rect x="0" width="20" y="0" height="20"/></clipPath><clipPath id="19a3b6d5b8"><path d="M 103 90 L 109 90 L 109 93 L 103 93 Z M 103 90 " clip-rule="nonzero"/></clipPath><clipPath id="8cb301ea44"><path d="M 103.691406 90.289062 L 108.515625 90.925781 L 108.28125 92.691406 L 103.460938 92.054688 Z M 103.691406 90.289062 " clip-rule="nonzero"/></clipPath><clipPath id="03df117ed4"><path d="M 0.410156 0.0859375 L 5.675781 0.0859375 L 5.675781 2.71875 L 0.410156 2.71875 Z M 0.410156 0.0859375 " clip-rule="nonzero"/></clipPath><clipPath id="75f9bfd2d9"><path d="M 0.691406 0.289062 L 5.515625 0.925781 L 5.28125 2.691406 L 0.460938 2.054688 Z M 0.691406 0.289062 " clip-rule="nonzero"/></clipPath><clipPath id="7fdbc5b44b"><rect x="0" width="6" y="0" height="3"/></clipPath><clipPath id="726a8f81dc"><path d="M 67 58 L 72 58 L 72 69 L 67 69 Z M 67 58 " clip-rule="nonzero"/></clipPath><clipPath id="5b6a4aecd6"><path d="M 70.039062 58.5 L 71.292969 58.855469 L 68.421875 68.992188 L 67.167969 68.636719 Z M 70.039062 58.5 " clip-rule="nonzero"/></clipPath><clipPath id="afef798833"><path d="M 0.0234375 0.488281 L 4.332031 0.488281 L 4.332031 11 L 0.0234375 11 Z M 0.0234375 0.488281 " clip-rule="nonzero"/></clipPath><clipPath id="1a31525b89"><path d="M 3.039062 0.5 L 4.292969 0.855469 L 1.421875 10.992188 L 0.167969 10.636719 Z M 3.039062 0.5 " clip-rule="nonzero"/></clipPath><clipPath id="b289ba1d6a"><rect x="0" width="5" y="0" height="11"/></clipPath><clipPath id="07afa2a2ae"><path d="M 70 41 L 84 41 L 84 60 L 70 60 Z M 70 41 " clip-rule="nonzero"/></clipPath><clipPath id="8b4d8a4108"><path d="M 78.089844 41.847656 L 83.5625 44.636719 L 76.042969 59.40625 L 70.570312 56.617188 Z M 78.089844 41.847656 " clip-rule="nonzero"/></clipPath><clipPath id="124a268263"><path d="M 0.375 0.730469 L 13.78125 0.730469 L 13.78125 18.445312 L 0.375 18.445312 Z M 0.375 0.730469 " clip-rule="nonzero"/></clipPath><clipPath id="9de307eec6"><path d="M 8.089844 0.847656 L 13.5625 3.636719 L 6.042969 18.40625 L 0.570312 15.617188 Z M 8.089844 0.847656 " clip-rule="nonzero"/></clipPath><clipPath id="40e21d0f8f"><rect x="0" width="14" y="0" height="19"/></clipPath><clipPath id="428aec0365"><path d="M 79 41 L 83 41 L 83 45 L 79 45 Z M 79 41 " clip-rule="nonzero"/></clipPath><clipPath id="15c8456903"><path d="M 79.195312 43.484375 L 80.128906 41.933594 L 82.363281 43.277344 L 81.429688 44.832031 Z M 79.195312 43.484375 " clip-rule="nonzero"/></clipPath><clipPath id="07e7105ef5"><path d="M 0 0.730469 L 3.582031 0.730469 L 3.582031 3.84375 L 0 3.84375 Z M 0 0.730469 " clip-rule="nonzero"/></clipPath><clipPath id="e8af13343f"><path d="M 0.195312 2.484375 L 1.128906 0.933594 L 3.363281 2.277344 L 2.429688 3.832031 Z M 0.195312 2.484375 " clip-rule="nonzero"/></clipPath><clipPath id="382a158a30"><rect x="0" width="4" y="0" height="4"/></clipPath><clipPath id="90c6cf532e"><path d="M 77 40 L 82 40 L 82 44 L 77 44 Z M 77 40 " clip-rule="nonzero"/></clipPath><clipPath id="41d072baa3"><path d="M 77.925781 41.800781 L 79.007812 40.34375 L 81.105469 41.894531 L 80.023438 43.351562 Z M 77.925781 41.800781 " clip-rule="nonzero"/></clipPath><clipPath id="5a17b06e53"><path d="M 0.796875 0.296875 L 4.148438 0.296875 L 4.148438 3.40625 L 0.796875 3.40625 Z M 0.796875 0.296875 " clip-rule="nonzero"/></clipPath><clipPath id="87ab042d6c"><path d="M 0.925781 1.800781 L 2.007812 0.34375 L 4.105469 1.894531 L 3.023438 3.351562 Z M 0.925781 1.800781 " clip-rule="nonzero"/></clipPath><clipPath id="cbece7bbff"><rect x="0" width="5" y="0" height="4"/></clipPath><clipPath id="00674fe737"><path d="M 63 85 L 99 85 L 99 93 L 63 93 Z M 63 85 " clip-rule="nonzero"/></clipPath><clipPath id="e18bf92e33"><path d="M 63.875 85.128906 L 98.652344 87.761719 L 98.332031 92.023438 L 63.550781 89.390625 Z M 63.875 85.128906 " clip-rule="nonzero"/></clipPath><clipPath id="ae458f78d3"><path d="M 0.433594 0.0585938 L 35.859375 0.0585938 L 35.859375 7.238281 L 0.433594 7.238281 Z M 0.433594 0.0585938 " clip-rule="nonzero"/></clipPath><clipPath id="d1eefb061b"><path d="M 0.875 0.128906 L 35.652344 2.761719 L 35.332031 7.023438 L 0.550781 4.390625 Z M 0.875 0.128906 " clip-rule="nonzero"/></clipPath><clipPath id="12f917ee79"><rect x="0" width="36" y="0" height="8"/></clipPath></defs><g transform="matrix(1, 0, 0, 1, 6, 7)"><g clip-path="url(#20cd63a904)"><g fill="#ffffff" fill-opacity="1"><g transform="translate(25.029897, 83.17656)"><g><path d="M 1.015625 -5.1875 C 0.773438 -3.695312 0.140625 -2.632812 -0.890625 -2 C -1.921875 -1.375 -3.257812 -1.195312 -4.90625 -1.46875 L -13.671875 -2.890625 C -15.253906 -3.148438 -16.382812 -3.734375 -17.0625 -4.640625 C -17.75 -5.546875 -17.972656 -6.742188 -17.734375 -8.234375 C -17.492188 -9.710938 -16.90625 -10.769531 -15.96875 -11.40625 C -15.039062 -12.050781 -13.785156 -12.242188 -12.203125 -11.984375 L -3.4375 -10.5625 C -1.78125 -10.289062 -0.566406 -9.695312 0.203125 -8.78125 C 0.984375 -7.863281 1.253906 -6.664062 1.015625 -5.1875 Z M -2.359375 -5.734375 C -2.304688 -6.054688 -2.414062 -6.296875 -2.6875 -6.453125 C -2.957031 -6.617188 -3.347656 -6.742188 -3.859375 -6.828125 L -12.859375 -8.296875 C -13.265625 -8.359375 -13.601562 -8.351562 -13.875 -8.28125 C -14.144531 -8.21875 -14.304688 -8.023438 -14.359375 -7.703125 C -14.453125 -7.078125 -14.03125 -6.6875 -13.09375 -6.53125 L -4.125 -5.078125 C -3.59375 -4.992188 -3.175781 -4.992188 -2.875 -5.078125 C -2.582031 -5.160156 -2.410156 -5.378906 -2.359375 -5.734375 Z M -2.359375 -5.734375 "/></g></g></g><g fill="#ffffff" fill-opacity="1"><g transform="translate(26.13924, 74.128011)"><g><path d="M 0.765625 -2.15625 L -17.484375 -6.515625 L -16.265625 -9.953125 L -4.8125 -7 L -15.5625 -11.921875 L -14.40625 -15.1875 L -2.96875 -12.1875 L -13.734375 -17.0625 L -12.484375 -20.5625 L 4.40625 -12.375 L 2.90625 -8.171875 L -5.875 -10.296875 L 2.296875 -6.453125 Z M 0.765625 -2.15625 "/></g></g></g><g fill="#ffffff" fill-opacity="1"><g transform="translate(30.999751, 60.932777)"><g><path d="M 0.40625 -0.71875 L -15.859375 -9.84375 L -12.203125 -16.359375 L -9.0625 -14.59375 L -10.859375 -11.390625 L -7.6875 -9.625 L -5.96875 -12.6875 L -2.90625 -10.96875 L -4.625 -7.90625 L -0.890625 -5.8125 L 1.015625 -9.21875 L 4.171875 -7.4375 Z M 0.40625 -0.71875 "/></g></g></g><g fill="#ffffff" fill-opacity="1"><g transform="translate(34.736348, 54.030288)"><g><path d="M -14.40625 -11.875 L -10.953125 -16.453125 C -10.410156 -17.179688 -9.820312 -17.625 -9.1875 -17.78125 C -8.5625 -17.9375 -7.894531 -17.859375 -7.1875 -17.546875 C -6.488281 -17.242188 -5.675781 -16.738281 -4.75 -16.03125 C -3.90625 -15.40625 -3.328125 -14.800781 -3.015625 -14.21875 C -2.710938 -13.632812 -2.675781 -13.003906 -2.90625 -12.328125 C -2.46875 -12.710938 -1.988281 -12.867188 -1.46875 -12.796875 C -0.957031 -12.722656 -0.398438 -12.457031 0.203125 -12 L 5.8125 -7.71875 L 3.625 -4.796875 L -2.203125 -9.1875 C -2.617188 -9.5 -2.945312 -9.617188 -3.1875 -9.546875 C -3.425781 -9.472656 -3.703125 -9.226562 -4.015625 -8.8125 L 2.78125 -3.6875 L 0.5 -0.65625 Z M -6.078125 -11.484375 C -5.765625 -11.898438 -6.054688 -12.441406 -6.953125 -13.109375 C -7.347656 -13.410156 -7.65625 -13.617188 -7.875 -13.734375 C -8.09375 -13.847656 -8.273438 -13.882812 -8.421875 -13.84375 C -8.566406 -13.8125 -8.703125 -13.707031 -8.828125 -13.53125 L -9.359375 -12.828125 L -6.609375 -10.765625 Z M -6.078125 -11.484375 "/></g></g></g><g fill="#ffffff" fill-opacity="1"><g transform="translate(40.180275, 46.650094)"><g><path d="M 0.234375 -0.234375 L -11.609375 -14.765625 L -7.109375 -19.203125 L 7.28125 -7.203125 L 4.75 -4.703125 L 2.4375 -6.65625 L 0.84375 -5.078125 L 2.8125 -2.78125 Z M -1.046875 -7.390625 L 0.140625 -8.578125 L -7.109375 -14.765625 L -7.234375 -14.625 Z M -1.046875 -7.390625 "/></g></g></g><g fill="#ffffff" fill-opacity="1"><g transform="translate(47.095616, 39.94681)"><g/></g></g><g fill="#ffffff" fill-opacity="1"><g transform="translate(50.292774, 37.184489)"><g><path d="M 4.53125 -2.671875 C 3.101562 -1.765625 1.84375 -1.460938 0.75 -1.765625 C -0.332031 -2.078125 -1.378906 -3.019531 -2.390625 -4.59375 L -3.359375 -6.125 L -0.25 -8.09375 L 1 -6.140625 C 1.488281 -5.359375 1.984375 -5.125 2.484375 -5.4375 C 2.765625 -5.613281 2.90625 -5.820312 2.90625 -6.0625 C 2.914062 -6.300781 2.796875 -6.617188 2.546875 -7.015625 C 2.222656 -7.523438 1.890625 -7.90625 1.546875 -8.15625 C 1.210938 -8.414062 0.878906 -8.597656 0.546875 -8.703125 C 0.210938 -8.816406 -0.34375 -8.953125 -1.125 -9.109375 L -3.34375 -9.609375 C -5.0625 -9.972656 -6.316406 -10.773438 -7.109375 -12.015625 C -7.960938 -13.359375 -8.300781 -14.578125 -8.125 -15.671875 C -7.957031 -16.765625 -7.28125 -17.6875 -6.09375 -18.4375 C -4.675781 -19.34375 -3.414062 -19.617188 -2.3125 -19.265625 C -1.21875 -18.910156 -0.160156 -17.929688 0.859375 -16.328125 L -2.34375 -14.28125 L -3.046875 -15.359375 C -3.179688 -15.566406 -3.34375 -15.691406 -3.53125 -15.734375 C -3.726562 -15.785156 -3.929688 -15.75 -4.140625 -15.625 C -4.390625 -15.46875 -4.53125 -15.28125 -4.5625 -15.0625 C -4.59375 -14.851562 -4.535156 -14.632812 -4.390625 -14.40625 C -4.066406 -13.882812 -3.441406 -13.539062 -2.515625 -13.375 L 0.453125 -12.765625 C 1.148438 -12.628906 1.753906 -12.460938 2.265625 -12.265625 C 2.773438 -12.066406 3.273438 -11.765625 3.765625 -11.359375 C 4.265625 -10.960938 4.738281 -10.414062 5.1875 -9.71875 C 6.164062 -8.164062 6.625 -6.8125 6.5625 -5.65625 C 6.507812 -4.5 5.832031 -3.503906 4.53125 -2.671875 Z M 4.53125 -2.671875 "/></g></g></g><g fill="#ffffff" fill-opacity="1"><g transform="translate(57.698528, 32.352246)"><g><path d="M 4.890625 -2.015625 C 3.515625 -1.390625 2.28125 -1.332031 1.1875 -1.84375 C 0.09375 -2.363281 -0.796875 -3.382812 -1.484375 -4.90625 L -5.125 -13.015625 C -5.789062 -14.472656 -5.929688 -15.734375 -5.546875 -16.796875 C -5.171875 -17.867188 -4.296875 -18.71875 -2.921875 -19.34375 C -1.554688 -19.957031 -0.351562 -20.050781 0.6875 -19.625 C 1.738281 -19.195312 2.597656 -18.253906 3.265625 -16.796875 L 6.90625 -8.6875 C 7.601562 -7.164062 7.78125 -5.828125 7.4375 -4.671875 C 7.101562 -3.515625 6.253906 -2.628906 4.890625 -2.015625 Z M 3.484375 -5.140625 C 3.785156 -5.273438 3.925781 -5.5 3.90625 -5.8125 C 3.894531 -6.125 3.78125 -6.515625 3.5625 -6.984375 L -0.1875 -15.3125 C -0.351562 -15.675781 -0.535156 -15.953125 -0.734375 -16.140625 C -0.941406 -16.328125 -1.195312 -16.351562 -1.5 -16.21875 C -2.070312 -15.96875 -2.164062 -15.410156 -1.78125 -14.546875 L 1.953125 -6.25 C 2.179688 -5.757812 2.410156 -5.414062 2.640625 -5.21875 C 2.878906 -5.019531 3.160156 -4.992188 3.484375 -5.140625 Z M 3.484375 -5.140625 "/></g></g></g><g fill="#ffffff" fill-opacity="1"><g transform="translate(66.313698, 28.458885)"><g><path d="M 0.796875 -0.234375 L -4.53125 -18.109375 L 2.625 -20.25 L 3.65625 -16.78125 L 0.09375 -15.71875 L 0.953125 -12.859375 L 4.3125 -13.859375 L 5.328125 -10.421875 L 1.96875 -9.421875 L 4.390625 -1.3125 Z M 0.796875 -0.234375 "/></g></g></g><g fill="#ffffff" fill-opacity="1"><g transform="translate(73.653819, 26.210051)"><g><path d="M 2.40625 -0.40625 L -0.140625 -15.265625 L -2.328125 -14.890625 L -2.9375 -18.421875 L 5.109375 -19.8125 L 5.71875 -16.28125 L 3.53125 -15.90625 L 6.078125 -1.046875 Z M 2.40625 -0.40625 "/></g></g></g><g fill="#ffffff" fill-opacity="1"><g transform="translate(80.744725, 24.588418)"><g><path d="M 2.28125 0 L 0.234375 -18.65625 L 3.890625 -18.671875 L 4.953125 -6.90625 L 5.96875 -18.671875 L 9.4375 -18.671875 L 10.46875 -6.921875 L 11.4375 -18.6875 L 15.140625 -18.6875 L 13.140625 -0.03125 L 8.671875 -0.015625 L 7.71875 -9 L 6.84375 -0.015625 Z M 2.28125 0 "/></g></g></g><g fill="#ffffff" fill-opacity="1"><g transform="translate(94.724462, 24.643063)"><g><path d="M 0.328125 0.0625 L 5.40625 -17.984375 L 11.625 -16.859375 L 10.078125 1.8125 L 6.578125 1.1875 L 6.84375 -1.828125 L 4.640625 -2.234375 L 3.890625 0.703125 Z M 5.4375 -5.109375 L 7.109375 -4.8125 L 8 -14.296875 L 7.8125 -14.328125 Z M 5.4375 -5.109375 "/></g></g></g><g fill="#ffffff" fill-opacity="1"><g transform="translate(103.934456, 26.220874)"><g><path d="M 6.71875 -17.421875 L 12.15625 -15.59375 C 13.019531 -15.3125 13.625 -14.894531 13.96875 -14.34375 C 14.3125 -13.789062 14.445312 -13.132812 14.375 -12.375 C 14.300781 -11.613281 14.078125 -10.675781 13.703125 -9.5625 C 13.367188 -8.570312 12.976562 -7.835938 12.53125 -7.359375 C 12.082031 -6.890625 11.492188 -6.65625 10.765625 -6.65625 C 11.273438 -6.363281 11.578125 -5.960938 11.671875 -5.453125 C 11.765625 -4.953125 11.691406 -4.34375 11.453125 -3.625 L 9.171875 3.078125 L 5.703125 1.90625 L 8.015625 -5.015625 C 8.179688 -5.503906 8.191406 -5.847656 8.046875 -6.046875 C 7.898438 -6.253906 7.578125 -6.441406 7.078125 -6.609375 L 4.375 1.46875 L 0.78125 0.265625 Z M 8.96875 -9.390625 C 9.457031 -9.222656 9.878906 -9.671875 10.234375 -10.734375 C 10.398438 -11.210938 10.503906 -11.570312 10.546875 -11.8125 C 10.585938 -12.050781 10.566406 -12.234375 10.484375 -12.359375 C 10.398438 -12.492188 10.253906 -12.597656 10.046875 -12.671875 L 9.21875 -12.953125 L 8.125 -9.671875 Z M 8.96875 -9.390625 "/></g></g></g><g fill="#ffffff" fill-opacity="1"><g transform="translate(112.717253, 29.138862)"><g><path d="M 0.75 0.359375 L 9 -16.375 L 15.6875 -13.0625 L 14.09375 -9.828125 L 10.8125 -11.453125 L 9.203125 -8.203125 L 12.34375 -6.65625 L 10.796875 -3.5 L 7.65625 -5.046875 L 5.765625 -1.203125 L 9.265625 0.515625 L 7.65625 3.765625 Z M 0.75 0.359375 "/></g></g></g><g fill="#ffffff" fill-opacity="1"><g transform="translate(119.991816, 32.784118)"><g/></g></g><g fill="#ffffff" fill-opacity="1"><g transform="translate(123.671901, 34.860595)"><g><path d="M 4.03125 3.359375 C 2.695312 2.328125 1.988281 1.25 1.90625 0.125 C 1.832031 -1 2.367188 -2.300781 3.515625 -3.78125 L 4.640625 -5.21875 L 7.546875 -2.96875 L 6.109375 -1.140625 C 5.546875 -0.398438 5.5 0.148438 5.96875 0.515625 C 6.226562 0.722656 6.46875 0.785156 6.6875 0.703125 C 6.914062 0.628906 7.171875 0.40625 7.453125 0.03125 C 7.828125 -0.445312 8.078125 -0.882812 8.203125 -1.28125 C 8.328125 -1.6875 8.382812 -2.066406 8.375 -2.421875 C 8.363281 -2.773438 8.304688 -3.34375 8.203125 -4.125 L 7.921875 -6.40625 C 7.679688 -8.125 8.007812 -9.566406 8.90625 -10.734375 C 9.882812 -11.984375 10.914062 -12.710938 12 -12.921875 C 13.09375 -13.140625 14.191406 -12.820312 15.296875 -11.96875 C 16.628906 -10.925781 17.3125 -9.828125 17.34375 -8.671875 C 17.375 -7.523438 16.8125 -6.203125 15.65625 -4.703125 L 12.65625 -7.03125 L 13.4375 -8.046875 C 13.59375 -8.242188 13.65625 -8.441406 13.625 -8.640625 C 13.601562 -8.847656 13.5 -9.023438 13.3125 -9.171875 C 13.082031 -9.347656 12.859375 -9.414062 12.640625 -9.375 C 12.429688 -9.332031 12.242188 -9.207031 12.078125 -9 C 11.703125 -8.507812 11.59375 -7.796875 11.75 -6.859375 L 12.171875 -3.875 C 12.273438 -3.175781 12.316406 -2.550781 12.296875 -2 C 12.285156 -1.445312 12.175781 -0.867188 11.96875 -0.265625 C 11.769531 0.328125 11.414062 0.953125 10.90625 1.609375 C 9.78125 3.054688 8.660156 3.945312 7.546875 4.28125 C 6.429688 4.613281 5.257812 4.304688 4.03125 3.359375 Z M 4.03125 3.359375 "/></g></g></g><g fill="#ffffff" fill-opacity="1"><g transform="translate(130.723124, 40.218509)"><g><path d="M 3.453125 3.8125 C 2.390625 2.71875 1.910156 1.597656 2.015625 0.453125 C 2.117188 -0.691406 2.785156 -1.859375 4.015625 -3.046875 L 13.828125 -12.546875 L 16.359375 -9.9375 L 6.640625 -0.53125 C 6.210938 -0.113281 5.914062 0.242188 5.75 0.546875 C 5.59375 0.859375 5.644531 1.148438 5.90625 1.421875 C 6.175781 1.703125 6.46875 1.769531 6.78125 1.625 C 7.101562 1.476562 7.476562 1.195312 7.90625 0.78125 L 17.625 -8.625 L 20.140625 -6.03125 L 10.328125 3.46875 C 9.097656 4.65625 7.910156 5.285156 6.765625 5.359375 C 5.628906 5.441406 4.523438 4.925781 3.453125 3.8125 Z M 3.453125 3.8125 "/></g></g></g><g fill="#ffffff" fill-opacity="1"><g transform="translate(137.129429, 46.717006)"><g><path d="M 15.59375 -10.265625 L 18.484375 -6.28125 C 19.359375 -5.0625 19.59375 -3.910156 19.1875 -2.828125 C 18.78125 -1.753906 17.828125 -0.671875 16.328125 0.421875 C 14.828125 1.503906 13.53125 2.085938 12.4375 2.171875 C 11.34375 2.265625 10.367188 1.722656 9.515625 0.546875 L 8.625 -0.6875 L 2.640625 3.640625 L 0.484375 0.671875 Z M 11.46875 -2.46875 C 11.726562 -2.113281 11.988281 -1.898438 12.25 -1.828125 C 12.507812 -1.753906 12.785156 -1.78125 13.078125 -1.90625 C 13.367188 -2.039062 13.742188 -2.28125 14.203125 -2.625 C 14.835938 -3.082031 15.242188 -3.484375 15.421875 -3.828125 C 15.597656 -4.171875 15.535156 -4.554688 15.234375 -4.984375 L 15 -5.3125 L 11.34375 -2.65625 Z M 11.46875 -2.46875 "/></g></g></g><g fill="#ffffff" fill-opacity="1"><g transform="translate(142.52277, 54.026342)"><g><path d="M 16.90625 -7.953125 L 19.1875 -3.59375 C 19.882812 -2.269531 19.953125 -1.097656 19.390625 -0.078125 C 18.835938 0.929688 17.742188 1.863281 16.109375 2.71875 C 14.460938 3.582031 13.09375 3.984375 12 3.921875 C 10.90625 3.859375 10.019531 3.179688 9.34375 1.890625 L 8.640625 0.546875 L 2.09375 3.984375 L 0.390625 0.734375 Z M 11.71875 -0.828125 C 11.925781 -0.429688 12.148438 -0.175781 12.390625 -0.0625 C 12.628906 0.0390625 12.898438 0.0507812 13.203125 -0.03125 C 13.515625 -0.125 13.925781 -0.304688 14.4375 -0.578125 C 15.125 -0.929688 15.582031 -1.269531 15.8125 -1.59375 C 16.039062 -1.914062 16.035156 -2.304688 15.796875 -2.765625 L 15.609375 -3.125 L 11.609375 -1.015625 Z M 11.71875 -0.828125 "/></g></g></g><g fill="#ffffff" fill-opacity="1"><g transform="translate(146.804607, 62.135873)"><g><path d="M 0.28125 0.78125 L 17.78125 -5.65625 L 19.078125 -2.15625 L 4.546875 3.1875 L 5.875 6.796875 L 2.90625 7.890625 Z M 0.28125 0.78125 "/></g></g></g><g fill="#ffffff" fill-opacity="1"><g transform="translate(149.517482, 69.210899)"><g><path d="M 0.6875 3 L 6.671875 1.625 L 18.21875 -4.0625 L 19.03125 -0.46875 L 13.109375 1.953125 L 19.5 1.5625 L 20.328125 5.15625 L 7.46875 5.0625 L 1.484375 6.4375 Z M 0.6875 3 "/></g></g></g><g fill="#ffffff" fill-opacity="1"><g transform="translate(151.418787, 77.837191)"><g/></g></g></g></g><g transform="matrix(1, 0, 0, 1, 64, 126)"><g clip-path="url(#ee3cbfc316)"><g fill="#ffffff" fill-opacity="1"><g transform="translate(1.165571, 19.330543)"><g><path d="M 0.625 0 L 0.625 -14 L 6.21875 -14 L 6.21875 -11.296875 L 3.46875 -11.296875 L 3.46875 -8.578125 L 6.109375 -8.578125 L 6.109375 -5.9375 L 3.46875 -5.9375 L 3.46875 -2.71875 L 6.40625 -2.71875 L 6.40625 0 Z M 0.625 0 "/></g></g></g><g fill="#ffffff" fill-opacity="1"><g transform="translate(7.875681, 19.330543)"><g><path d="M 3.9375 0.125 C 2.664062 0.125 1.75 -0.1875 1.1875 -0.8125 C 0.625 -1.445312 0.34375 -2.460938 0.34375 -3.859375 L 0.34375 -5.234375 L 3.09375 -5.234375 L 3.09375 -3.484375 C 3.09375 -2.785156 3.316406 -2.4375 3.765625 -2.4375 C 4.015625 -2.4375 4.1875 -2.507812 4.28125 -2.65625 C 4.382812 -2.8125 4.4375 -3.0625 4.4375 -3.40625 C 4.4375 -3.863281 4.378906 -4.238281 4.265625 -4.53125 C 4.160156 -4.832031 4.023438 -5.082031 3.859375 -5.28125 C 3.691406 -5.488281 3.390625 -5.800781 2.953125 -6.21875 L 1.75 -7.4375 C 0.8125 -8.34375 0.34375 -9.351562 0.34375 -10.46875 C 0.34375 -11.65625 0.613281 -12.5625 1.15625 -13.1875 C 1.707031 -13.8125 2.507812 -14.125 3.5625 -14.125 C 4.820312 -14.125 5.726562 -13.789062 6.28125 -13.125 C 6.84375 -12.457031 7.125 -11.410156 7.125 -9.984375 L 4.265625 -9.984375 L 4.25 -10.953125 C 4.25 -11.140625 4.195312 -11.285156 4.09375 -11.390625 C 3.988281 -11.492188 3.847656 -11.546875 3.671875 -11.546875 C 3.453125 -11.546875 3.285156 -11.488281 3.171875 -11.375 C 3.066406 -11.257812 3.015625 -11.097656 3.015625 -10.890625 C 3.015625 -10.429688 3.273438 -9.957031 3.796875 -9.46875 L 5.421875 -7.90625 C 5.804688 -7.53125 6.125 -7.175781 6.375 -6.84375 C 6.625 -6.519531 6.820312 -6.128906 6.96875 -5.671875 C 7.125 -5.222656 7.203125 -4.691406 7.203125 -4.078125 C 7.203125 -2.691406 6.945312 -1.644531 6.4375 -0.9375 C 5.9375 -0.226562 5.101562 0.125 3.9375 0.125 Z M 3.9375 0.125 "/></g></g></g><g fill="#ffffff" fill-opacity="1"><g transform="translate(15.383836, 19.330543)"><g><path d="M 1.828125 0 L 1.828125 -11.3125 L 0.15625 -11.3125 L 0.15625 -14 L 6.296875 -14 L 6.296875 -11.3125 L 4.625 -11.3125 L 4.625 0 Z M 1.828125 0 "/></g></g></g><g fill="#ffffff" fill-opacity="1"><g transform="translate(21.83336, 19.330543)"><g><path d="M 0.4375 0 L 0.4375 -2.375 L 3.296875 -2.375 L 3.296875 0 Z M 0.4375 0 "/></g></g></g><g fill="#ffffff" fill-opacity="1"><g transform="translate(25.563009, 19.330543)"><g/></g></g><g fill="#ffffff" fill-opacity="1"><g transform="translate(29.374087, 19.330543)"><g><path d="M 0.484375 -0.671875 C 0.484375 -1.304688 0.582031 -1.894531 0.78125 -2.4375 C 0.988281 -2.988281 1.238281 -3.476562 1.53125 -3.90625 C 1.820312 -4.34375 2.207031 -4.851562 2.6875 -5.4375 C 3.175781 -6.050781 3.5625 -6.566406 3.84375 -6.984375 C 4.132812 -7.410156 4.378906 -7.894531 4.578125 -8.4375 C 4.785156 -8.988281 4.890625 -9.585938 4.890625 -10.234375 C 4.890625 -10.617188 4.832031 -10.914062 4.71875 -11.125 C 4.613281 -11.332031 4.421875 -11.4375 4.140625 -11.4375 C 3.671875 -11.4375 3.4375 -11.019531 3.4375 -10.1875 L 3.4375 -8.46875 L 0.484375 -8.46875 L 0.453125 -9.34375 C 0.453125 -10.40625 0.5625 -11.273438 0.78125 -11.953125 C 1 -12.640625 1.378906 -13.160156 1.921875 -13.515625 C 2.460938 -13.878906 3.210938 -14.0625 4.171875 -14.0625 C 5.347656 -14.0625 6.253906 -13.734375 6.890625 -13.078125 C 7.535156 -12.421875 7.859375 -11.488281 7.859375 -10.28125 C 7.859375 -9.507812 7.75 -8.8125 7.53125 -8.1875 C 7.320312 -7.5625 7.0625 -7.015625 6.75 -6.546875 C 6.445312 -6.078125 6.039062 -5.53125 5.53125 -4.90625 C 5.15625 -4.457031 4.84375 -4.054688 4.59375 -3.703125 C 4.351562 -3.359375 4.132812 -3.003906 3.9375 -2.640625 L 7.75 -2.640625 L 7.75 0 L 0.484375 0 Z M 0.484375 -0.671875 "/></g></g></g><g fill="#ffffff" fill-opacity="1"><g transform="translate(37.419701, 19.330543)"><g><path d="M 4.03125 0.125 C 2.84375 0.125 1.925781 -0.207031 1.28125 -0.875 C 0.644531 -1.539062 0.328125 -2.492188 0.328125 -3.734375 L 0.328125 -10.0625 C 0.328125 -11.382812 0.632812 -12.390625 1.25 -13.078125 C 1.875 -13.773438 2.800781 -14.125 4.03125 -14.125 C 5.269531 -14.125 6.195312 -13.773438 6.8125 -13.078125 C 7.425781 -12.390625 7.734375 -11.382812 7.734375 -10.0625 L 7.734375 -3.734375 C 7.734375 -2.484375 7.410156 -1.523438 6.765625 -0.859375 C 6.128906 -0.203125 5.21875 0.125 4.03125 0.125 Z M 4.03125 -2.4375 C 4.226562 -2.4375 4.390625 -2.53125 4.515625 -2.71875 C 4.648438 -2.914062 4.71875 -3.144531 4.71875 -3.40625 L 4.71875 -10.3125 C 4.71875 -10.71875 4.671875 -11.023438 4.578125 -11.234375 C 4.492188 -11.441406 4.3125 -11.546875 4.03125 -11.546875 C 3.75 -11.546875 3.5625 -11.441406 3.46875 -11.234375 C 3.382812 -11.023438 3.34375 -10.71875 3.34375 -10.3125 L 3.34375 -3.40625 C 3.34375 -3.144531 3.40625 -2.914062 3.53125 -2.71875 C 3.65625 -2.53125 3.820312 -2.4375 4.03125 -2.4375 Z M 4.03125 -2.4375 "/></g></g></g><g fill="#ffffff" fill-opacity="1"><g transform="translate(45.465316, 19.330543)"><g><path d="M 0.484375 -0.671875 C 0.484375 -1.304688 0.582031 -1.894531 0.78125 -2.4375 C 0.988281 -2.988281 1.238281 -3.476562 1.53125 -3.90625 C 1.820312 -4.34375 2.207031 -4.851562 2.6875 -5.4375 C 3.175781 -6.050781 3.5625 -6.566406 3.84375 -6.984375 C 4.132812 -7.410156 4.378906 -7.894531 4.578125 -8.4375 C 4.785156 -8.988281 4.890625 -9.585938 4.890625 -10.234375 C 4.890625 -10.617188 4.832031 -10.914062 4.71875 -11.125 C 4.613281 -11.332031 4.421875 -11.4375 4.140625 -11.4375 C 3.671875 -11.4375 3.4375 -11.019531 3.4375 -10.1875 L 3.4375 -8.46875 L 0.484375 -8.46875 L 0.453125 -9.34375 C 0.453125 -10.40625 0.5625 -11.273438 0.78125 -11.953125 C 1 -12.640625 1.378906 -13.160156 1.921875 -13.515625 C 2.460938 -13.878906 3.210938 -14.0625 4.171875 -14.0625 C 5.347656 -14.0625 6.253906 -13.734375 6.890625 -13.078125 C 7.535156 -12.421875 7.859375 -11.488281 7.859375 -10.28125 C 7.859375 -9.507812 7.75 -8.8125 7.53125 -8.1875 C 7.320312 -7.5625 7.0625 -7.015625 6.75 -6.546875 C 6.445312 -6.078125 6.039062 -5.53125 5.53125 -4.90625 C 5.15625 -4.457031 4.84375 -4.054688 4.59375 -3.703125 C 4.351562 -3.359375 4.132812 -3.003906 3.9375 -2.640625 L 7.75 -2.640625 L 7.75 0 L 0.484375 0 Z M 0.484375 -0.671875 "/></g></g></g><g fill="#ffffff" fill-opacity="1"><g transform="translate(53.51093, 19.330543)"><g><path d="M 4.03125 0.203125 C 2.90625 0.203125 2.007812 -0.0703125 1.34375 -0.625 C 0.6875 -1.175781 0.359375 -1.988281 0.359375 -3.0625 L 0.359375 -5.140625 L 3.28125 -5.140625 L 3.28125 -3.9375 C 3.28125 -3.46875 3.328125 -3.09375 3.421875 -2.8125 C 3.515625 -2.539062 3.71875 -2.40625 4.03125 -2.40625 C 4.3125 -2.40625 4.503906 -2.5 4.609375 -2.6875 C 4.710938 -2.875 4.765625 -3.144531 4.765625 -3.5 L 4.765625 -6.265625 C 4.765625 -6.703125 4.71875 -7.050781 4.625 -7.3125 C 4.53125 -7.582031 4.335938 -7.71875 4.046875 -7.71875 C 3.515625 -7.71875 3.25 -7.332031 3.25 -6.5625 L 0.6875 -6.5625 L 0.6875 -14.015625 L 7.34375 -14.015625 L 7.34375 -11.390625 L 3.34375 -11.390625 L 3.34375 -9.421875 C 3.476562 -9.609375 3.664062 -9.757812 3.90625 -9.875 C 4.144531 -10 4.414062 -10.0625 4.71875 -10.0625 C 5.894531 -10.0625 6.695312 -9.644531 7.125 -8.8125 C 7.5625 -7.988281 7.78125 -6.820312 7.78125 -5.3125 C 7.78125 -4.0625 7.6875 -3.046875 7.5 -2.265625 C 7.320312 -1.492188 6.960938 -0.890625 6.421875 -0.453125 C 5.878906 -0.015625 5.082031 0.203125 4.03125 0.203125 Z M 4.03125 0.203125 "/></g></g></g></g></g><g transform="matrix(1, 0, 0, 1, 40, 111)"><g clip-path="url(#147dde13b2)"><g fill="#ffffff" fill-opacity="1"><g transform="translate(0.865443, 15.754372)"><g><path d="M 3.234375 0.109375 C 2.378906 0.109375 1.695312 -0.15625 1.1875 -0.6875 C 0.675781 -1.226562 0.421875 -1.960938 0.421875 -2.890625 L 0.421875 -8.265625 C 0.421875 -9.421875 0.648438 -10.289062 1.109375 -10.875 C 1.578125 -11.46875 2.300781 -11.765625 3.28125 -11.765625 C 4.144531 -11.765625 4.835938 -11.53125 5.359375 -11.0625 C 5.890625 -10.59375 6.15625 -9.914062 6.15625 -9.03125 L 6.15625 -7.015625 L 3.828125 -7.015625 L 3.828125 -8.75 C 3.828125 -9.082031 3.785156 -9.3125 3.703125 -9.4375 C 3.617188 -9.5625 3.476562 -9.625 3.28125 -9.625 C 3.070312 -9.625 2.929688 -9.550781 2.859375 -9.40625 C 2.785156 -9.257812 2.75 -9.046875 2.75 -8.765625 L 2.75 -2.921875 C 2.75 -2.609375 2.789062 -2.378906 2.875 -2.234375 C 2.96875 -2.097656 3.101562 -2.03125 3.28125 -2.03125 C 3.644531 -2.03125 3.828125 -2.328125 3.828125 -2.921875 L 3.828125 -5.03125 L 6.171875 -5.03125 L 6.171875 -2.828125 C 6.171875 -0.867188 5.191406 0.109375 3.234375 0.109375 Z M 3.234375 0.109375 "/></g></g></g><g fill="#ffffff" fill-opacity="1"><g transform="translate(7.299286, 15.754372)"><g><path d="M 2.28125 0.109375 C 1.507812 0.109375 0.976562 -0.144531 0.6875 -0.65625 C 0.40625 -1.164062 0.265625 -1.894531 0.265625 -2.84375 C 0.265625 -3.625 0.363281 -4.222656 0.5625 -4.640625 C 0.769531 -5.054688 1.054688 -5.363281 1.421875 -5.5625 C 1.785156 -5.757812 2.335938 -5.972656 3.078125 -6.203125 L 3.734375 -6.421875 L 3.734375 -7.4375 C 3.734375 -7.695312 3.679688 -7.894531 3.578125 -8.03125 C 3.472656 -8.175781 3.347656 -8.25 3.203125 -8.25 C 3.078125 -8.25 2.96875 -8.191406 2.875 -8.078125 C 2.78125 -7.960938 2.734375 -7.804688 2.734375 -7.609375 L 2.734375 -7 L 0.421875 -7 L 0.421875 -7.328125 C 0.421875 -8.304688 0.648438 -9.003906 1.109375 -9.421875 C 1.566406 -9.835938 2.3125 -10.046875 3.34375 -10.046875 C 4.164062 -10.046875 4.832031 -9.832031 5.34375 -9.40625 C 5.863281 -8.976562 6.125 -8.367188 6.125 -7.578125 L 6.125 0 L 3.765625 0 L 3.765625 -1.1875 C 3.640625 -0.769531 3.445312 -0.445312 3.1875 -0.21875 C 2.9375 0 2.632812 0.109375 2.28125 0.109375 Z M 3.21875 -1.734375 C 3.394531 -1.734375 3.519531 -1.804688 3.59375 -1.953125 C 3.675781 -2.109375 3.71875 -2.296875 3.71875 -2.515625 L 3.71875 -5.28125 C 3.363281 -5.144531 3.101562 -4.972656 2.9375 -4.765625 C 2.769531 -4.554688 2.6875 -4.265625 2.6875 -3.890625 L 2.6875 -2.625 C 2.6875 -2.03125 2.863281 -1.734375 3.21875 -1.734375 Z M 3.21875 -1.734375 "/></g></g></g><g fill="#ffffff" fill-opacity="1"><g transform="translate(13.855296, 15.754372)"><g><path d="M 0.1875 0 L 0.1875 -1.453125 L 2.65625 -8.0625 L 0.296875 -8.0625 L 0.296875 -9.9375 L 5.125 -9.9375 L 5.125 -8.328125 L 2.78125 -1.78125 L 5.140625 -1.78125 L 5.140625 0 Z M 0.1875 0 "/></g></g></g><g fill="#ffffff" fill-opacity="1"><g transform="translate(19.094674, 15.754372)"><g><path d="M 3.265625 0.109375 C 2.234375 0.109375 1.492188 -0.171875 1.046875 -0.734375 C 0.609375 -1.296875 0.390625 -2.132812 0.390625 -3.25 L 0.390625 -7.234375 C 0.390625 -8.148438 0.648438 -8.847656 1.171875 -9.328125 C 1.703125 -9.804688 2.4375 -10.046875 3.375 -10.046875 C 5.289062 -10.046875 6.25 -9.109375 6.25 -7.234375 L 6.25 -6.515625 C 6.25 -5.796875 6.238281 -5.207031 6.21875 -4.75 L 2.765625 -4.75 L 2.765625 -2.828125 C 2.765625 -2.484375 2.800781 -2.210938 2.875 -2.015625 C 2.945312 -1.816406 3.101562 -1.71875 3.34375 -1.71875 C 3.519531 -1.71875 3.644531 -1.769531 3.71875 -1.875 C 3.800781 -1.988281 3.847656 -2.113281 3.859375 -2.25 C 3.878906 -2.394531 3.890625 -2.601562 3.890625 -2.875 L 3.890625 -3.84375 L 6.25 -3.84375 L 6.25 -3.265625 C 6.25 -2.109375 6.023438 -1.253906 5.578125 -0.703125 C 5.128906 -0.160156 4.359375 0.109375 3.265625 0.109375 Z M 3.890625 -5.9375 L 3.890625 -7.203125 C 3.890625 -7.921875 3.710938 -8.28125 3.359375 -8.28125 C 2.953125 -8.28125 2.75 -7.921875 2.75 -7.203125 L 2.75 -5.9375 Z M 3.890625 -5.9375 "/></g></g></g><g fill="#ffffff" fill-opacity="1"><g transform="translate(25.718554, 15.754372)"><g><path d="M 0.46875 -9.9375 L 2.84375 -9.9375 L 2.84375 -8.671875 C 2.945312 -9.078125 3.117188 -9.40625 3.359375 -9.65625 C 3.609375 -9.914062 3.9375 -10.046875 4.34375 -10.046875 C 5.007812 -10.046875 5.503906 -9.835938 5.828125 -9.421875 C 6.148438 -9.015625 6.3125 -8.429688 6.3125 -7.671875 L 6.3125 0 L 3.984375 0 L 3.984375 -7.421875 C 3.984375 -7.640625 3.9375 -7.828125 3.84375 -7.984375 C 3.757812 -8.140625 3.628906 -8.21875 3.453125 -8.21875 C 3.203125 -8.21875 3.035156 -8.101562 2.953125 -7.875 C 2.878906 -7.65625 2.84375 -7.363281 2.84375 -7 L 2.84375 0 L 0.46875 0 Z M 0.46875 -9.9375 "/></g></g></g><g fill="#ffffff" fill-opacity="1"><g transform="translate(32.49174, 15.754372)"><g><path d="M 3.375 0.109375 C 1.382812 0.109375 0.390625 -0.914062 0.390625 -2.96875 L 0.390625 -6.96875 C 0.390625 -7.90625 0.65625 -8.648438 1.1875 -9.203125 C 1.71875 -9.765625 2.445312 -10.046875 3.375 -10.046875 C 4.289062 -10.046875 5.015625 -9.765625 5.546875 -9.203125 C 6.078125 -8.648438 6.34375 -7.90625 6.34375 -6.96875 L 6.34375 -2.96875 C 6.34375 -0.914062 5.351562 0.109375 3.375 0.109375 Z M 3.375 -1.71875 C 3.5625 -1.71875 3.695312 -1.785156 3.78125 -1.921875 C 3.875 -2.054688 3.921875 -2.242188 3.921875 -2.484375 L 3.921875 -7.34375 C 3.921875 -7.925781 3.738281 -8.21875 3.375 -8.21875 C 3 -8.21875 2.8125 -7.925781 2.8125 -7.34375 L 2.8125 -2.484375 C 2.8125 -2.242188 2.851562 -2.054688 2.9375 -1.921875 C 3.03125 -1.785156 3.175781 -1.71875 3.375 -1.71875 Z M 3.375 -1.71875 "/></g></g></g><g fill="#ffffff" fill-opacity="1"><g transform="translate(39.237777, 15.754372)"><g><path d="M 1.734375 0 L 0.15625 -9.9375 L 2.53125 -9.9375 L 3.015625 -4.921875 L 3.09375 -3.296875 L 3.1875 -4.921875 L 3.734375 -9.9375 L 6.109375 -9.9375 L 4.5 0 Z M 1.734375 0 "/></g></g></g><g fill="#ffffff" fill-opacity="1"><g transform="translate(45.495167, 15.754372)"><g><path d="M 0.46875 -10.609375 L 0.46875 -12.265625 L 2.84375 -12.265625 L 2.84375 -10.609375 Z M 0.46875 0 L 0.46875 -9.9375 L 2.84375 -9.9375 L 2.84375 0 Z M 0.46875 0 "/></g></g></g><g fill="#ffffff" fill-opacity="1"><g transform="translate(48.793533, 15.754372)"><g><path d="M 2.28125 0.109375 C 1.507812 0.109375 0.976562 -0.144531 0.6875 -0.65625 C 0.40625 -1.164062 0.265625 -1.894531 0.265625 -2.84375 C 0.265625 -3.625 0.363281 -4.222656 0.5625 -4.640625 C 0.769531 -5.054688 1.054688 -5.363281 1.421875 -5.5625 C 1.785156 -5.757812 2.335938 -5.972656 3.078125 -6.203125 L 3.734375 -6.421875 L 3.734375 -7.4375 C 3.734375 -7.695312 3.679688 -7.894531 3.578125 -8.03125 C 3.472656 -8.175781 3.347656 -8.25 3.203125 -8.25 C 3.078125 -8.25 2.96875 -8.191406 2.875 -8.078125 C 2.78125 -7.960938 2.734375 -7.804688 2.734375 -7.609375 L 2.734375 -7 L 0.421875 -7 L 0.421875 -7.328125 C 0.421875 -8.304688 0.648438 -9.003906 1.109375 -9.421875 C 1.566406 -9.835938 2.3125 -10.046875 3.34375 -10.046875 C 4.164062 -10.046875 4.832031 -9.832031 5.34375 -9.40625 C 5.863281 -8.976562 6.125 -8.367188 6.125 -7.578125 L 6.125 0 L 3.765625 0 L 3.765625 -1.1875 C 3.640625 -0.769531 3.445312 -0.445312 3.1875 -0.21875 C 2.9375 0 2.632812 0.109375 2.28125 0.109375 Z M 3.21875 -1.734375 C 3.394531 -1.734375 3.519531 -1.804688 3.59375 -1.953125 C 3.675781 -2.109375 3.71875 -2.296875 3.71875 -2.515625 L 3.71875 -5.28125 C 3.363281 -5.144531 3.101562 -4.972656 2.9375 -4.765625 C 2.769531 -4.554688 2.6875 -4.265625 2.6875 -3.890625 L 2.6875 -2.625 C 2.6875 -2.03125 2.863281 -1.734375 3.21875 -1.734375 Z M 3.21875 -1.734375 "/></g></g></g><g fill="#ffffff" fill-opacity="1"><g transform="translate(55.349542, 15.754372)"><g/></g></g><g fill="#ffffff" fill-opacity="1"><g transform="translate(58.525742, 15.754372)"><g><path d="M 0.515625 0 L 0.515625 -11.65625 L 2.921875 -11.65625 L 3.984375 -6.078125 L 3.984375 -11.65625 L 6.25 -11.65625 L 6.25 0 L 3.96875 0 L 2.796875 -5.84375 L 2.796875 0 Z M 0.515625 0 "/></g></g></g><g fill="#ffffff" fill-opacity="1"><g transform="translate(65.285354, 15.754372)"><g><path d="M 3.265625 0.109375 C 2.234375 0.109375 1.492188 -0.171875 1.046875 -0.734375 C 0.609375 -1.296875 0.390625 -2.132812 0.390625 -3.25 L 0.390625 -7.234375 C 0.390625 -8.148438 0.648438 -8.847656 1.171875 -9.328125 C 1.703125 -9.804688 2.4375 -10.046875 3.375 -10.046875 C 5.289062 -10.046875 6.25 -9.109375 6.25 -7.234375 L 6.25 -6.515625 C 6.25 -5.796875 6.238281 -5.207031 6.21875 -4.75 L 2.765625 -4.75 L 2.765625 -2.828125 C 2.765625 -2.484375 2.800781 -2.210938 2.875 -2.015625 C 2.945312 -1.816406 3.101562 -1.71875 3.34375 -1.71875 C 3.519531 -1.71875 3.644531 -1.769531 3.71875 -1.875 C 3.800781 -1.988281 3.847656 -2.113281 3.859375 -2.25 C 3.878906 -2.394531 3.890625 -2.601562 3.890625 -2.875 L 3.890625 -3.84375 L 6.25 -3.84375 L 6.25 -3.265625 C 6.25 -2.109375 6.023438 -1.253906 5.578125 -0.703125 C 5.128906 -0.160156 4.359375 0.109375 3.265625 0.109375 Z M 3.890625 -5.9375 L 3.890625 -7.203125 C 3.890625 -7.921875 3.710938 -8.28125 3.359375 -8.28125 C 2.953125 -8.28125 2.75 -7.921875 2.75 -7.203125 L 2.75 -5.9375 Z M 3.890625 -5.9375 "/></g></g></g><g fill="#ffffff" fill-opacity="1"><g transform="translate(71.909234, 15.754372)"><g><path d="M 1.515625 0 L 0.3125 -9.9375 L 2.34375 -9.9375 L 3.015625 -4.609375 L 3.578125 -9.9375 L 5.65625 -9.9375 L 6.34375 -4.609375 L 6.890625 -9.9375 L 9.140625 -9.9375 L 7.859375 0 L 5.484375 0 L 4.78125 -5.65625 L 4.15625 0 Z M 1.515625 0 "/></g></g></g><g fill="#ffffff" fill-opacity="1"><g transform="translate(81.356405, 15.754372)"><g/></g></g><g fill="#ffffff" fill-opacity="1"><g transform="translate(84.532605, 15.754372)"><g><path d="M 1.921875 0 L 1.921875 -3.84375 L 0.0625 -11.65625 L 2.375 -11.65625 L 3.03125 -7.71875 L 3.671875 -11.65625 L 5.984375 -11.65625 L 4.125 -3.84375 L 4.125 0 Z M 1.921875 0 "/></g></g></g><g fill="#ffffff" fill-opacity="1"><g transform="translate(90.586392, 15.754372)"><g><path d="M 3.375 0.109375 C 1.382812 0.109375 0.390625 -0.914062 0.390625 -2.96875 L 0.390625 -6.96875 C 0.390625 -7.90625 0.65625 -8.648438 1.1875 -9.203125 C 1.71875 -9.765625 2.445312 -10.046875 3.375 -10.046875 C 4.289062 -10.046875 5.015625 -9.765625 5.546875 -9.203125 C 6.078125 -8.648438 6.34375 -7.90625 6.34375 -6.96875 L 6.34375 -2.96875 C 6.34375 -0.914062 5.351562 0.109375 3.375 0.109375 Z M 3.375 -1.71875 C 3.5625 -1.71875 3.695312 -1.785156 3.78125 -1.921875 C 3.875 -2.054688 3.921875 -2.242188 3.921875 -2.484375 L 3.921875 -7.34375 C 3.921875 -7.925781 3.738281 -8.21875 3.375 -8.21875 C 3 -8.21875 2.8125 -7.925781 2.8125 -7.34375 L 2.8125 -2.484375 C 2.8125 -2.242188 2.851562 -2.054688 2.9375 -1.921875 C 3.03125 -1.785156 3.175781 -1.71875 3.375 -1.71875 Z M 3.375 -1.71875 "/></g></g></g><g fill="#ffffff" fill-opacity="1"><g transform="translate(97.33243, 15.754372)"><g><path d="M 0.46875 -9.9375 L 2.84375 -9.9375 L 2.84375 -8.84375 C 2.96875 -9.226562 3.175781 -9.523438 3.46875 -9.734375 C 3.757812 -9.953125 4.125 -10.0625 4.5625 -10.0625 L 4.5625 -8.078125 C 4.226562 -8.078125 3.859375 -8.03125 3.453125 -7.9375 C 3.046875 -7.84375 2.84375 -7.734375 2.84375 -7.609375 L 2.84375 0 L 0.46875 0 Z M 0.46875 -9.9375 "/></g></g></g><g fill="#ffffff" fill-opacity="1"><g transform="translate(102.001723, 15.754372)"><g><path d="M 0.46875 0 L 0.46875 -11.734375 L 2.828125 -11.734375 L 2.828125 -6.515625 L 3.96875 -9.9375 L 6.421875 -9.9375 L 4.921875 -5.625 L 6.828125 0 L 4.296875 0 L 2.828125 -4.6875 L 2.828125 0 Z M 0.46875 0 "/></g></g></g></g></g><path stroke-linecap="butt" transform="matrix(0.0338602, 0.74727, -0.74727, 0.0338602, 107.246975, 58.096207)" fill="none" stroke-linejoin="miter" d="M 0.000293069 0.497791 L 50.057296 0.502517 " stroke="#ffffff" stroke-width="1" stroke-opacity="1" stroke-miterlimit="4"/><path stroke-linecap="butt" transform="matrix(0.480198, 0.573558, -0.573558, 0.480198, 78.219319, 38.191178)" fill="none" stroke-linejoin="miter" d="M -0.00072552 0.497556 L 60.271194 0.499402 " stroke="#ffffff" stroke-width="1" stroke-opacity="1" stroke-miterlimit="4"/><path stroke-linecap="butt" transform="matrix(0.746307, 0.0508466, -0.0508466, 0.746307, 61.206266, 89.094114)" fill="none" stroke-linejoin="miter" d="M -0.00140639 0.502082 L 63.425315 0.498896 " stroke="#ffffff" stroke-width="1" stroke-opacity="1" stroke-miterlimit="4"/><path stroke-linecap="butt" transform="matrix(0.229461, -0.711974, 0.711974, 0.229461, 59.891881, 88.433144)" fill="none" stroke-linejoin="miter" d="M 0.106012 4.825117 C 26.853859 -0.94243 49.864796 -0.940836 69.14219 4.823326 " stroke="#ffffff" stroke-width="1" stroke-opacity="1" stroke-miterlimit="4"/><path stroke-linecap="butt" transform="matrix(0.744161, -0.0760502, 0.0760502, 0.744161, 108.575732, 95.422839)" fill="none" stroke-linejoin="miter" d="M -0.000367392 0.497341 L 30.140122 0.501543 " stroke="#ffffff" stroke-width="1" stroke-opacity="1" stroke-miterlimit="4"/><g clip-path="url(#664132c04b)"><g clip-path="url(#3ff038768d)"><g transform="matrix(1, 0, 0, 1, 58, 95)"><g clip-path="url(#0ead1cdc1b)"><g clip-path="url(#373df52b2f)"><g clip-path="url(#ad8c5e7dad)"><path fill="#ffffff" d="M 0.460938 0.515625 L 56.820312 0.515625 L 56.820312 7.902344 L 0.460938 7.902344 Z M 0.460938 0.515625 " fill-opacity="1" fill-rule="nonzero"/></g></g></g></g></g></g><g clip-path="url(#8b5d04507d)"><g clip-path="url(#35f7c75ece)"><g transform="matrix(1, 0, 0, 1, 63, 68)"><g clip-path="url(#c5daa17aad)"><g clip-path="url(#43e6233cd8)"><g clip-path="url(#fff704afef)"><path fill="#ffffff" d="M 3.800781 0.175781 L 44.636719 6.582031 L 41.796875 24.667969 L 0.964844 18.261719 Z M 3.800781 0.175781 " fill-opacity="1" fill-rule="nonzero"/></g></g></g></g></g></g><g clip-path="url(#c70f20d9ff)"><g clip-path="url(#98b03af5d0)"><g transform="matrix(1, 0, 0, 1, 102, 72)"><g clip-path="url(#013dfe9924)"><g clip-path="url(#01ada184df)"><g clip-path="url(#3149df7675)"><path fill="#ffffff" d="M 0.128906 0.957031 L 5.207031 0.738281 L 6.003906 19.269531 L 0.925781 19.488281 Z M 0.128906 0.957031 " fill-opacity="1" fill-rule="nonzero"/></g></g></g></g></g></g><g clip-path="url(#acd4f2d646)"><g clip-path="url(#913d73f1ee)"><g transform="matrix(1, 0, 0, 1, 70, 45)"><g clip-path="url(#35f42cbbfe)"><g clip-path="url(#c416c6514b)"><g clip-path="url(#2fc7b3ff30)"><path fill="#ffffff" d="M 13.242188 0.183594 L 37.140625 28.554688 L 24.464844 39.230469 L 0.566406 10.859375 Z M 13.242188 0.183594 " fill-opacity="1" fill-rule="nonzero"/></g></g></g></g></g></g><g clip-path="url(#f7ee438c0a)"><g clip-path="url(#9cd04916de)"><g transform="matrix(1, 0, 0, 1, 67, 56)"><g clip-path="url(#65ae583fa4)"><g clip-path="url(#020c55926e)"><g clip-path="url(#4c2c47d4eb)"><path fill="#ffffff" d="M 3.871094 0.464844 L 19.640625 3.75 L 16.269531 19.953125 L 0.496094 16.667969 Z M 3.871094 0.464844 " fill-opacity="1" fill-rule="nonzero"/></g></g></g></g></g></g><g clip-path="url(#19a3b6d5b8)"><g clip-path="url(#8cb301ea44)"><g transform="matrix(1, 0, 0, 1, 103, 90)"><g clip-path="url(#7fdbc5b44b)"><g clip-path="url(#03df117ed4)"><g clip-path="url(#75f9bfd2d9)"><path fill="#ffffff" d="M 0.691406 0.289062 L 5.511719 0.925781 L 5.28125 2.691406 L 0.460938 2.054688 Z M 0.691406 0.289062 " fill-opacity="1" fill-rule="nonzero"/></g></g></g></g></g></g><g clip-path="url(#726a8f81dc)"><g clip-path="url(#5b6a4aecd6)"><g transform="matrix(1, 0, 0, 1, 67, 58)"><g clip-path="url(#b289ba1d6a)"><g clip-path="url(#afef798833)"><g clip-path="url(#1a31525b89)"><path fill="#ffffff" d="M 3.039062 0.5 L 4.292969 0.855469 L 1.421875 10.992188 L 0.167969 10.636719 Z M 3.039062 0.5 " fill-opacity="1" fill-rule="nonzero"/></g></g></g></g></g></g><g clip-path="url(#07afa2a2ae)"><g clip-path="url(#8b4d8a4108)"><g transform="matrix(1, 0, 0, 1, 70, 41)"><g clip-path="url(#40e21d0f8f)"><g clip-path="url(#124a268263)"><g clip-path="url(#9de307eec6)"><path fill="#ffffff" d="M 8.089844 0.847656 L 13.5625 3.636719 L 6.039062 18.410156 L 0.566406 15.621094 Z M 8.089844 0.847656 " fill-opacity="1" fill-rule="nonzero"/></g></g></g></g></g></g><g clip-path="url(#428aec0365)"><g clip-path="url(#15c8456903)"><g transform="matrix(1, 0, 0, 1, 79, 41)"><g clip-path="url(#382a158a30)"><g clip-path="url(#07e7105ef5)"><g clip-path="url(#e8af13343f)"><path fill="#ffffff" d="M 0.195312 2.484375 L 1.128906 0.933594 L 3.363281 2.273438 L 2.429688 3.828125 Z M 0.195312 2.484375 " fill-opacity="1" fill-rule="nonzero"/></g></g></g></g></g></g><g clip-path="url(#90c6cf532e)"><g clip-path="url(#41d072baa3)"><g transform="matrix(1, 0, 0, 1, 77, 40)"><g clip-path="url(#cbece7bbff)"><g clip-path="url(#5a17b06e53)"><g clip-path="url(#87ab042d6c)"><path fill="#ffffff" d="M 0.925781 1.800781 L 2.007812 0.34375 L 4.101562 1.894531 L 3.023438 3.351562 Z M 0.925781 1.800781 " fill-opacity="1" fill-rule="nonzero"/></g></g></g></g></g></g><g clip-path="url(#00674fe737)"><g clip-path="url(#e18bf92e33)"><g transform="matrix(1, 0, 0, 1, 63, 85)"><g clip-path="url(#12f917ee79)"><g clip-path="url(#ae458f78d3)"><g clip-path="url(#d1eefb061b)"><path fill="#ffffff" d="M 0.875 0.128906 L 35.65625 2.761719 L 35.335938 7.023438 L 0.550781 4.390625 Z M 0.875 0.128906 " fill-opacity="1" fill-rule="nonzero"/></g></g></g></g></g></g><path stroke-linecap="butt" transform="matrix(0.746566, -0.0468858, 0.0468858, 0.746566, 94.323355, 104.273149)" fill="none" stroke-linejoin="miter" d="M 0.0721029 2.286194 C 16.352962 -0.0975575 32.640922 -0.0949381 48.925885 2.288186 " stroke="#ffffff" stroke-width="1" stroke-opacity="1" stroke-miterlimit="4"/><path stroke-linecap="butt" transform="matrix(0.742115, 0.0939391, -0.0939391, 0.742115, 58.976186, 100.789797)" fill="none" stroke-linejoin="miter" d="M 0.165633 0.472829 C 16.542108 6.137448 32.927892 6.137174 49.317803 0.472665 " stroke="#ffffff" stroke-width="1" stroke-opacity="1" stroke-miterlimit="4"/><path stroke-linecap="butt" transform="matrix(0.746566, -0.0468858, 0.0468858, 0.746566, 94.32437, 108.26952)" fill="none" stroke-linejoin="miter" d="M 0.0707719 2.285739 C 16.356843 -0.0976847 32.639591 -0.0953926 48.924554 2.287731 " stroke="#ffffff" stroke-width="1" stroke-opacity="1" stroke-miterlimit="4"/><path stroke-linecap="butt" transform="matrix(0.742115, 0.0939391, -0.0939391, 0.742115, 58.977201, 104.786168)" fill="none" stroke-linejoin="miter" d="M 0.16424 0.472632 C 16.540716 6.137251 32.926499 6.136977 49.316411 0.472468 " stroke="#ffffff" stroke-width="1" stroke-opacity="1" stroke-miterlimit="4"/></svg>