<svg xmlns="http://www.w3.org/2000/svg" xmlns:xlink="http://www.w3.org/1999/xlink" width="272" zoomAndPan="magnify" viewBox="0 0 204 170.249993" height="227" preserveAspectRatio="xMidYMid meet" version="1.0"><defs><g/><clipPath id="f1e898abcb"><rect x="0" width="189" y="0" height="91"/></clipPath><clipPath id="c70e79aa8c"><rect x="0" width="28" y="0" height="27"/></clipPath><clipPath id="7708541812"><rect x="0" width="36" y="0" height="27"/></clipPath><clipPath id="3fed66c503"><rect x="0" width="24" y="0" height="27"/></clipPath><clipPath id="564e1cab53"><path d="M 0.175781 4 L 7 4 L 7 17 L 0.175781 17 Z M 0.175781 4 " clip-rule="nonzero"/></clipPath><clipPath id="5376b518e0"><rect x="0" width="118" y="0" height="22"/></clipPath><clipPath id="7f8d3dcb80"><path d="M 63.042969 102.183594 L 123.417969 102.183594 L 123.417969 110.089844 L 63.042969 110.089844 Z M 63.042969 102.183594 " clip-rule="nonzero"/></clipPath><clipPath id="43efcf37b9"><path d="M 74.644531 110.089844 L 111.785156 110.089844 L 123.386719 102.183594 L 63.042969 102.183594 Z M 74.644531 110.089844 " clip-rule="nonzero"/></clipPath><clipPath id="158eb2726b"><path d="M 0.0429688 0.183594 L 60.417969 0.183594 L 60.417969 8.089844 L 0.0429688 8.089844 Z M 0.0429688 0.183594 " clip-rule="nonzero"/></clipPath><clipPath id="0c209a0d13"><path d="M 11.644531 8.089844 L 48.785156 8.089844 L 60.386719 0.183594 L 0.0429688 0.183594 Z M 11.644531 8.089844 " clip-rule="nonzero"/></clipPath><clipPath id="98b9162eb9"><rect x="0" width="61" y="0" height="9"/></clipPath><clipPath id="049d14befb"><path d="M 68 72 L 116 72 L 116 100 L 68 100 Z M 68 72 " clip-rule="nonzero"/></clipPath><clipPath id="defa2560e5"><path d="M 71.972656 72.910156 L 115.722656 79.773438 L 112.683594 99.136719 L 68.933594 92.273438 Z M 71.972656 72.910156 " clip-rule="nonzero"/></clipPath><clipPath id="b73bc9040d"><path d="M 0.785156 0.878906 L 47.859375 0.878906 L 47.859375 27.164062 L 0.785156 27.164062 Z M 0.785156 0.878906 " clip-rule="nonzero"/></clipPath><clipPath id="c0179c1046"><path d="M 3.972656 0.910156 L 47.722656 7.773438 L 44.683594 27.136719 L 0.933594 20.273438 Z M 3.972656 0.910156 " clip-rule="nonzero"/></clipPath><clipPath id="c385b83a39"><rect x="0" width="48" y="0" height="28"/></clipPath><clipPath id="d6c7fd068c"><path d="M 109 77 L 117 77 L 117 98 L 109 98 Z M 109 77 " clip-rule="nonzero"/></clipPath><clipPath id="df9ee7bb05"><path d="M 109.796875 78.027344 L 115.234375 77.792969 L 116.089844 97.636719 L 110.648438 97.871094 Z M 109.796875 78.027344 " clip-rule="nonzero"/></clipPath><clipPath id="b9d7088fb9"><path d="M 0.644531 0.65625 L 7.097656 0.65625 L 7.097656 20.96875 L 0.644531 20.96875 Z M 0.644531 0.65625 " clip-rule="nonzero"/></clipPath><clipPath id="9508f679c4"><path d="M 0.796875 1.027344 L 6.234375 0.792969 L 7.089844 20.636719 L 1.648438 20.871094 Z M 0.796875 1.027344 " clip-rule="nonzero"/></clipPath><clipPath id="3db0e86386"><rect x="0" width="8" y="0" height="21"/></clipPath><clipPath id="84ae0ea0cd"><path d="M 76 48 L 116 48 L 116 91 L 76 91 Z M 76 48 " clip-rule="nonzero"/></clipPath><clipPath id="8985d593bc"><path d="M 89.574219 48.292969 L 115.152344 78.65625 L 101.578125 90.089844 L 76 59.722656 Z M 89.574219 48.292969 " clip-rule="nonzero"/></clipPath><clipPath id="91682e19c6"><path d="M 0 0.265625 L 39.382812 0.265625 L 39.382812 42.320312 L 0 42.320312 Z M 0 0.265625 " clip-rule="nonzero"/></clipPath><clipPath id="68a3c541dd"><path d="M 13.574219 0.292969 L 39.152344 30.65625 L 25.578125 42.089844 L 0 11.722656 Z M 13.574219 0.292969 " clip-rule="nonzero"/></clipPath><clipPath id="a0903b09ae"><rect x="0" width="40" y="0" height="43"/></clipPath><clipPath id="a2a0437a9a"><path d="M 72 60 L 94 60 L 94 82 L 72 82 Z M 72 60 " clip-rule="nonzero"/></clipPath><clipPath id="5214550686"><path d="M 76.328125 60.371094 L 93.214844 63.886719 L 89.597656 81.257812 L 72.710938 77.742188 Z M 76.328125 60.371094 " clip-rule="nonzero"/></clipPath><clipPath id="167e8f6df5"><path d="M 0.609375 0.214844 L 21.398438 0.214844 L 21.398438 21.480469 L 0.609375 21.480469 Z M 0.609375 0.214844 " clip-rule="nonzero"/></clipPath><clipPath id="729357ec22"><path d="M 4.328125 0.371094 L 21.214844 3.886719 L 17.597656 21.257812 L 0.710938 17.742188 Z M 4.328125 0.371094 " clip-rule="nonzero"/></clipPath><clipPath id="4d9577b258"><rect x="0" width="22" y="0" height="22"/></clipPath><clipPath id="edddf4dcc4"><path d="M 111 96 L 117 96 L 117 100 L 111 100 Z M 111 96 " clip-rule="nonzero"/></clipPath><clipPath id="308cafa266"><path d="M 111.472656 96.585938 L 116.632812 97.265625 L 116.386719 99.160156 L 111.222656 98.476562 Z M 111.472656 96.585938 " clip-rule="nonzero"/></clipPath><clipPath id="014c02391f"><path d="M 0.078125 0.535156 L 5.816406 0.535156 L 5.816406 3.164062 L 0.078125 3.164062 Z M 0.078125 0.535156 " clip-rule="nonzero"/></clipPath><clipPath id="b877bc0c30"><path d="M 0.472656 0.585938 L 5.632812 1.265625 L 5.386719 3.160156 L 0.222656 2.476562 Z M 0.472656 0.585938 " clip-rule="nonzero"/></clipPath><clipPath id="3f9d17689e"><rect x="0" width="6" y="0" height="4"/></clipPath><clipPath id="cf1b124804"><path d="M 72 62 L 77 62 L 77 74 L 72 74 Z M 72 62 " clip-rule="nonzero"/></clipPath><clipPath id="df2bd31d11"><path d="M 75.4375 62.550781 L 76.777344 62.929688 L 73.707031 73.78125 L 72.363281 73.402344 Z M 75.4375 62.550781 " clip-rule="nonzero"/></clipPath><clipPath id="074789e646"><path d="M 0.132812 0.367188 L 4.910156 0.367188 L 4.910156 11.835938 L 0.132812 11.835938 Z M 0.132812 0.367188 " clip-rule="nonzero"/></clipPath><clipPath id="0d5c7e89f9"><path d="M 3.4375 0.550781 L 4.777344 0.929688 L 1.707031 11.78125 L 0.363281 11.402344 Z M 3.4375 0.550781 " clip-rule="nonzero"/></clipPath><clipPath id="c06cec7b53"><rect x="0" width="5" y="0" height="12"/></clipPath><clipPath id="60fa7aeda3"><path d="M 76 44 L 90 44 L 90 64 L 76 64 Z M 76 44 " clip-rule="nonzero"/></clipPath><clipPath id="337405824c"><path d="M 84.058594 44.722656 L 89.917969 47.707031 L 81.867188 63.519531 L 76.003906 60.535156 Z M 84.058594 44.722656 " clip-rule="nonzero"/></clipPath><clipPath id="4c31c30bcb"><path d="M 0 0.683594 L 14 0.683594 L 14 19.558594 L 0 19.558594 Z M 0 0.683594 " clip-rule="nonzero"/></clipPath><clipPath id="90a4a74911"><path d="M 8.058594 0.722656 L 13.917969 3.707031 L 5.867188 19.519531 L 0.00390625 16.535156 Z M 8.058594 0.722656 " clip-rule="nonzero"/></clipPath><clipPath id="78292a1c3d"><rect x="0" width="14" y="0" height="20"/></clipPath><clipPath id="5c00c5bf00"><path d="M 85 44 L 89 44 L 89 48 L 85 48 Z M 85 44 " clip-rule="nonzero"/></clipPath><clipPath id="2cb4c28eb2"><path d="M 85.242188 46.472656 L 86.242188 44.808594 L 88.636719 46.246094 L 87.636719 47.910156 Z M 85.242188 46.472656 " clip-rule="nonzero"/></clipPath><clipPath id="b668974679"><path d="M 0.0351562 0.683594 L 3.859375 0.683594 L 3.859375 4 L 0.0351562 4 Z M 0.0351562 0.683594 " clip-rule="nonzero"/></clipPath><clipPath id="393368c093"><path d="M 0.242188 2.472656 L 1.242188 0.808594 L 3.636719 2.246094 L 2.636719 3.910156 Z M 0.242188 2.472656 " clip-rule="nonzero"/></clipPath><clipPath id="547d9fa7ee"><rect x="0" width="4" y="0" height="4"/></clipPath><clipPath id="4c759ae911"><path d="M 83 43 L 88 43 L 88 47 L 83 47 Z M 83 43 " clip-rule="nonzero"/></clipPath><clipPath id="e4b94ac041"><path d="M 83.882812 44.667969 L 85.039062 43.105469 L 87.285156 44.769531 L 86.128906 46.328125 Z M 83.882812 44.667969 " clip-rule="nonzero"/></clipPath><clipPath id="ed488fb711"><path d="M 0.839844 0.0117188 L 4.425781 0.0117188 L 4.425781 3.355469 L 0.839844 3.355469 Z M 0.839844 0.0117188 " clip-rule="nonzero"/></clipPath><clipPath id="7617a7b389"><path d="M 0.882812 1.667969 L 2.039062 0.105469 L 4.285156 1.769531 L 3.128906 3.328125 Z M 0.882812 1.667969 " clip-rule="nonzero"/></clipPath><clipPath id="0a666628c0"><rect x="0" width="5" y="0" height="4"/></clipPath><clipPath id="ef9e599f98"><path d="M 68 91 L 107 91 L 107 99 L 68 99 Z M 68 91 " clip-rule="nonzero"/></clipPath><clipPath id="0d80828fa5"><path d="M 68.835938 91.0625 L 106.074219 93.878906 L 105.730469 98.441406 L 68.492188 95.621094 Z M 68.835938 91.0625 " clip-rule="nonzero"/></clipPath><clipPath id="001cc1e0d4"><path d="M 0.308594 0.0390625 L 38.300781 0.0390625 L 38.300781 7.445312 L 0.308594 7.445312 Z M 0.308594 0.0390625 " clip-rule="nonzero"/></clipPath><clipPath id="8884a445fa"><path d="M 0.835938 0.0625 L 38.074219 2.878906 L 37.730469 7.441406 L 0.492188 4.621094 Z M 0.835938 0.0625 " clip-rule="nonzero"/></clipPath><clipPath id="49520e3de5"><rect x="0" width="39" y="0" height="8"/></clipPath></defs><g transform="matrix(1, 0, 0, 1, 7, 7)"><g clip-path="url(#f1e898abcb)"><g fill="#08bef0" fill-opacity="1"><g transform="translate(26.670995, 89.465243)"><g><path d="M 1.09375 -5.546875 C 0.832031 -3.953125 0.148438 -2.816406 -0.953125 -2.140625 C -2.066406 -1.472656 -3.503906 -1.285156 -5.265625 -1.578125 L -14.65625 -3.09375 C -16.363281 -3.375 -17.578125 -4 -18.296875 -4.96875 C -19.023438 -5.9375 -19.257812 -7.21875 -19 -8.8125 C -18.738281 -10.40625 -18.113281 -11.539062 -17.125 -12.21875 C -16.132812 -12.90625 -14.785156 -13.109375 -13.078125 -12.828125 L -3.6875 -11.3125 C -1.914062 -11.019531 -0.613281 -10.382812 0.21875 -9.40625 C 1.0625 -8.425781 1.351562 -7.140625 1.09375 -5.546875 Z M -2.53125 -6.140625 C -2.476562 -6.492188 -2.59375 -6.753906 -2.875 -6.921875 C -3.164062 -7.097656 -3.59375 -7.234375 -4.15625 -7.328125 L -13.796875 -8.890625 C -14.222656 -8.960938 -14.578125 -8.960938 -14.859375 -8.890625 C -15.140625 -8.816406 -15.3125 -8.597656 -15.375 -8.234375 C -15.476562 -7.578125 -15.035156 -7.171875 -14.046875 -7.015625 L -4.421875 -5.453125 C -3.847656 -5.359375 -3.40625 -5.359375 -3.09375 -5.453125 C -2.78125 -5.546875 -2.59375 -5.773438 -2.53125 -6.140625 Z M -2.53125 -6.140625 "/></g></g></g><g fill="#08bef0" fill-opacity="1"><g transform="translate(27.858899, 79.77707)"><g><path d="M 0.8125 -2.296875 L -18.734375 -6.984375 L -17.421875 -10.671875 L -5.171875 -7.484375 L -16.671875 -12.765625 L -15.421875 -16.28125 L -3.1875 -13.046875 L -14.703125 -18.296875 L -13.375 -22.03125 L 4.71875 -13.265625 L 3.109375 -8.75 L -6.28125 -11.015625 L 2.453125 -6.90625 Z M 0.8125 -2.296875 "/></g></g></g><g fill="#08bef0" fill-opacity="1"><g transform="translate(33.062801, 65.649369)"><g><path d="M 0.4375 -0.78125 L -16.984375 -10.5625 L -13.078125 -17.53125 L -9.71875 -15.640625 L -11.640625 -12.203125 L -8.25 -10.296875 L -6.40625 -13.59375 L -3.125 -11.75 L -4.96875 -8.453125 L -0.96875 -6.21875 L 1.078125 -9.875 L 4.46875 -7.96875 Z M 0.4375 -0.78125 "/></g></g></g><g fill="#08bef0" fill-opacity="1"><g transform="translate(37.063487, 58.258904)"><g><path d="M -15.4375 -12.75 L -11.734375 -17.640625 C -11.148438 -18.421875 -10.519531 -18.890625 -9.84375 -19.046875 C -9.164062 -19.203125 -8.453125 -19.113281 -7.703125 -18.78125 C -6.953125 -18.457031 -6.082031 -17.925781 -5.09375 -17.1875 C -4.1875 -16.5 -3.566406 -15.84375 -3.234375 -15.21875 C -2.910156 -14.601562 -2.867188 -13.925781 -3.109375 -13.1875 C -2.640625 -13.601562 -2.128906 -13.773438 -1.578125 -13.703125 C -1.035156 -13.640625 -0.4375 -13.359375 0.21875 -12.859375 L 6.234375 -8.28125 L 3.875 -5.140625 L -2.359375 -9.84375 C -2.804688 -10.175781 -3.15625 -10.300781 -3.40625 -10.21875 C -3.664062 -10.144531 -3.96875 -9.878906 -4.3125 -9.421875 L 2.96875 -3.9375 L 0.53125 -0.71875 Z M -6.515625 -12.296875 C -6.171875 -12.742188 -6.476562 -13.332031 -7.4375 -14.0625 C -7.851562 -14.375 -8.179688 -14.59375 -8.421875 -14.71875 C -8.660156 -14.84375 -8.859375 -14.882812 -9.015625 -14.84375 C -9.171875 -14.800781 -9.316406 -14.6875 -9.453125 -14.5 L -10.015625 -13.75 L -7.078125 -11.53125 Z M -6.515625 -12.296875 "/></g></g></g><g fill="#08bef0" fill-opacity="1"><g transform="translate(42.892502, 50.356562)"><g><path d="M 0.25 -0.234375 L -12.421875 -15.8125 L -7.609375 -20.5625 L 7.78125 -7.703125 L 5.09375 -5.046875 L 2.625 -7.140625 L 0.890625 -5.4375 L 3.015625 -2.984375 Z M -1.125 -7.90625 L 0.15625 -9.1875 L -7.609375 -15.8125 L -7.75 -15.671875 Z M -1.125 -7.90625 "/></g></g></g><g fill="#08bef0" fill-opacity="1"><g transform="translate(50.296624, 43.179444)"><g/></g></g><g fill="#08bef0" fill-opacity="1"><g transform="translate(53.719769, 40.221991)"><g><path d="M 4.84375 -2.859375 C 3.3125 -1.890625 1.960938 -1.566406 0.796875 -1.890625 C -0.359375 -2.222656 -1.472656 -3.234375 -2.546875 -4.921875 L -3.59375 -6.5625 L -0.265625 -8.671875 L 1.0625 -6.578125 C 1.59375 -5.734375 2.125 -5.484375 2.65625 -5.828125 C 2.957031 -6.015625 3.109375 -6.234375 3.109375 -6.484375 C 3.117188 -6.742188 2.992188 -7.078125 2.734375 -7.484375 C 2.378906 -8.046875 2.019531 -8.460938 1.65625 -8.734375 C 1.289062 -9.015625 0.929688 -9.210938 0.578125 -9.328125 C 0.234375 -9.441406 -0.359375 -9.585938 -1.203125 -9.765625 L -3.59375 -10.28125 C -5.414062 -10.664062 -6.753906 -11.53125 -7.609375 -12.875 C -8.523438 -14.3125 -8.890625 -15.613281 -8.703125 -16.78125 C -8.515625 -17.957031 -7.789062 -18.945312 -6.53125 -19.75 C -5.007812 -20.71875 -3.660156 -21.007812 -2.484375 -20.625 C -1.304688 -20.25 -0.171875 -19.203125 0.921875 -17.484375 L -2.515625 -15.296875 L -3.265625 -16.46875 C -3.410156 -16.6875 -3.585938 -16.816406 -3.796875 -16.859375 C -4.003906 -16.910156 -4.21875 -16.867188 -4.4375 -16.734375 C -4.707031 -16.566406 -4.859375 -16.367188 -4.890625 -16.140625 C -4.929688 -15.910156 -4.875 -15.675781 -4.71875 -15.4375 C -4.363281 -14.875 -3.679688 -14.5 -2.671875 -14.3125 L 0.5 -13.671875 C 1.21875 -13.523438 1.851562 -13.347656 2.40625 -13.140625 C 2.96875 -12.929688 3.515625 -12.613281 4.046875 -12.1875 C 4.578125 -11.757812 5.078125 -11.171875 5.546875 -10.421875 C 6.609375 -8.753906 7.109375 -7.300781 7.046875 -6.0625 C 6.984375 -4.820312 6.25 -3.753906 4.84375 -2.859375 Z M 4.84375 -2.859375 "/></g></g></g><g fill="#08bef0" fill-opacity="1"><g transform="translate(61.649247, 35.048037)"><g><path d="M 5.234375 -2.15625 C 3.765625 -1.488281 2.441406 -1.429688 1.265625 -1.984375 C 0.0976562 -2.535156 -0.847656 -3.625 -1.578125 -5.25 L -5.484375 -13.921875 C -6.191406 -15.503906 -6.34375 -16.863281 -5.9375 -18 C -5.53125 -19.144531 -4.59375 -20.050781 -3.125 -20.71875 C -1.65625 -21.375 -0.363281 -21.472656 0.75 -21.015625 C 1.875 -20.566406 2.789062 -19.550781 3.5 -17.96875 L 7.40625 -9.296875 C 8.144531 -7.660156 8.332031 -6.222656 7.96875 -4.984375 C 7.613281 -3.753906 6.703125 -2.8125 5.234375 -2.15625 Z M 3.71875 -5.5 C 4.039062 -5.644531 4.195312 -5.882812 4.1875 -6.21875 C 4.175781 -6.5625 4.054688 -6.988281 3.828125 -7.5 L -0.1875 -16.40625 C -0.363281 -16.800781 -0.5625 -17.097656 -0.78125 -17.296875 C -1 -17.503906 -1.273438 -17.53125 -1.609375 -17.375 C -2.210938 -17.101562 -2.304688 -16.503906 -1.890625 -15.578125 L 2.109375 -6.6875 C 2.347656 -6.164062 2.585938 -5.796875 2.828125 -5.578125 C 3.078125 -5.367188 3.375 -5.34375 3.71875 -5.5 Z M 3.71875 -5.5 "/></g></g></g><g fill="#08bef0" fill-opacity="1"><g transform="translate(70.87315, 30.879579)"><g><path d="M 0.859375 -0.25 L -4.84375 -19.40625 L 2.8125 -21.703125 L 3.921875 -17.96875 L 0.109375 -16.828125 L 1.015625 -13.78125 L 4.625 -14.859375 L 5.71875 -11.1875 L 2.109375 -10.109375 L 4.703125 -1.40625 Z M 0.859375 -0.25 "/></g></g></g><g fill="#08bef0" fill-opacity="1"><g transform="translate(78.732481, 28.471864)"><g><path d="M 2.578125 -0.4375 L -0.140625 -16.34375 L -2.484375 -15.953125 L -3.140625 -19.75 L 5.484375 -21.21875 L 6.140625 -17.421875 L 3.796875 -17.015625 L 6.515625 -1.109375 Z M 2.578125 -0.4375 "/></g></g></g><g fill="#08bef0" fill-opacity="1"><g transform="translate(86.324716, 26.735667)"><g><path d="M 2.4375 0 L 0.25 -19.984375 L 4.171875 -20 L 5.3125 -7.390625 L 6.390625 -20 L 10.125 -20.015625 L 11.21875 -7.40625 L 12.265625 -20.015625 L 16.21875 -20.03125 L 14.078125 -0.03125 L 9.28125 -0.015625 L 8.265625 -9.640625 L 7.328125 -0.015625 Z M 2.4375 0 "/></g></g></g><g fill="#08bef0" fill-opacity="1"><g transform="translate(101.292636, 26.793815)"><g><path d="M 0.34375 0.0625 L 5.796875 -19.265625 L 12.453125 -18.0625 L 10.78125 1.9375 L 7.0625 1.265625 L 7.359375 -1.96875 L 4.96875 -2.390625 L 4.171875 0.75 Z M 5.828125 -5.46875 L 7.609375 -5.140625 L 8.546875 -15.3125 L 8.359375 -15.34375 Z M 5.828125 -5.46875 "/></g></g></g><g fill="#08bef0" fill-opacity="1"><g transform="translate(111.153753, 28.483389)"><g><path d="M 7.203125 -18.671875 L 13.03125 -16.71875 C 13.945312 -16.40625 14.585938 -15.953125 14.953125 -15.359375 C 15.316406 -14.773438 15.460938 -14.070312 15.390625 -13.25 C 15.316406 -12.4375 15.082031 -11.441406 14.6875 -10.265625 C 14.320312 -9.191406 13.898438 -8.398438 13.421875 -7.890625 C 12.941406 -7.378906 12.3125 -7.125 11.53125 -7.125 C 12.0625 -6.8125 12.378906 -6.382812 12.484375 -5.84375 C 12.597656 -5.300781 12.523438 -4.640625 12.265625 -3.859375 L 9.828125 3.296875 L 6.109375 2.046875 L 8.59375 -5.359375 C 8.769531 -5.890625 8.78125 -6.265625 8.625 -6.484375 C 8.476562 -6.703125 8.132812 -6.90625 7.59375 -7.09375 L 4.6875 1.5625 L 0.84375 0.28125 Z M 9.59375 -10.0625 C 10.132812 -9.882812 10.597656 -10.367188 10.984375 -11.515625 C 11.148438 -12.015625 11.25 -12.394531 11.28125 -12.65625 C 11.320312 -12.925781 11.296875 -13.125 11.203125 -13.25 C 11.117188 -13.382812 10.96875 -13.488281 10.75 -13.5625 L 9.875 -13.859375 L 8.703125 -10.359375 Z M 9.59375 -10.0625 "/></g></g></g><g fill="#08bef0" fill-opacity="1"><g transform="translate(120.557512, 31.607305)"><g><path d="M 0.796875 0.390625 L 9.625 -17.53125 L 16.796875 -14 L 15.09375 -10.546875 L 11.5625 -12.28125 L 9.84375 -8.78125 L 13.234375 -7.109375 L 11.578125 -3.734375 L 8.1875 -5.40625 L 6.15625 -1.296875 L 9.921875 0.5625 L 8.203125 4.046875 Z M 0.796875 0.390625 "/></g></g></g><g fill="#08bef0" fill-opacity="1"><g transform="translate(128.346495, 35.510439)"><g/></g></g><g fill="#08bef0" fill-opacity="1"><g transform="translate(132.286294, 37.733895)"><g><path d="M 4.328125 3.59375 C 2.898438 2.476562 2.140625 1.316406 2.046875 0.109375 C 1.960938 -1.085938 2.535156 -2.476562 3.765625 -4.0625 L 4.953125 -5.609375 L 8.078125 -3.1875 L 6.5625 -1.21875 C 5.945312 -0.425781 5.890625 0.160156 6.390625 0.546875 C 6.671875 0.765625 6.929688 0.828125 7.171875 0.734375 C 7.410156 0.648438 7.679688 0.414062 7.984375 0.03125 C 8.378906 -0.476562 8.644531 -0.945312 8.78125 -1.375 C 8.925781 -1.8125 8.988281 -2.21875 8.96875 -2.59375 C 8.957031 -2.96875 8.894531 -3.578125 8.78125 -4.421875 L 8.46875 -6.84375 C 8.207031 -8.695312 8.5625 -10.25 9.53125 -11.5 C 10.582031 -12.851562 11.691406 -13.640625 12.859375 -13.859375 C 14.035156 -14.078125 15.210938 -13.726562 16.390625 -12.8125 C 17.816406 -11.707031 18.550781 -10.535156 18.59375 -9.296875 C 18.632812 -8.054688 18.03125 -6.632812 16.78125 -5.03125 L 13.5625 -7.53125 L 14.390625 -8.625 C 14.546875 -8.820312 14.613281 -9.03125 14.59375 -9.25 C 14.570312 -9.46875 14.460938 -9.660156 14.265625 -9.828125 C 14.015625 -10.015625 13.769531 -10.085938 13.53125 -10.046875 C 13.300781 -10.003906 13.097656 -9.867188 12.921875 -9.640625 C 12.523438 -9.117188 12.410156 -8.351562 12.578125 -7.34375 L 13.046875 -4.15625 C 13.148438 -3.414062 13.195312 -2.75 13.1875 -2.15625 C 13.175781 -1.5625 13.054688 -0.941406 12.828125 -0.296875 C 12.609375 0.347656 12.226562 1.019531 11.6875 1.71875 C 10.476562 3.269531 9.28125 4.222656 8.09375 4.578125 C 6.90625 4.941406 5.648438 4.613281 4.328125 3.59375 Z M 4.328125 3.59375 "/></g></g></g><g fill="#08bef0" fill-opacity="1"><g transform="translate(139.836445, 43.470168)"><g><path d="M 3.703125 4.09375 C 2.554688 2.90625 2.039062 1.703125 2.15625 0.484375 C 2.269531 -0.734375 2.984375 -1.976562 4.296875 -3.25 L 14.8125 -13.4375 L 17.515625 -10.65625 L 7.125 -0.59375 C 6.664062 -0.144531 6.347656 0.25 6.171875 0.59375 C 5.992188 0.9375 6.050781 1.253906 6.34375 1.546875 C 6.625 1.835938 6.929688 1.898438 7.265625 1.734375 C 7.597656 1.578125 8.003906 1.269531 8.484375 0.8125 L 18.875 -9.25 L 21.578125 -6.453125 L 11.0625 3.734375 C 9.75 5.003906 8.476562 5.675781 7.25 5.75 C 6.019531 5.820312 4.835938 5.269531 3.703125 4.09375 Z M 3.703125 4.09375 "/></g></g></g><g fill="#08bef0" fill-opacity="1"><g transform="translate(146.695326, 50.42845)"><g><path d="M 16.703125 -11 L 19.8125 -6.71875 C 20.738281 -5.425781 20.984375 -4.203125 20.546875 -3.046875 C 20.117188 -1.890625 19.097656 -0.726562 17.484375 0.4375 C 15.878906 1.601562 14.488281 2.234375 13.3125 2.328125 C 12.144531 2.429688 11.101562 1.847656 10.1875 0.578125 L 9.234375 -0.734375 L 2.828125 3.90625 L 0.515625 0.71875 Z M 12.28125 -2.65625 C 12.5625 -2.269531 12.84375 -2.035156 13.125 -1.953125 C 13.40625 -1.878906 13.695312 -1.910156 14 -2.046875 C 14.3125 -2.191406 14.722656 -2.445312 15.234375 -2.8125 C 15.910156 -3.300781 16.34375 -3.726562 16.53125 -4.09375 C 16.726562 -4.46875 16.664062 -4.878906 16.34375 -5.328125 L 16.078125 -5.6875 L 12.15625 -2.84375 Z M 12.28125 -2.65625 "/></g></g></g><g fill="#08bef0" fill-opacity="1"><g transform="translate(152.470078, 58.254445)"><g><path d="M 18.109375 -8.515625 L 20.5625 -3.828125 C 21.300781 -2.421875 21.375 -1.175781 20.78125 -0.09375 C 20.1875 0.988281 19.007812 1.992188 17.25 2.921875 C 15.5 3.835938 14.035156 4.265625 12.859375 4.203125 C 11.679688 4.140625 10.726562 3.414062 10 2.03125 L 9.234375 0.59375 L 2.234375 4.265625 L 0.421875 0.78125 Z M 12.53125 -0.890625 C 12.757812 -0.460938 13.003906 -0.191406 13.265625 -0.078125 C 13.523438 0.0351562 13.816406 0.046875 14.140625 -0.046875 C 14.472656 -0.140625 14.914062 -0.328125 15.46875 -0.609375 C 16.207031 -1.003906 16.695312 -1.367188 16.9375 -1.703125 C 17.1875 -2.046875 17.1875 -2.460938 16.9375 -2.953125 L 16.71875 -3.34375 L 12.421875 -1.09375 Z M 12.53125 -0.890625 "/></g></g></g><g fill="#08bef0" fill-opacity="1"><g transform="translate(157.054488, 66.937075)"><g><path d="M 0.3125 0.828125 L 19.0625 -6.078125 L 20.4375 -2.3125 L 4.875 3.421875 L 6.296875 7.28125 L 3.109375 8.453125 Z M 0.3125 0.828125 "/></g></g></g><g fill="#08bef0" fill-opacity="1"><g transform="translate(159.959348, 74.512712)"><g><path d="M 0.734375 3.21875 L 7.140625 1.75 L 19.515625 -4.359375 L 20.390625 -0.5 L 14.046875 2.109375 L 20.890625 1.6875 L 21.78125 5.53125 L 7.984375 5.4375 L 1.578125 6.90625 Z M 0.734375 3.21875 "/></g></g></g><g fill="#08bef0" fill-opacity="1"><g transform="translate(161.995091, 83.74862)"><g/></g></g></g></g><g transform="matrix(1, 0, 0, 1, 12, 137)"><g clip-path="url(#c70e79aa8c)"><g fill="#08bef0" fill-opacity="1"><g transform="translate(0.635707, 20.513249)"><g><path d="M 0.65625 0 L 0.65625 -14.984375 L 6.65625 -14.984375 L 6.65625 -12.078125 L 3.71875 -12.078125 L 3.71875 -9.171875 L 6.53125 -9.171875 L 6.53125 -6.34375 L 3.71875 -6.34375 L 3.71875 -2.90625 L 6.859375 -2.90625 L 6.859375 0 Z M 0.65625 0 "/></g></g></g><g fill="#08bef0" fill-opacity="1"><g transform="translate(7.820192, 20.513249)"><g><path d="M 4.21875 0.140625 C 2.851562 0.140625 1.867188 -0.195312 1.265625 -0.875 C 0.660156 -1.550781 0.359375 -2.632812 0.359375 -4.125 L 0.359375 -5.59375 L 3.3125 -5.59375 L 3.3125 -3.734375 C 3.3125 -2.984375 3.550781 -2.609375 4.03125 -2.609375 C 4.289062 -2.609375 4.472656 -2.6875 4.578125 -2.84375 C 4.691406 -3.007812 4.75 -3.273438 4.75 -3.640625 C 4.75 -4.128906 4.6875 -4.53125 4.5625 -4.84375 C 4.445312 -5.164062 4.300781 -5.4375 4.125 -5.65625 C 3.945312 -5.875 3.625 -6.207031 3.15625 -6.65625 L 1.859375 -7.953125 C 0.859375 -8.929688 0.359375 -10.007812 0.359375 -11.1875 C 0.359375 -12.46875 0.648438 -13.441406 1.234375 -14.109375 C 1.828125 -14.785156 2.6875 -15.125 3.8125 -15.125 C 5.164062 -15.125 6.140625 -14.765625 6.734375 -14.046875 C 7.328125 -13.328125 7.625 -12.207031 7.625 -10.6875 L 4.5625 -10.6875 L 4.546875 -11.71875 C 4.546875 -11.914062 4.488281 -12.070312 4.375 -12.1875 C 4.269531 -12.300781 4.117188 -12.359375 3.921875 -12.359375 C 3.691406 -12.359375 3.515625 -12.296875 3.390625 -12.171875 C 3.273438 -12.046875 3.21875 -11.867188 3.21875 -11.640625 C 3.21875 -11.160156 3.5 -10.65625 4.0625 -10.125 L 5.8125 -8.453125 C 6.21875 -8.054688 6.550781 -7.679688 6.8125 -7.328125 C 7.082031 -6.972656 7.296875 -6.554688 7.453125 -6.078125 C 7.617188 -5.597656 7.703125 -5.023438 7.703125 -4.359375 C 7.703125 -2.878906 7.429688 -1.757812 6.890625 -1 C 6.347656 -0.238281 5.457031 0.140625 4.21875 0.140625 Z M 4.21875 0.140625 "/></g></g></g><g fill="#08bef0" fill-opacity="1"><g transform="translate(15.859139, 20.513249)"><g><path d="M 1.953125 0 L 1.953125 -12.109375 L 0.171875 -12.109375 L 0.171875 -14.984375 L 6.734375 -14.984375 L 6.734375 -12.109375 L 4.953125 -12.109375 L 4.953125 0 Z M 1.953125 0 "/></g></g></g><g fill="#08bef0" fill-opacity="1"><g transform="translate(22.764615, 20.513249)"><g><path d="M 0.46875 0 L 0.46875 -2.546875 L 3.515625 -2.546875 L 3.515625 0 Z M 0.46875 0 "/></g></g></g></g></g><g transform="matrix(1, 0, 0, 1, 84, 137)"><g clip-path="url(#7708541812)"><g fill="#08bef0" fill-opacity="1"><g transform="translate(0.687638, 20.513249)"><g><path d="M 0.515625 -0.71875 C 0.515625 -1.40625 0.625 -2.035156 0.84375 -2.609375 C 1.0625 -3.191406 1.328125 -3.710938 1.640625 -4.171875 C 1.953125 -4.640625 2.363281 -5.191406 2.875 -5.828125 C 3.394531 -6.472656 3.8125 -7.019531 4.125 -7.46875 C 4.4375 -7.925781 4.695312 -8.445312 4.90625 -9.03125 C 5.125 -9.625 5.234375 -10.265625 5.234375 -10.953125 C 5.234375 -11.359375 5.171875 -11.671875 5.046875 -11.890625 C 4.929688 -12.117188 4.722656 -12.234375 4.421875 -12.234375 C 3.921875 -12.234375 3.671875 -11.785156 3.671875 -10.890625 L 3.671875 -9.0625 L 0.515625 -9.0625 L 0.484375 -9.984375 C 0.484375 -11.128906 0.597656 -12.066406 0.828125 -12.796875 C 1.066406 -13.523438 1.472656 -14.082031 2.046875 -14.46875 C 2.628906 -14.851562 3.4375 -15.046875 4.46875 -15.046875 C 5.71875 -15.046875 6.6875 -14.691406 7.375 -13.984375 C 8.0625 -13.285156 8.40625 -12.289062 8.40625 -11 C 8.40625 -10.175781 8.289062 -9.429688 8.0625 -8.765625 C 7.832031 -8.097656 7.550781 -7.515625 7.21875 -7.015625 C 6.894531 -6.515625 6.457031 -5.925781 5.90625 -5.25 C 5.507812 -4.769531 5.179688 -4.34375 4.921875 -3.96875 C 4.660156 -3.601562 4.425781 -3.222656 4.21875 -2.828125 L 8.296875 -2.828125 L 8.296875 0 L 0.515625 0 Z M 0.515625 -0.71875 "/></g></g></g><g fill="#08bef0" fill-opacity="1"><g transform="translate(9.30204, 20.513249)"><g><path d="M 4.3125 0.140625 C 3.039062 0.140625 2.0625 -0.210938 1.375 -0.921875 C 0.6875 -1.640625 0.34375 -2.664062 0.34375 -4 L 0.34375 -10.765625 C 0.34375 -12.179688 0.675781 -13.257812 1.34375 -14 C 2.007812 -14.75 3 -15.125 4.3125 -15.125 C 5.632812 -15.125 6.625 -14.75 7.28125 -14 C 7.945312 -13.257812 8.28125 -12.179688 8.28125 -10.765625 L 8.28125 -4 C 8.28125 -2.65625 7.9375 -1.628906 7.25 -0.921875 C 6.5625 -0.210938 5.582031 0.140625 4.3125 0.140625 Z M 4.3125 -2.609375 C 4.53125 -2.609375 4.707031 -2.707031 4.84375 -2.90625 C 4.988281 -3.113281 5.0625 -3.359375 5.0625 -3.640625 L 5.0625 -11.03125 C 5.0625 -11.46875 5.007812 -11.796875 4.90625 -12.015625 C 4.8125 -12.242188 4.613281 -12.359375 4.3125 -12.359375 C 4.007812 -12.359375 3.8125 -12.242188 3.71875 -12.015625 C 3.625 -11.796875 3.578125 -11.46875 3.578125 -11.03125 L 3.578125 -3.640625 C 3.578125 -3.359375 3.640625 -3.113281 3.765625 -2.90625 C 3.898438 -2.707031 4.082031 -2.609375 4.3125 -2.609375 Z M 4.3125 -2.609375 "/></g></g></g><g fill="#08bef0" fill-opacity="1"><g transform="translate(17.916443, 20.513249)"><g><path d="M 0.515625 -0.71875 C 0.515625 -1.40625 0.625 -2.035156 0.84375 -2.609375 C 1.0625 -3.191406 1.328125 -3.710938 1.640625 -4.171875 C 1.953125 -4.640625 2.363281 -5.191406 2.875 -5.828125 C 3.394531 -6.472656 3.8125 -7.019531 4.125 -7.46875 C 4.4375 -7.925781 4.695312 -8.445312 4.90625 -9.03125 C 5.125 -9.625 5.234375 -10.265625 5.234375 -10.953125 C 5.234375 -11.359375 5.171875 -11.671875 5.046875 -11.890625 C 4.929688 -12.117188 4.722656 -12.234375 4.421875 -12.234375 C 3.921875 -12.234375 3.671875 -11.785156 3.671875 -10.890625 L 3.671875 -9.0625 L 0.515625 -9.0625 L 0.484375 -9.984375 C 0.484375 -11.128906 0.597656 -12.066406 0.828125 -12.796875 C 1.066406 -13.523438 1.472656 -14.082031 2.046875 -14.46875 C 2.628906 -14.851562 3.4375 -15.046875 4.46875 -15.046875 C 5.71875 -15.046875 6.6875 -14.691406 7.375 -13.984375 C 8.0625 -13.285156 8.40625 -12.289062 8.40625 -11 C 8.40625 -10.175781 8.289062 -9.429688 8.0625 -8.765625 C 7.832031 -8.097656 7.550781 -7.515625 7.21875 -7.015625 C 6.894531 -6.515625 6.457031 -5.925781 5.90625 -5.25 C 5.507812 -4.769531 5.179688 -4.34375 4.921875 -3.96875 C 4.660156 -3.601562 4.425781 -3.222656 4.21875 -2.828125 L 8.296875 -2.828125 L 8.296875 0 L 0.515625 0 Z M 0.515625 -0.71875 "/></g></g></g><g fill="#08bef0" fill-opacity="1"><g transform="translate(26.530846, 20.513249)"><g><path d="M 4.3125 0.203125 C 3.113281 0.203125 2.160156 -0.0859375 1.453125 -0.671875 C 0.742188 -1.253906 0.390625 -2.125 0.390625 -3.28125 L 0.390625 -5.5 L 3.5 -5.5 L 3.5 -4.21875 C 3.5 -3.707031 3.550781 -3.304688 3.65625 -3.015625 C 3.757812 -2.722656 3.976562 -2.578125 4.3125 -2.578125 C 4.613281 -2.578125 4.816406 -2.675781 4.921875 -2.875 C 5.035156 -3.070312 5.09375 -3.363281 5.09375 -3.75 L 5.09375 -6.703125 C 5.09375 -7.171875 5.039062 -7.546875 4.9375 -7.828125 C 4.84375 -8.117188 4.640625 -8.265625 4.328125 -8.265625 C 3.753906 -8.265625 3.46875 -7.851562 3.46875 -7.03125 L 0.734375 -7.03125 L 0.734375 -15 L 7.859375 -15 L 7.859375 -12.1875 L 3.578125 -12.1875 L 3.578125 -10.078125 C 3.722656 -10.273438 3.921875 -10.4375 4.171875 -10.5625 C 4.429688 -10.695312 4.726562 -10.765625 5.0625 -10.765625 C 6.3125 -10.765625 7.164062 -10.320312 7.625 -9.4375 C 8.082031 -8.550781 8.3125 -7.300781 8.3125 -5.6875 C 8.3125 -4.34375 8.21875 -3.253906 8.03125 -2.421875 C 7.84375 -1.597656 7.457031 -0.953125 6.875 -0.484375 C 6.289062 -0.0234375 5.4375 0.203125 4.3125 0.203125 Z M 4.3125 0.203125 "/></g></g></g></g></g><g transform="matrix(1, 0, 0, 1, 170, 137)"><g clip-path="url(#3fed66c503)"><g fill="#08bef0" fill-opacity="1"><g transform="translate(0.459184, 20.513249)"><g><path d="M 0.65625 0 L 0.65625 -14.984375 L 3.65625 -14.984375 L 3.65625 -2.546875 L 6.75 -2.546875 L 6.75 0 Z M 0.65625 0 "/></g></g></g><g fill="#08bef0" fill-opacity="1"><g transform="translate(7.382096, 20.513249)"><g><path d="M 0.65625 0 L 0.65625 -14.984375 L 3.65625 -14.984375 L 3.65625 -2.546875 L 6.75 -2.546875 L 6.75 0 Z M 0.65625 0 "/></g></g></g><g fill="#08bef0" fill-opacity="1"><g transform="translate(14.305008, 20.513249)"><g><path d="M 4.15625 0.140625 C 3.0625 0.140625 2.1875 -0.203125 1.53125 -0.890625 C 0.875 -1.578125 0.546875 -2.519531 0.546875 -3.71875 L 0.546875 -10.625 C 0.546875 -12.101562 0.835938 -13.222656 1.421875 -13.984375 C 2.015625 -14.742188 2.945312 -15.125 4.21875 -15.125 C 5.320312 -15.125 6.210938 -14.820312 6.890625 -14.21875 C 7.566406 -13.613281 7.90625 -12.738281 7.90625 -11.59375 L 7.90625 -9.015625 L 4.921875 -9.015625 L 4.921875 -11.234375 C 4.921875 -11.660156 4.867188 -11.953125 4.765625 -12.109375 C 4.660156 -12.273438 4.476562 -12.359375 4.21875 -12.359375 C 3.945312 -12.359375 3.757812 -12.265625 3.65625 -12.078125 C 3.5625 -11.898438 3.515625 -11.628906 3.515625 -11.265625 L 3.515625 -3.75 C 3.515625 -3.351562 3.570312 -3.0625 3.6875 -2.875 C 3.8125 -2.695312 3.988281 -2.609375 4.21875 -2.609375 C 4.6875 -2.609375 4.921875 -2.988281 4.921875 -3.75 L 4.921875 -6.453125 L 7.9375 -6.453125 L 7.9375 -3.625 C 7.9375 -1.113281 6.675781 0.140625 4.15625 0.140625 Z M 4.15625 0.140625 "/></g></g></g></g></g><g transform="matrix(1, 0, 0, 1, 44, 119)"><g clip-path="url(#5376b518e0)"><g clip-path="url(#564e1cab53)"><g fill="#08bef0" fill-opacity="1"><g transform="translate(0.201811, 16.629136)"><g><path d="M 3.453125 0.109375 C 2.546875 0.109375 1.816406 -0.171875 1.265625 -0.734375 C 0.722656 -1.304688 0.453125 -2.09375 0.453125 -3.09375 L 0.453125 -8.84375 C 0.453125 -10.082031 0.695312 -11.015625 1.1875 -11.640625 C 1.6875 -12.273438 2.460938 -12.59375 3.515625 -12.59375 C 4.429688 -12.59375 5.171875 -12.34375 5.734375 -11.84375 C 6.296875 -11.34375 6.578125 -10.613281 6.578125 -9.65625 L 6.578125 -7.515625 L 4.09375 -7.515625 L 4.09375 -9.359375 C 4.09375 -9.710938 4.050781 -9.957031 3.96875 -10.09375 C 3.882812 -10.226562 3.734375 -10.296875 3.515625 -10.296875 C 3.296875 -10.296875 3.144531 -10.21875 3.0625 -10.0625 C 2.976562 -9.914062 2.9375 -9.691406 2.9375 -9.390625 L 2.9375 -3.125 C 2.9375 -2.789062 2.984375 -2.546875 3.078125 -2.390625 C 3.171875 -2.242188 3.316406 -2.171875 3.515625 -2.171875 C 3.898438 -2.171875 4.09375 -2.488281 4.09375 -3.125 L 4.09375 -5.375 L 6.609375 -5.375 L 6.609375 -3.015625 C 6.609375 -0.929688 5.554688 0.109375 3.453125 0.109375 Z M 3.453125 0.109375 "/></g></g></g></g><g fill="#08bef0" fill-opacity="1"><g transform="translate(7.090498, 16.629136)"><g><path d="M 2.4375 0.109375 C 1.613281 0.109375 1.050781 -0.160156 0.75 -0.703125 C 0.445312 -1.253906 0.296875 -2.035156 0.296875 -3.046875 C 0.296875 -3.878906 0.398438 -4.519531 0.609375 -4.96875 C 0.828125 -5.414062 1.128906 -5.742188 1.515625 -5.953125 C 1.910156 -6.160156 2.503906 -6.390625 3.296875 -6.640625 L 4 -6.875 L 4 -7.96875 C 4 -8.25 3.941406 -8.460938 3.828125 -8.609375 C 3.710938 -8.753906 3.578125 -8.828125 3.421875 -8.828125 C 3.285156 -8.828125 3.164062 -8.765625 3.0625 -8.640625 C 2.96875 -8.515625 2.921875 -8.347656 2.921875 -8.140625 L 2.921875 -7.5 L 0.453125 -7.5 L 0.453125 -7.84375 C 0.453125 -8.894531 0.695312 -9.640625 1.1875 -10.078125 C 1.675781 -10.523438 2.472656 -10.75 3.578125 -10.75 C 4.453125 -10.75 5.164062 -10.519531 5.71875 -10.0625 C 6.269531 -9.601562 6.546875 -8.953125 6.546875 -8.109375 L 6.546875 0 L 4.03125 0 L 4.03125 -1.265625 C 3.90625 -0.828125 3.703125 -0.488281 3.421875 -0.25 C 3.148438 -0.0078125 2.820312 0.109375 2.4375 0.109375 Z M 3.4375 -1.859375 C 3.632812 -1.859375 3.773438 -1.9375 3.859375 -2.09375 C 3.941406 -2.257812 3.984375 -2.457031 3.984375 -2.6875 L 3.984375 -5.65625 C 3.609375 -5.507812 3.328125 -5.320312 3.140625 -5.09375 C 2.960938 -4.875 2.875 -4.566406 2.875 -4.171875 L 2.875 -2.796875 C 2.875 -2.171875 3.0625 -1.859375 3.4375 -1.859375 Z M 3.4375 -1.859375 "/></g></g></g><g fill="#08bef0" fill-opacity="1"><g transform="translate(14.109988, 16.629136)"><g><path d="M 0.203125 0 L 0.203125 -1.5625 L 2.84375 -8.625 L 0.3125 -8.625 L 0.3125 -10.640625 L 5.484375 -10.640625 L 5.484375 -8.90625 L 2.984375 -1.90625 L 5.5 -1.90625 L 5.5 0 Z M 0.203125 0 "/></g></g></g><g fill="#08bef0" fill-opacity="1"><g transform="translate(19.719766, 16.629136)"><g><path d="M 3.484375 0.109375 C 2.390625 0.109375 1.601562 -0.1875 1.125 -0.78125 C 0.65625 -1.382812 0.421875 -2.28125 0.421875 -3.46875 L 0.421875 -7.75 C 0.421875 -8.726562 0.703125 -9.472656 1.265625 -9.984375 C 1.828125 -10.492188 2.613281 -10.75 3.625 -10.75 C 5.664062 -10.75 6.6875 -9.75 6.6875 -7.75 L 6.6875 -6.96875 C 6.6875 -6.195312 6.675781 -5.566406 6.65625 -5.078125 L 2.96875 -5.078125 L 2.96875 -3.015625 C 2.96875 -2.648438 3.003906 -2.363281 3.078125 -2.15625 C 3.160156 -1.945312 3.328125 -1.84375 3.578125 -1.84375 C 3.765625 -1.84375 3.898438 -1.898438 3.984375 -2.015625 C 4.066406 -2.128906 4.113281 -2.257812 4.125 -2.40625 C 4.144531 -2.5625 4.15625 -2.785156 4.15625 -3.078125 L 4.15625 -4.109375 L 6.6875 -4.109375 L 6.6875 -3.5 C 6.6875 -2.257812 6.445312 -1.347656 5.96875 -0.765625 C 5.488281 -0.179688 4.660156 0.109375 3.484375 0.109375 Z M 4.15625 -6.34375 L 4.15625 -7.71875 C 4.15625 -8.476562 3.96875 -8.859375 3.59375 -8.859375 C 3.164062 -8.859375 2.953125 -8.476562 2.953125 -7.71875 L 2.953125 -6.34375 Z M 4.15625 -6.34375 "/></g></g></g><g fill="#08bef0" fill-opacity="1"><g transform="translate(26.811924, 16.629136)"><g><path d="M 0.515625 -10.640625 L 3.046875 -10.640625 L 3.046875 -9.28125 C 3.160156 -9.71875 3.347656 -10.070312 3.609375 -10.34375 C 3.867188 -10.613281 4.21875 -10.75 4.65625 -10.75 C 5.363281 -10.75 5.890625 -10.53125 6.234375 -10.09375 C 6.578125 -9.65625 6.75 -9.023438 6.75 -8.203125 L 6.75 0 L 4.25 0 L 4.25 -7.953125 C 4.25 -8.179688 4.203125 -8.378906 4.109375 -8.546875 C 4.023438 -8.710938 3.882812 -8.796875 3.6875 -8.796875 C 3.425781 -8.796875 3.253906 -8.675781 3.171875 -8.4375 C 3.085938 -8.195312 3.046875 -7.878906 3.046875 -7.484375 L 3.046875 0 L 0.515625 0 Z M 0.515625 -10.640625 "/></g></g></g><g fill="#08bef0" fill-opacity="1"><g transform="translate(34.063943, 16.629136)"><g><path d="M 3.609375 0.109375 C 1.484375 0.109375 0.421875 -0.988281 0.421875 -3.1875 L 0.421875 -7.453125 C 0.421875 -8.460938 0.703125 -9.265625 1.265625 -9.859375 C 1.835938 -10.453125 2.617188 -10.75 3.609375 -10.75 C 4.585938 -10.75 5.359375 -10.453125 5.921875 -9.859375 C 6.492188 -9.265625 6.78125 -8.460938 6.78125 -7.453125 L 6.78125 -3.1875 C 6.78125 -0.988281 5.722656 0.109375 3.609375 0.109375 Z M 3.609375 -1.84375 C 3.804688 -1.84375 3.953125 -1.914062 4.046875 -2.0625 C 4.148438 -2.207031 4.203125 -2.40625 4.203125 -2.65625 L 4.203125 -7.859375 C 4.203125 -8.484375 4.003906 -8.796875 3.609375 -8.796875 C 3.210938 -8.796875 3.015625 -8.484375 3.015625 -7.859375 L 3.015625 -2.65625 C 3.015625 -2.40625 3.0625 -2.207031 3.15625 -2.0625 C 3.25 -1.914062 3.398438 -1.84375 3.609375 -1.84375 Z M 3.609375 -1.84375 "/></g></g></g><g fill="#08bef0" fill-opacity="1"><g transform="translate(41.286895, 16.629136)"><g><path d="M 1.859375 0 L 0.15625 -10.640625 L 2.703125 -10.640625 L 3.21875 -5.265625 L 3.3125 -3.53125 L 3.421875 -5.28125 L 4 -10.640625 L 6.53125 -10.640625 L 4.8125 0 Z M 1.859375 0 "/></g></g></g><g fill="#08bef0" fill-opacity="1"><g transform="translate(47.986653, 16.629136)"><g><path d="M 0.5 -11.34375 L 0.5 -13.125 L 3.03125 -13.125 L 3.03125 -11.34375 Z M 0.5 0 L 0.5 -10.640625 L 3.03125 -10.640625 L 3.03125 0 Z M 0.5 0 "/></g></g></g><g fill="#08bef0" fill-opacity="1"><g transform="translate(51.518198, 16.629136)"><g><path d="M 2.4375 0.109375 C 1.613281 0.109375 1.050781 -0.160156 0.75 -0.703125 C 0.445312 -1.253906 0.296875 -2.035156 0.296875 -3.046875 C 0.296875 -3.878906 0.398438 -4.519531 0.609375 -4.96875 C 0.828125 -5.414062 1.128906 -5.742188 1.515625 -5.953125 C 1.910156 -6.160156 2.503906 -6.390625 3.296875 -6.640625 L 4 -6.875 L 4 -7.96875 C 4 -8.25 3.941406 -8.460938 3.828125 -8.609375 C 3.710938 -8.753906 3.578125 -8.828125 3.421875 -8.828125 C 3.285156 -8.828125 3.164062 -8.765625 3.0625 -8.640625 C 2.96875 -8.515625 2.921875 -8.347656 2.921875 -8.140625 L 2.921875 -7.5 L 0.453125 -7.5 L 0.453125 -7.84375 C 0.453125 -8.894531 0.695312 -9.640625 1.1875 -10.078125 C 1.675781 -10.523438 2.472656 -10.75 3.578125 -10.75 C 4.453125 -10.75 5.164062 -10.519531 5.71875 -10.0625 C 6.269531 -9.601562 6.546875 -8.953125 6.546875 -8.109375 L 6.546875 0 L 4.03125 0 L 4.03125 -1.265625 C 3.90625 -0.828125 3.703125 -0.488281 3.421875 -0.25 C 3.148438 -0.0078125 2.820312 0.109375 2.4375 0.109375 Z M 3.4375 -1.859375 C 3.632812 -1.859375 3.773438 -1.9375 3.859375 -2.09375 C 3.941406 -2.257812 3.984375 -2.457031 3.984375 -2.6875 L 3.984375 -5.65625 C 3.609375 -5.507812 3.328125 -5.320312 3.140625 -5.09375 C 2.960938 -4.875 2.875 -4.566406 2.875 -4.171875 L 2.875 -2.796875 C 2.875 -2.171875 3.0625 -1.859375 3.4375 -1.859375 Z M 3.4375 -1.859375 "/></g></g></g><g fill="#08bef0" fill-opacity="1"><g transform="translate(58.537688, 16.629136)"><g/></g></g><g fill="#08bef0" fill-opacity="1"><g transform="translate(61.938431, 16.629136)"><g><path d="M 0.546875 0 L 0.546875 -12.484375 L 3.125 -12.484375 L 4.265625 -6.515625 L 4.265625 -12.484375 L 6.6875 -12.484375 L 6.6875 0 L 4.25 0 L 3 -6.25 L 3 0 Z M 0.546875 0 "/></g></g></g><g fill="#08bef0" fill-opacity="1"><g transform="translate(69.175916, 16.629136)"><g><path d="M 3.484375 0.109375 C 2.390625 0.109375 1.601562 -0.1875 1.125 -0.78125 C 0.65625 -1.382812 0.421875 -2.28125 0.421875 -3.46875 L 0.421875 -7.75 C 0.421875 -8.726562 0.703125 -9.472656 1.265625 -9.984375 C 1.828125 -10.492188 2.613281 -10.75 3.625 -10.75 C 5.664062 -10.75 6.6875 -9.75 6.6875 -7.75 L 6.6875 -6.96875 C 6.6875 -6.195312 6.675781 -5.566406 6.65625 -5.078125 L 2.96875 -5.078125 L 2.96875 -3.015625 C 2.96875 -2.648438 3.003906 -2.363281 3.078125 -2.15625 C 3.160156 -1.945312 3.328125 -1.84375 3.578125 -1.84375 C 3.765625 -1.84375 3.898438 -1.898438 3.984375 -2.015625 C 4.066406 -2.128906 4.113281 -2.257812 4.125 -2.40625 C 4.144531 -2.5625 4.15625 -2.785156 4.15625 -3.078125 L 4.15625 -4.109375 L 6.6875 -4.109375 L 6.6875 -3.5 C 6.6875 -2.257812 6.445312 -1.347656 5.96875 -0.765625 C 5.488281 -0.179688 4.660156 0.109375 3.484375 0.109375 Z M 4.15625 -6.34375 L 4.15625 -7.71875 C 4.15625 -8.476562 3.96875 -8.859375 3.59375 -8.859375 C 3.164062 -8.859375 2.953125 -8.476562 2.953125 -7.71875 L 2.953125 -6.34375 Z M 4.15625 -6.34375 "/></g></g></g><g fill="#08bef0" fill-opacity="1"><g transform="translate(76.268074, 16.629136)"><g><path d="M 1.625 0 L 0.328125 -10.640625 L 2.515625 -10.640625 L 3.21875 -4.921875 L 3.84375 -10.640625 L 6.0625 -10.640625 L 6.78125 -4.921875 L 7.375 -10.640625 L 9.78125 -10.640625 L 8.40625 0 L 5.875 0 L 5.109375 -6.046875 L 4.453125 0 Z M 1.625 0 "/></g></g></g><g fill="#08bef0" fill-opacity="1"><g transform="translate(86.383117, 16.629136)"><g/></g></g><g fill="#08bef0" fill-opacity="1"><g transform="translate(89.78386, 16.629136)"><g><path d="M 2.0625 0 L 2.0625 -4.109375 L 0.078125 -12.484375 L 2.546875 -12.484375 L 3.234375 -8.25 L 3.9375 -12.484375 L 6.40625 -12.484375 L 4.421875 -4.109375 L 4.421875 0 Z M 2.0625 0 "/></g></g></g><g fill="#08bef0" fill-opacity="1"><g transform="translate(96.265622, 16.629136)"><g><path d="M 3.609375 0.109375 C 1.484375 0.109375 0.421875 -0.988281 0.421875 -3.1875 L 0.421875 -7.453125 C 0.421875 -8.460938 0.703125 -9.265625 1.265625 -9.859375 C 1.835938 -10.453125 2.617188 -10.75 3.609375 -10.75 C 4.585938 -10.75 5.359375 -10.453125 5.921875 -9.859375 C 6.492188 -9.265625 6.78125 -8.460938 6.78125 -7.453125 L 6.78125 -3.1875 C 6.78125 -0.988281 5.722656 0.109375 3.609375 0.109375 Z M 3.609375 -1.84375 C 3.804688 -1.84375 3.953125 -1.914062 4.046875 -2.0625 C 4.148438 -2.207031 4.203125 -2.40625 4.203125 -2.65625 L 4.203125 -7.859375 C 4.203125 -8.484375 4.003906 -8.796875 3.609375 -8.796875 C 3.210938 -8.796875 3.015625 -8.484375 3.015625 -7.859375 L 3.015625 -2.65625 C 3.015625 -2.40625 3.0625 -2.207031 3.15625 -2.0625 C 3.25 -1.914062 3.398438 -1.84375 3.609375 -1.84375 Z M 3.609375 -1.84375 "/></g></g></g><g fill="#08bef0" fill-opacity="1"><g transform="translate(103.488574, 16.629136)"><g><path d="M 0.515625 -10.640625 L 3.046875 -10.640625 L 3.046875 -9.453125 C 3.171875 -9.867188 3.390625 -10.191406 3.703125 -10.421875 C 4.023438 -10.648438 4.414062 -10.765625 4.875 -10.765625 L 4.875 -8.640625 C 4.519531 -8.640625 4.125 -8.585938 3.6875 -8.484375 C 3.257812 -8.390625 3.046875 -8.273438 3.046875 -8.140625 L 3.046875 0 L 0.515625 0 Z M 0.515625 -10.640625 "/></g></g></g><g fill="#08bef0" fill-opacity="1"><g transform="translate(108.487965, 16.629136)"><g><path d="M 0.515625 0 L 0.515625 -12.5625 L 3.015625 -12.5625 L 3.015625 -6.96875 L 4.25 -10.640625 L 6.875 -10.640625 L 5.28125 -6.015625 L 7.3125 0 L 4.609375 0 L 3.015625 -5.015625 L 3.015625 0 Z M 0.515625 0 "/></g></g></g></g></g><path stroke-linecap="butt" transform="matrix(0.0338001, 0.745945, -0.745945, 0.0338001, 115.251772, 62.115634)" fill="none" stroke-linejoin="miter" d="M 0.000378336 0.499874 L 53.691805 0.49769 " stroke="#08bef0" stroke-width="1" stroke-opacity="1" stroke-miterlimit="4"/><path stroke-linecap="butt" transform="matrix(0.479347, 0.572541, -0.572541, 0.479347, 84.175644, 40.822348)" fill="none" stroke-linejoin="miter" d="M 0.00156702 0.499127 L 64.651162 0.501395 " stroke="#08bef0" stroke-width="1" stroke-opacity="1" stroke-miterlimit="4"/><path stroke-linecap="butt" transform="matrix(0.744983, 0.0507565, -0.0507565, 0.744983, 65.978793, 95.333772)" fill="none" stroke-linejoin="miter" d="M -0.000317149 0.501051 L 68.032866 0.501052 " stroke="#08bef0" stroke-width="1" stroke-opacity="1" stroke-miterlimit="4"/><path stroke-linecap="butt" transform="matrix(0.229054, -0.710711, 0.710711, 0.229054, 64.602432, 94.602725)" fill="none" stroke-linejoin="miter" d="M 0.107048 5.136251 C 28.794074 -1.047844 53.478715 -1.044852 74.152783 5.136872 " stroke="#08bef0" stroke-width="1" stroke-opacity="1" stroke-miterlimit="4"/><path stroke-linecap="butt" transform="matrix(0.742841, -0.0759153, 0.0759153, 0.742841, 116.701705, 102.110183)" fill="none" stroke-linejoin="miter" d="M -0.00168525 0.4983 L 32.327565 0.499863 " stroke="#08bef0" stroke-width="1" stroke-opacity="1" stroke-miterlimit="4"/><g clip-path="url(#7f8d3dcb80)"><g clip-path="url(#43efcf37b9)"><g transform="matrix(1, 0, 0, 1, 63, 102)"><g clip-path="url(#98b9162eb9)"><g clip-path="url(#158eb2726b)"><g clip-path="url(#0c209a0d13)"><path fill="#08bef0" d="M 0.0429688 0.183594 L 60.386719 0.183594 L 60.386719 8.089844 L 0.0429688 8.089844 Z M 0.0429688 0.183594 " fill-opacity="1" fill-rule="nonzero"/></g></g></g></g></g></g><g clip-path="url(#049d14befb)"><g clip-path="url(#defa2560e5)"><g transform="matrix(1, 0, 0, 1, 68, 72)"><g clip-path="url(#c385b83a39)"><g clip-path="url(#b73bc9040d)"><g clip-path="url(#c0179c1046)"><path fill="#08bef0" d="M 3.972656 0.910156 L 47.691406 7.765625 L 44.652344 27.132812 L 0.933594 20.273438 Z M 3.972656 0.910156 " fill-opacity="1" fill-rule="nonzero"/></g></g></g></g></g></g><g clip-path="url(#d6c7fd068c)"><g clip-path="url(#df9ee7bb05)"><g transform="matrix(1, 0, 0, 1, 109, 77)"><g clip-path="url(#3db0e86386)"><g clip-path="url(#b9d7088fb9)"><g clip-path="url(#9508f679c4)"><path fill="#08bef0" d="M 0.796875 1.027344 L 6.234375 0.792969 L 7.089844 20.632812 L 1.648438 20.867188 Z M 0.796875 1.027344 " fill-opacity="1" fill-rule="nonzero"/></g></g></g></g></g></g><g clip-path="url(#84ae0ea0cd)"><g clip-path="url(#8985d593bc)"><g transform="matrix(1, 0, 0, 1, 76, 48)"><g clip-path="url(#a0903b09ae)"><g clip-path="url(#91682e19c6)"><g clip-path="url(#68a3c541dd)"><path fill="#08bef0" d="M 13.574219 0.292969 L 39.160156 30.667969 L 25.589844 42.101562 L 0 11.722656 Z M 13.574219 0.292969 " fill-opacity="1" fill-rule="nonzero"/></g></g></g></g></g></g><g clip-path="url(#a2a0437a9a)"><g clip-path="url(#5214550686)"><g transform="matrix(1, 0, 0, 1, 72, 60)"><g clip-path="url(#4d9577b258)"><g clip-path="url(#167e8f6df5)"><g clip-path="url(#729357ec22)"><path fill="#08bef0" d="M 4.328125 0.371094 L 21.214844 3.886719 L 17.601562 21.234375 L 0.714844 17.71875 Z M 4.328125 0.371094 " fill-opacity="1" fill-rule="nonzero"/></g></g></g></g></g></g><g clip-path="url(#edddf4dcc4)"><g clip-path="url(#308cafa266)"><g transform="matrix(1, 0, 0, 1, 111, 96)"><g clip-path="url(#3f9d17689e)"><g clip-path="url(#014c02391f)"><g clip-path="url(#b877bc0c30)"><path fill="#08bef0" d="M 0.472656 0.585938 L 5.632812 1.265625 L 5.382812 3.160156 L 0.222656 2.476562 Z M 0.472656 0.585938 " fill-opacity="1" fill-rule="nonzero"/></g></g></g></g></g></g><g clip-path="url(#cf1b124804)"><g clip-path="url(#df2bd31d11)"><g transform="matrix(1, 0, 0, 1, 72, 62)"><g clip-path="url(#c06cec7b53)"><g clip-path="url(#074789e646)"><g clip-path="url(#0d5c7e89f9)"><path fill="#08bef0" d="M 3.4375 0.550781 L 4.777344 0.929688 L 1.707031 11.78125 L 0.363281 11.402344 Z M 3.4375 0.550781 " fill-opacity="1" fill-rule="nonzero"/></g></g></g></g></g></g><g clip-path="url(#60fa7aeda3)"><g clip-path="url(#337405824c)"><g transform="matrix(1, 0, 0, 1, 76, 44)"><g clip-path="url(#78292a1c3d)"><g clip-path="url(#4c31c30bcb)"><g clip-path="url(#90a4a74911)"><path fill="#08bef0" d="M 8.058594 0.722656 L 13.917969 3.707031 L 5.863281 19.523438 L 0.00390625 16.539062 Z M 8.058594 0.722656 " fill-opacity="1" fill-rule="nonzero"/></g></g></g></g></g></g><g clip-path="url(#5c00c5bf00)"><g clip-path="url(#2cb4c28eb2)"><g transform="matrix(1, 0, 0, 1, 85, 44)"><g clip-path="url(#547d9fa7ee)"><g clip-path="url(#b668974679)"><g clip-path="url(#393368c093)"><path fill="#08bef0" d="M 0.242188 2.472656 L 1.242188 0.808594 L 3.632812 2.246094 L 2.632812 3.910156 Z M 0.242188 2.472656 " fill-opacity="1" fill-rule="nonzero"/></g></g></g></g></g></g><g clip-path="url(#4c759ae911)"><g clip-path="url(#e4b94ac041)"><g transform="matrix(1, 0, 0, 1, 83, 43)"><g clip-path="url(#0a666628c0)"><g clip-path="url(#ed488fb711)"><g clip-path="url(#7617a7b389)"><path fill="#08bef0" d="M 0.882812 1.667969 L 2.039062 0.105469 L 4.28125 1.769531 L 3.125 3.328125 Z M 0.882812 1.667969 " fill-opacity="1" fill-rule="nonzero"/></g></g></g></g></g></g><g clip-path="url(#ef9e599f98)"><g clip-path="url(#0d80828fa5)"><g transform="matrix(1, 0, 0, 1, 68, 91)"><g clip-path="url(#49520e3de5)"><g clip-path="url(#001cc1e0d4)"><g clip-path="url(#8884a445fa)"><path fill="#08bef0" d="M 0.835938 0.0625 L 38.078125 2.878906 L 37.734375 7.441406 L 0.492188 4.621094 Z M 0.835938 0.0625 " fill-opacity="1" fill-rule="nonzero"/></g></g></g></g></g></g><path stroke-linecap="butt" transform="matrix(0.745242, -0.0468027, 0.0468027, 0.745242, 101.44468, 111.585415)" fill="none" stroke-linejoin="miter" d="M 0.0744758 2.416507 C 17.537509 -0.140164 35.002384 -0.138827 52.474648 2.415627 " stroke="#08bef0" stroke-width="1" stroke-opacity="1" stroke-miterlimit="4"/><path stroke-linecap="butt" transform="matrix(0.740799, 0.0937725, -0.0937725, 0.740799, 63.597974, 107.854977)" fill="none" stroke-linejoin="miter" d="M 0.164554 0.470226 C 17.728308 6.546691 35.303357 6.547205 52.884512 0.472424 " stroke="#08bef0" stroke-width="1" stroke-opacity="1" stroke-miterlimit="4"/><path stroke-linecap="butt" transform="matrix(0.745242, -0.0468027, 0.0468027, 0.745242, 101.44576, 115.864305)" fill="none" stroke-linejoin="miter" d="M 0.0728341 2.41957 C 17.535867 -0.137101 35.006291 -0.140656 52.473006 2.418691 " stroke="#08bef0" stroke-width="1" stroke-opacity="1" stroke-miterlimit="4"/><path stroke-linecap="butt" transform="matrix(0.740799, 0.0937725, -0.0937725, 0.740799, 63.599061, 112.133876)" fill="none" stroke-linejoin="miter" d="M 0.163505 0.473532 C 17.726602 6.544807 35.301651 6.545321 52.887996 0.469883 " stroke="#08bef0" stroke-width="1" stroke-opacity="1" stroke-miterlimit="4"/></svg>